<?xml version="1.0" encoding="utf-8"?>
<!-- Generator: Adobe Illustrator 24.2.1, SVG Export Plug-In . SVG Version: 6.00 Build 0)  -->
<svg version="1.1" id="Layer_1" xmlns="http://www.w3.org/2000/svg" xmlns:xlink="http://www.w3.org/1999/xlink" x="0px" y="0px"
	 viewBox="0 0 586.4 533.9" style="enable-background:new 0 0 586.4 533.9;" xml:space="preserve">
<style type="text/css">
	.st0{fill:#474747;}
	.st1{fill:#E93857;}
	.st2{fill:#AC405D;}
	.st3{fill:#343434;}
	.st4{opacity:0.2;enable-background:new    ;}
	.st5{fill:url(#Path_369_1_);}
	.st6{opacity:0.15;fill:url(#Path_380_1_);enable-background:new    ;}
	.st7{opacity:0.15;fill:url(#Path_381_1_);enable-background:new    ;}
	.st8{fill:#FCD6B3;}
	.st9{fill:#F6C12B;}
	.st10{fill:url(#Path_536_1_);}
	.st11{opacity:0.2;fill:url(#Path_537_1_);enable-background:new    ;}
	.st12{opacity:0.2;fill:url(#Path_538_1_);enable-background:new    ;}
	.st13{fill:url(#Path_536-2_1_);}
	.st14{opacity:0.2;fill:url(#Path_537-2_1_);enable-background:new    ;}
	.st15{opacity:0.2;fill:url(#Path_538-2_1_);enable-background:new    ;}
</style>
<g id="Group_533" transform="translate(-112.086 -478.111)">
	<path id="Path_350" class="st0" d="M332.1,946.9l-22.8,8c-2.5,0.9-4.1-1.1-2.8-3.4l12.3-20.9L332.1,946.9z"/>
	<path id="Path_351" class="st1" d="M361,744.1c3.1-15-107.9-112.1-148.9-42.6c-35.5,60.2,14,97.3,69.3,100.7
		c55.3,3.4,84.8-16,84.8-16L361,744.1z"/>
	<path id="Path_352" class="st2" d="M252.7,785.1c10.8-10.6,18.3-22.4,21.7-33.7c0.3-0.9-0.2-1.9-1.1-2.2
		c-7.4-2.6-14.7-5.8-21.6-9.5c-0.3-0.1-0.5-0.2-0.8-0.1c-0.1,0-0.3,0.1-0.4,0.2c-11.5,7.4-24.2,12.6-37.5,15.5
		c-1.3,0.3-3.1,0.5-4.8,0.7c-0.3,0-0.5-0.2-0.5-0.4c0-0.2,0.1-0.4,0.3-0.5c13.2-4.3,34-14.4,35.4-18.6c0.1-0.3,0.4-0.6,0.3-1
		c0-0.4-0.2-0.7-0.5-0.9c-9.7-6.2-18.5-13.8-26.1-22.4c-0.2-0.2-0.2-0.6,0-0.8c0.2-0.2,0.5-0.2,0.7,0c9.6,8.2,20,15.5,30.9,21.7
		c0.3,0.1,0.6,0.2,0.8,0.1c0.1,0,0.1,0,0.2-0.1c0.3-0.1,0.6-0.4,0.7-0.8c3.1-11.4,3.8-29.2,2.1-45.5c0-0.3,0.2-0.6,0.5-0.6
		c0.3,0,0.6,0.2,0.6,0.5c3.3,15.7,3.5,35.7,1.3,48.4c-0.1,0.7,0.2,1.5,0.9,1.8c12.4,6.3,15.9,6.8,19,7.8c0.3,0.1,0.6,0.1,0.9-0.1
		c0.3-0.2,0.5-0.4,0.6-0.7c3.9-14.1,4.1-29.9,0.8-48c-0.1-0.3,0.1-0.6,0.4-0.7c0.3-0.1,0.6,0.1,0.6,0.4c4.3,15.2,5.2,32.2,2.8,50.6
		c-0.1,0.6,0.3,1.1,0.8,1.3c25.5,7.9,53,9.5,81.8,4.8c0.3,0,0.6,0.1,0.6,0.4l0.6,2.5c0.1,0.3-0.1,0.6-0.4,0.7
		c-0.7,0.2-1.5,0.4-2.5,0.6l0,0c-11.3,2.4-41.6,6.7-80.7-4.8c-0.2-0.1-0.4-0.1-0.6,0c-0.4,0.1-0.7,0.4-0.9,0.8
		c-4.8,13.6-13.8,25-26.4,33.5c-0.3,0.2-0.6,0.1-0.8-0.2C252.5,785.6,252.5,785.3,252.7,785.1z"/>
	<g id="Group_236" transform="matrix(0.978, 0.208, -0.208, 0.978, 453.652, 658.237)">
		<path id="Path_355" class="st1" d="M10.8,104.2C2.6,91.3,72-38.9,134.9,11.6c54.5,43.7,21.5,96-29.1,118.8s-84.9,15.1-84.9,15.1
			L10.8,104.2z"/>
		<path id="Path_356" class="st2" d="M126.6,104.2c-13.8-6.1-25.1-14.4-32.3-23.8c-0.6-0.8-0.4-1.8,0.3-2.4
			c6-5.1,11.7-10.6,16.8-16.6c0.2-0.2,0.4-0.4,0.7-0.4c0.1,0,0.3,0,0.4,0c13.3,2.8,27.1,3.2,40.6,1.2c1.3-0.2,3.1-0.6,4.7-1
			c0.3-0.1,0.4-0.3,0.3-0.6c-0.1-0.2-0.3-0.4-0.5-0.4c-13.8,0.7-36.9-1.4-39.7-4.8c-0.2-0.3-0.6-0.4-0.7-0.8c-0.1-0.3,0-0.7,0.2-1
			c6.9-9.3,12.4-19.4,16.5-30.2c0.1-0.3,0-0.6-0.3-0.7c-0.3-0.1-0.6,0-0.7,0.3c-6.1,11.1-13.2,21.6-21.2,31.3
			c-0.2,0.2-0.5,0.4-0.7,0.4c-0.1,0-0.1,0-0.2,0c-0.4,0-0.7-0.2-0.9-0.5c-6.9-9.5-14-26-18.1-41.8c-0.1-0.3-0.4-0.5-0.7-0.4
			c-0.3,0.1-0.5,0.3-0.4,0.6c2.4,15.8,9.4,34.6,15.9,45.7c0.4,0.7,0.3,1.5-0.2,2c-9.3,10.2-11.7,11.4-15,14
			c-0.2,0.1-0.4,0.2-0.6,0.2c-0.1,0-0.2,0-0.4,0c-0.3,0-0.6-0.2-0.8-0.5C81.1,62.2,75.3,47.6,72,29.4c-0.1-0.3-0.3-0.5-0.6-0.4
			c-0.3,0.1-0.5,0.3-0.4,0.6c1.4,15.7,6.5,31.9,15.4,48.3c0.3,0.5,0.1,1.2-0.3,1.5c-21,16.4-46.1,27.7-74.7,33.5
			c-0.3,0.1-0.5,0.3-0.4,0.6l0.3,2.5c0,0.3,0.3,0.5,0.6,0.5c0.7-0.1,1.5-0.2,2.6-0.4l0,0c11.4-1.8,41.3-8.5,73.8-33.1
			c0.2-0.1,0.3-0.2,0.5-0.2c0.4-0.1,0.8,0.1,1.1,0.4c9.3,11,21.8,18.5,36.6,21.9c0.3,0.1,0.6-0.1,0.7-0.4
			C127,104.5,126.9,104.3,126.6,104.2z"/>
	</g>
	<path id="Path_359" class="st3" d="M327.2,1010.2L327.2,1010.2c3.6,0.8,7.1-0.9,7.7-3.7c7.1-19.4,11.5-39.7,13.3-60.3
		c0.2-2.1-1.2-4-3.3-4.4l-5.1-1.1c-2.2-0.5-4.4,1-4.9,3.2c0,0.2-0.1,0.3-0.1,0.5c-2.1,21.1-6.2,40.9-13,58.9
		c-0.2,0.5-0.3,1.1-0.3,1.6C321.8,1007.2,324,1009.5,327.2,1010.2z"/>
	<path id="Path_360" class="st3" d="M491.5,1002.7L491.5,1002.7c3.5-1.1,5.7-4.1,4.8-6.8c-4.7-35.3-26.8-58.8-26.8-58.8
		c-2.3,0.7-12.8,10.5-10.9,12c18.8,15,20.4,30.7,24.4,45.8c0.1,0.5,0.9,5.4,1.2,5.8C485.5,1002.8,488.5,1003.7,491.5,1002.7z"/>
	<g id="Group_239" transform="matrix(0.978, 0.208, -0.208, 0.978, 321.602, 551.055)">
		<g id="Group_237" transform="translate(0 30.827)">
			<g>
				<g id="Path_361_9_">
					<path class="st3" d="M63.1,100.5l-4.2,2C44,54,27.1,35.4,1.4,9.5c-1.9-2-1.9-5.1,0-7c0.3-0.3,0.7-0.6,1.2-0.9l0,0
						c6.2-3.3,13.8-1.3,17.7,4.5C37.8,32.9,52.1,64.2,63.1,100.5z"/>
				</g>
			</g>
		</g>
		<g id="Group_238" transform="translate(155.932 0)">
			<path id="Path_364" class="st3" d="M0.3,110.3l4.6,0.4C2.4,71.9,11.6,34.9,25.5,3.3c1.1-2.5,0-5.5-2.5-6.6
				c-0.4-0.2-0.9-0.3-1.4-0.4l0,0C14.7-4.5,8.2,0.1,6.7,6.9C-0.1,38.2-2.4,72.5,0.3,110.3z"/>
			<path id="Path_365" class="st4" d="M9.2,10.9c1.3,1.7,4.7,1.2,7.7-1.2s4.4-5.7,3.1-7.5c-1.3-1.7-4.7-1.2-7.7,1.2
				S7.9,9.2,9.2,10.9z"/>
			<path id="Path_366" class="st4" d="M12.2,7.4c0.5,0.7,2,0.5,3.3-0.5s1.9-2.4,1.3-3.1c-0.5-0.7-2-0.5-3.3,0.5S11.7,6.7,12.2,7.4z"
				/>
		</g>
	</g>
	<linearGradient id="Path_369_1_" gradientUnits="userSpaceOnUse" x1="282.417" y1="802.5681" x2="518.6899" y2="802.5681">
		<stop  offset="0" style="stop-color:#F29D00"/>
		<stop  offset="0.486" style="stop-color:#F9CC2D"/>
	</linearGradient>
	<path id="Path_369" class="st5" d="M282.5,792.7c-1.4,124.8,23.4,170,116.3,171c89.8,1,118.5-41.4,119.9-168.5
		c0.2-14.3-0.5-28.7-2.1-42.9c-10.7-89.9-60.3-110.3-114.4-110.8C348.4,640.9,298.6,656,285.7,747
		C283.6,762.1,282.5,777.4,282.5,792.7z"/>
	<path id="Path_371" class="st0" d="M282.8,778.8c-0.2,4.5-0.3,9.1-0.4,13.9c0,3.5-0.1,6.9-0.1,10.2c77.8,16.1,157.9,17.1,236,2.9
		c0.1-3.5,0.1-7,0.2-10.6c0-4.7,0-9.2-0.1-13.6C440.3,792.5,360.8,791.6,282.8,778.8z"/>
	<path id="Path_372" class="st0" d="M283.1,832.7c0.4,8.7,1.1,16.9,1.9,24.6c75.7,15.1,153.5,16,229.5,2.5
		c1.1-7.7,1.9-15.9,2.5-24.6C439.4,846,360.6,845.1,283.1,832.7z"/>
	<path id="Path_373" class="st0" d="M290.1,887.3c2.1,9,5.1,17.8,9,26.2c66,11.6,133.5,12.4,199.7,2.3c4.1-8.3,7.4-17.1,9.8-26
		C436,899.1,362.5,898.3,290.1,887.3z"/>
	<path id="Path_377" class="st0" d="M316.4,938.2c7.6,7.3,16.6,12.9,26.4,16.6c15.2,5.9,33.8,8.7,56.2,8.9
		c36.9,0.4,63.3-6.6,81.9-23.8C422.9,950.1,374.3,949.6,316.4,938.2z"/>
	
		<radialGradient id="Path_380_1_" cx="-364.5761" cy="1516.9398" r="0.988" gradientTransform="matrix(-22.2504 -0.5962 -0.6389 22.3494 -6547.9453 -35534.7891)" gradientUnits="userSpaceOnUse">
		<stop  offset="0" style="stop-color:#9A9A9A"/>
		<stop  offset="5.000000e-03" style="stop-color:#979797"/>
		<stop  offset="0.195" style="stop-color:#464646"/>
		<stop  offset="0.329" style="stop-color:#131313"/>
		<stop  offset="0.394" style="stop-color:#000000"/>
		<stop  offset="0.52" style="stop-color:#0B0B0B"/>
		<stop  offset="0.809" style="stop-color:#212121"/>
		<stop  offset="0.998" style="stop-color:#292929"/>
	</radialGradient>
	<path id="Path_380" class="st6" d="M337.7,680.8c0.2-6.1,5.3-11,11.5-10.8c0,0,0.1,0,0.1,0c6.2,0.2,11,5.4,10.8,11.5
		c-0.2,6.2-5.4,11-11.5,10.8C342.3,692.2,337.5,687,337.7,680.8z"/>
	
		<radialGradient id="Path_381_1_" cx="-364.5758" cy="1516.9397" r="0.988" gradientTransform="matrix(-22.2507 -0.5963 -0.6389 22.3494 -6438.0493 -35485.0195)" gradientUnits="userSpaceOnUse">
		<stop  offset="0" style="stop-color:#9A9A9A"/>
		<stop  offset="5.000000e-03" style="stop-color:#979797"/>
		<stop  offset="0.195" style="stop-color:#464646"/>
		<stop  offset="0.329" style="stop-color:#131313"/>
		<stop  offset="0.394" style="stop-color:#000000"/>
		<stop  offset="0.52" style="stop-color:#0B0B0B"/>
		<stop  offset="0.809" style="stop-color:#212121"/>
		<stop  offset="0.998" style="stop-color:#292929"/>
	</radialGradient>
	<path id="Path_381" class="st7" d="M453.4,683c0.2-6.1,5.3-11,11.5-10.8c0,0,0.1,0,0.1,0c6.2,0.2,11,5.4,10.8,11.5
		c-0.2,6.2-5.4,11-11.5,10.8C458,694.3,453.2,689.1,453.4,683z"/>
	<path id="Path_382" class="st3" d="M337.7,679.2c0.2-6.1,5.3-11,11.5-10.8c0,0,0.1,0,0.1,0c6.2,0.2,11,5.4,10.8,11.5
		c-0.2,6.2-5.4,11-11.5,10.8C342.4,690.5,337.5,685.4,337.7,679.2z"/>
	<path id="Path_385" class="st3" d="M453.9,681.3c0.2-6.1,5.3-11,11.5-10.8c0,0,0.1,0,0.1,0c6.2,0.2,11,5.4,10.8,11.5
		c-0.2,6.2-5.4,11-11.5,10.8S453.7,687.5,453.9,681.3C453.9,681.3,453.9,681.3,453.9,681.3z"/>
	<path id="Path_386" class="st8" d="M450.9,709.9c1.1-1.9,3.4-2.9,5.5-2.3c3,0.6,4.3,4.9,4.3,4.9s2.7-3.8,5.8-3.2
		c2.2,0.3,3.9,2,4.3,4.1c2.5,9.1-10.2,13.1-12.3,13.7c-0.2,0.1-0.4,0-0.6-0.1C456.1,725.7,445.5,717.7,450.9,709.9z"/>
	<path id="Path_387" class="st8" d="M361.5,708.5c-1-2-3.2-3-5.4-2.6c-3.1,0.4-4.6,4.7-4.6,4.7s-2.5-4-5.6-3.5
		c-2.2,0.2-4,1.8-4.5,3.9c-3,9,9.4,13.6,11.6,14.4c0.2,0.1,0.4,0,0.6-0.1C355.5,724,366.5,716.6,361.5,708.5z"/>
	<path id="Path_413" class="st9" d="M402.5,720.1c-0.4,11.1,7.3,20.3,17.1,20.7s18-8.4,18.4-19.5c0.4-11.1-7.3-20.3-17.1-20.7
		S402.8,709,402.5,720.1z"/>
	<path id="Path_414" class="st3" d="M408.5,717.3c-0.2,6.9,5.2,12.6,12,12.8c6.9,0.2,12.6-5.2,12.8-12c0.2-6.9-5.2-12.6-12-12.8
		c0,0,0,0,0,0C414.4,705.1,408.7,710.5,408.5,717.3z"/>
	<path id="Path_415" class="st3" d="M422.2,721.5c4.8,0.1,8.3-2.7,8.3-6.3c0-3.5-3.6-1.2-8.3-1.2c-4.8-0.1-7.7-2.5-7.8,1
		S417.4,721.5,422.2,721.5z"/>
	<path id="Path_368" class="st0" d="M288.9,802.9c-15.3-13.2-29.1-31.6-42.2-52.8c1.8-4.1,4.4-6.2,8.3-4.7
		c11,14,22.3,27.7,38.2,36.8l11.2,22.5L288.9,802.9z"/>
	<path id="Path_650" class="st0" d="M519.9,802.9c15.3-13.2,29.1-31.6,42.2-52.8c-1.8-4.1-4.4-6.2-8.3-4.7
		c-11,14-22.3,27.7-38.2,36.8l-11.2,22.5L519.9,802.9z"/>
	<g id="Group_453" transform="translate(256.024 608.111) rotate(51)">
		
			<linearGradient id="Path_536_1_" gradientUnits="userSpaceOnUse" x1="323.0045" y1="1028.9457" x2="323.0015" y2="1028.6367" gradientTransform="matrix(140.3887 -143.9391 -173.3659 -116.5594 133071.7031 164440)">
			<stop  offset="8.199999e-02" style="stop-color:#DFC8AE"/>
			<stop  offset="0.424" style="stop-color:#D6B796"/>
			<stop  offset="0.995" style="stop-color:#C69C6D"/>
		</linearGradient>
		<path id="Path_536" class="st10" d="M-99.3-79.1c-2.6,3.1-2.2,7.8,1,10.4L110,101.7c3.1,2.6,7.8,2.1,10.4-1
			c1.8-2.2,2.2-5.3,0.9-7.9c-0.4-0.9-1-1.6-1.7-2.3c-0.1-0.1-0.1-0.1-0.2-0.2L-89-80.1c-0.3-0.2-0.6-0.4-0.9-0.6
			c-0.2-0.1-0.4-0.2-0.5-0.3C-93.5-82.6-97.2-81.8-99.3-79.1z"/>
		
			<linearGradient id="Path_537_1_" gradientUnits="userSpaceOnUse" x1="323.0047" y1="1028.9454" x2="323.0017" y2="1028.6375" gradientTransform="matrix(140.3887 -143.9398 -173.3659 -116.56 133071.7031 164440.9219)">
			<stop  offset="8.199999e-02" style="stop-color:#DFC8AE"/>
			<stop  offset="0.424" style="stop-color:#D6B796"/>
			<stop  offset="0.995" style="stop-color:#C69C6D"/>
		</linearGradient>
		<path id="Path_537" class="st11" d="M-99.3-79.1c-2.6,3.1-2.2,7.8,1,10.4L110,101.7c3.1,2.6,7.8,2.1,10.4-1
			c1.8-2.2,2.2-5.3,0.9-7.9c-0.4-0.9-1-1.6-1.7-2.3c-0.9,0.1-1.8,0-2.7-0.1c-10.1-2-210-165.1-207.5-169.8c0.2-0.4,0.5-0.9,0.8-1.4
			c-0.2-0.1-0.4-0.2-0.5-0.3C-93.5-82.6-97.2-81.8-99.3-79.1z"/>
		
			<linearGradient id="Path_538_1_" gradientUnits="userSpaceOnUse" x1="323.0052" y1="1028.9449" x2="323.0022" y2="1028.6389" gradientTransform="matrix(140.3887 -143.9304 -173.3659 -116.5524 133071.7031 164430.1563)">
			<stop  offset="8.199999e-02" style="stop-color:#DFC8AE"/>
			<stop  offset="0.424" style="stop-color:#D6B796"/>
			<stop  offset="0.995" style="stop-color:#C69C6D"/>
		</linearGradient>
		<path id="Path_538" class="st12" d="M-99.3-79.1c-2.6,3.1-2.2,7.8,1,10.4L110,101.7c3.1,2.6,7.8,2.1,10.4-1
			c1.8-2.2,2.2-5.3,0.9-7.9c-2.3,1.8-5.2,2.5-8.1,2C103.1,92.9-96.8-70.3-94.3-75c0.8-1.5,2.4-3.8,3.9-6.1c-1.4-0.7-3-0.9-4.5-0.7
			C-96.6-81.4-98.2-80.5-99.3-79.1z"/>
	</g>
	<path id="Path_651" class="st0" d="M261.3,754.7c0.1-2-18-3.9-17.7-10.2c0.3-6.7,13.3-4.3,13.3-4.3
		C262.6,742.2,265.5,749.8,261.3,754.7z"/>
	<g id="Group_455" transform="translate(558.094 608.111) rotate(51)">
		
			<linearGradient id="Path_536-2_1_" gradientUnits="userSpaceOnUse" x1="132.9057" y1="1263.6982" x2="132.9028" y2="1263.3893" gradientTransform="matrix(140.3887 -143.9391 -173.3659 -116.5594 200457.5313 164439.9844)">
			<stop  offset="8.199999e-02" style="stop-color:#DFC8AE"/>
			<stop  offset="0.424" style="stop-color:#D6B796"/>
			<stop  offset="0.995" style="stop-color:#C69C6D"/>
		</linearGradient>
		<path id="Path_536-2" class="st13" d="M-99.3-79.1c-2.6,3.1-2.2,7.8,1,10.4L110,101.7c3.1,2.6,7.8,2.1,10.4-1
			c1.8-2.2,2.2-5.3,0.9-7.9c-0.4-0.9-1-1.6-1.7-2.3c-0.1-0.1-0.1-0.1-0.2-0.2L-89-80.1c-0.3-0.2-0.6-0.4-0.9-0.6
			c-0.2-0.1-0.4-0.2-0.5-0.3C-93.5-82.6-97.2-81.8-99.3-79.1z"/>
		
			<linearGradient id="Path_537-2_1_" gradientUnits="userSpaceOnUse" x1="132.906" y1="1263.698" x2="132.903" y2="1263.39" gradientTransform="matrix(140.3887 -143.9398 -173.3659 -116.56 200457.5313 164440.9063)">
			<stop  offset="8.199999e-02" style="stop-color:#DFC8AE"/>
			<stop  offset="0.424" style="stop-color:#D6B796"/>
			<stop  offset="0.995" style="stop-color:#C69C6D"/>
		</linearGradient>
		<path id="Path_537-2" class="st14" d="M-99.3-79.1c-2.6,3.1-2.2,7.8,1,10.4L110,101.7c3.1,2.6,7.8,2.1,10.4-1
			c1.8-2.2,2.2-5.3,0.9-7.9c-0.4-0.9-1-1.6-1.7-2.3c-0.9,0.1-1.8,0-2.7-0.1c-10.1-2-210-165.1-207.5-169.8c0.2-0.4,0.5-0.9,0.8-1.4
			c-0.2-0.1-0.4-0.2-0.5-0.3C-93.5-82.6-97.2-81.8-99.3-79.1z"/>
		
			<linearGradient id="Path_538-2_1_" gradientUnits="userSpaceOnUse" x1="132.9064" y1="1263.6975" x2="132.9034" y2="1263.3915" gradientTransform="matrix(140.3887 -143.9304 -173.3659 -116.5524 200457.5313 164430.125)">
			<stop  offset="8.199999e-02" style="stop-color:#DFC8AE"/>
			<stop  offset="0.424" style="stop-color:#D6B796"/>
			<stop  offset="0.995" style="stop-color:#C69C6D"/>
		</linearGradient>
		<path id="Path_538-2" class="st15" d="M-99.3-79.1c-2.6,3.1-2.2,7.8,1,10.4L110,101.7c3.1,2.6,7.8,2.1,10.4-1
			c1.8-2.2,2.2-5.3,0.9-7.9c-2.3,1.8-5.2,2.5-8.1,2C103.1,92.9-96.8-70.3-94.3-75c0.8-1.5,2.4-3.8,3.9-6.1c-1.4-0.7-3-0.9-4.5-0.7
			C-96.6-81.4-98.2-80.5-99.3-79.1z"/>
	</g>
	<path id="Path_652" class="st0" d="M549.5,754.7c-0.1-2,18-3.9,17.7-10.2c-0.3-6.7-13.3-4.3-13.3-4.3
		C548.2,742.3,545.3,749.8,549.5,754.7z"/>
</g>
</svg>
