<svg xmlns="http://www.w3.org/2000/svg" xmlns:xlink="http://www.w3.org/1999/xlink" id="Layer_1" x="0px" y="0px" viewBox="0 0 689.3 671.6" style="enable-background:new 0 0 689.3 671.6;" xml:space="preserve">
<style type="text/css">
	.st0{fill:#FFFFFF;}
	.st1{fill:#FFC545;}
	.st2{fill:#191919;}
	.st3{fill:#FFCE63;}
	.st4{fill:#FCBF29;}
	.st5{fill:#F9BB4B;}
	.st6{fill:#603813;}
	.st7{fill:#F4F4E6;}
	.st8{fill:#E53935;}
	.st9{fill:#D32F2F;}
	.st10{fill:#C7322E;}
	.st11{fill:#B82929;}
	.st12{fill:#5F4239;}
	.st13{enable-background:new    ;}
	.st14{fill:#FFE9B8;}
	.st15{fill:#58595B;}
</style>
<g id="Path_6993-2" transform="translate(19.13 21)">
	<path class="st0" d="M206.1,239H77.9c-2.1,0-4.1-1.1-5.2-3l-64-110.5c-1.1-1.9-1.1-4.2,0-6L72.7,9c1.1-1.8,3.1-3,5.2-3h128.2   c2.1,0,4.1,1.1,5.2,3l64,110.5c1.1,1.9,1.1,4.2,0,6l-64,110.5C210.2,237.9,208.2,239,206.1,239z"></path>
	<path class="st1" d="M77.9,12l-64,110.5l64,110.5h128.2l64-110.5L206.1,12H77.9 M77.9,0h128.2c4.3,0,8.2,2.3,10.4,6l64,110.5   c2.2,3.7,2.2,8.3,0,12l-64,110.5c-2.1,3.7-6.1,6-10.4,6H77.9c-4.3,0-8.2-2.3-10.4-6l-64-110.5c-2.2-3.7-2.2-8.3,0-12L67.5,6   C69.7,2.3,73.6,0,77.9,0z"></path>
</g>
<path class="st2" d="M96.8,290.8v16.7h-2.7v-7.3h-7.8v7.3h-2.7v-16.7h2.7v7.2h7.8v-7.2H96.8z"></path>
<path class="st2" d="M112.4,301.9h-10.1c0.1,1.1,0.5,1.9,1.2,2.5c0.7,0.6,1.6,1,2.6,1c1.5,0,2.5-0.6,3.1-1.8h3  c-0.4,1.2-1.1,2.2-2.2,3c-1,0.8-2.3,1.2-3.9,1.2c-1.3,0-2.4-0.3-3.4-0.9c-1-0.6-1.8-1.4-2.4-2.4c-0.6-1-0.9-2.2-0.9-3.6  c0-1.4,0.3-2.6,0.8-3.6s1.3-1.8,2.3-2.4c1-0.6,2.1-0.8,3.4-0.8c1.2,0,2.4,0.3,3.3,0.8c1,0.5,1.7,1.3,2.3,2.3s0.8,2.1,0.8,3.4  C112.5,301.1,112.5,301.5,112.4,301.9z M109.7,299.7c0-1-0.4-1.8-1.1-2.4c-0.7-0.6-1.6-0.9-2.6-0.9c-0.9,0-1.8,0.3-2.4,0.9  c-0.7,0.6-1.1,1.4-1.2,2.4H109.7z"></path>
<path class="st2" d="M115.1,297.3c0.6-1,1.3-1.8,2.3-2.4c1-0.6,2-0.9,3.2-0.9c1,0,1.9,0.2,2.7,0.6c0.8,0.4,1.4,0.9,1.9,1.5v-1.9h2.8  v13.2h-2.8v-2c-0.5,0.6-1.1,1.1-1.9,1.6c-0.8,0.4-1.7,0.6-2.7,0.6c-1.1,0-2.2-0.3-3.1-0.9s-1.7-1.4-2.2-2.4c-0.6-1-0.8-2.2-0.8-3.6  S114.6,298.3,115.1,297.3z M124.6,298.5c-0.4-0.7-0.9-1.2-1.5-1.5c-0.6-0.4-1.3-0.5-2-0.5s-1.4,0.2-2,0.5c-0.6,0.3-1.1,0.8-1.5,1.5  s-0.6,1.5-0.6,2.4s0.2,1.7,0.6,2.4c0.4,0.7,0.9,1.2,1.5,1.6c0.6,0.4,1.3,0.5,2,0.5c0.7,0,1.4-0.2,2-0.5c0.6-0.4,1.1-0.9,1.5-1.5  c0.4-0.7,0.6-1.5,0.6-2.4S124.9,299.2,124.6,298.5z"></path>
<path class="st2" d="M134.2,289.7v17.8h-2.7v-17.8H134.2z"></path>
<path class="st2" d="M141,296.5v7.3c0,0.5,0.1,0.9,0.3,1.1c0.2,0.2,0.6,0.3,1.2,0.3h1.7v2.3h-2.2c-1.2,0-2.2-0.3-2.8-0.9  s-1-1.5-1-2.8v-7.3h-1.6v-2.2h1.6V291h2.8v3.3h3.2v2.2H141z"></path>
<path class="st2" d="M156.3,294.7c0.8,0.4,1.4,1.1,1.9,1.9c0.5,0.8,0.7,1.9,0.7,3.1v7.8h-2.7v-7.4c0-1.2-0.3-2.1-0.9-2.7  c-0.6-0.6-1.4-0.9-2.4-0.9c-1,0-1.8,0.3-2.4,0.9c-0.6,0.6-0.9,1.5-0.9,2.7v7.4h-2.7v-17.8h2.7v6.1c0.5-0.6,1.1-1,1.8-1.3  c0.7-0.3,1.5-0.5,2.3-0.5C154.6,294.1,155.5,294.3,156.3,294.7z"></path>
<path class="st2" d="M174.2,294.3l-8.1,19.4h-2.8l2.7-6.4l-5.2-13h3l3.7,10.1l3.9-10.1H174.2z"></path>
<path class="st2" d="M192.4,290.8v2.2h-7.1v4.9h5.5v2.2h-5.5v7.3h-2.7v-16.7H192.4z"></path>
<path class="st2" d="M197.3,306.9c-1-0.6-1.8-1.4-2.4-2.4c-0.6-1-0.9-2.2-0.9-3.6c0-1.3,0.3-2.5,0.9-3.6s1.4-1.8,2.4-2.4  c1-0.6,2.2-0.8,3.4-0.8c1.3,0,2.4,0.3,3.4,0.8c1,0.6,1.8,1.4,2.4,2.4s0.9,2.2,0.9,3.6s-0.3,2.5-0.9,3.6c-0.6,1-1.4,1.8-2.5,2.4  c-1,0.6-2.2,0.9-3.5,0.9C199.4,307.7,198.3,307.4,197.3,306.9z M202.6,304.8c0.6-0.3,1.1-0.8,1.5-1.5c0.4-0.7,0.6-1.5,0.6-2.4  s-0.2-1.8-0.6-2.4s-0.9-1.2-1.5-1.5c-0.6-0.3-1.3-0.5-2-0.5c-0.7,0-1.4,0.2-2,0.5c-0.6,0.3-1.1,0.8-1.4,1.5  c-0.4,0.7-0.5,1.5-0.5,2.4c0,1.4,0.4,2.5,1.1,3.3c0.7,0.8,1.6,1.2,2.7,1.2C201.3,305.3,202,305.2,202.6,304.8z"></path>
<path class="st2" d="M212.6,306.9c-1-0.6-1.8-1.4-2.4-2.4c-0.6-1-0.9-2.2-0.9-3.6c0-1.3,0.3-2.5,0.9-3.6s1.4-1.8,2.4-2.4  c1-0.6,2.2-0.8,3.4-0.8c1.3,0,2.4,0.3,3.4,0.8c1,0.6,1.8,1.4,2.4,2.4s0.9,2.2,0.9,3.6s-0.3,2.5-0.9,3.6c-0.6,1-1.4,1.8-2.5,2.4  c-1,0.6-2.2,0.9-3.5,0.9C214.7,307.7,213.6,307.4,212.6,306.9z M217.9,304.8c0.6-0.3,1.1-0.8,1.5-1.5c0.4-0.7,0.6-1.5,0.6-2.4  s-0.2-1.8-0.6-2.4s-0.9-1.2-1.5-1.5c-0.6-0.3-1.3-0.5-2-0.5c-0.7,0-1.4,0.2-2,0.5c-0.6,0.3-1.1,0.8-1.4,1.5  c-0.4,0.7-0.5,1.5-0.5,2.4c0,1.4,0.4,2.5,1.1,3.3c0.7,0.8,1.6,1.2,2.7,1.2C216.7,305.3,217.3,305.2,217.9,304.8z"></path>
<path class="st2" d="M225.4,297.3c0.6-1,1.3-1.8,2.3-2.4c1-0.6,2-0.9,3.2-0.9c0.9,0,1.7,0.2,2.6,0.6s1.5,0.9,2,1.5v-6.4h2.8v17.8  h-2.8v-2c-0.4,0.6-1.1,1.2-1.9,1.6s-1.7,0.6-2.7,0.6c-1.2,0-2.2-0.3-3.2-0.9s-1.7-1.4-2.3-2.4c-0.6-1-0.8-2.2-0.8-3.6  S224.9,298.3,225.4,297.3z M234.9,298.5c-0.4-0.7-0.9-1.2-1.5-1.5c-0.6-0.4-1.3-0.5-2-0.5s-1.4,0.2-2,0.5c-0.6,0.3-1.1,0.8-1.5,1.5  s-0.6,1.5-0.6,2.4s0.2,1.7,0.6,2.4c0.4,0.7,0.9,1.2,1.5,1.6c0.6,0.4,1.3,0.5,2,0.5c0.7,0,1.4-0.2,2-0.5c0.6-0.4,1.1-0.9,1.5-1.5  c0.4-0.7,0.6-1.5,0.6-2.4S235.2,299.2,234.9,298.5z"></path>
<g id="flat" transform="translate(251.74 1790)">
	<path id="Path_6557" class="st3" d="M-157.1-1644.7c-0.9-2.2-0.9-4.7,0-6.9c1-2,2.6-3.6,4.6-4.6c4.3-2.4,9-3.9,13.9-4.6   c12.2-2,11.3-23.9,23.2-27.4c7.7-2.3,19.2,3.6,23.2,13.7s-1.7,20.2-7,25.1c-2,1.9-4.4,3.5-7,4.6H-157.1z"></path>
	<path id="Path_6558" class="st0" d="M-123.1-1644.8c-0.8-1-0.6-2.4,0.3-3.2c1.8-1.6,3.4-3.3,4.8-5.1c4.5-5.8,7.4-12.6,8.5-19.8   c0.2-1.3,1.4-2.1,2.6-1.9c1.3,0.2,2.1,1.4,1.9,2.6c-1.2,8-4.4,15.5-9.4,21.9c-1.7,2.1-3.5,4-5.5,5.8   C-120.8-1643.6-122.3-1643.7-123.1-1644.8C-123.1-1644.7-123.1-1644.7-123.1-1644.8L-123.1-1644.8z"></path>
	<path id="Path_6559" class="st1" d="M-86.1-1644.7c0.1-3.9,1-9.1,4.6-11.5c6.6-4.4,16.8,3.9,20.8,0c3.9-3.7-4.2-12.8,0-20.8   c3-5.7,11.9-10.6,18.5-6.9c6.2,3.5,5.8,13.5,4.6,18.5c-1.2,5.1-5.6,7.2-4.6,9.2c1,1.9,4.8,0.6,9.2,2.3c4.1,1.8,7.4,5.1,9.2,9.2   L-86.1-1644.7z"></path>
	<path id="Path_6560" class="st0" d="M-51.5-1641.3l-4.6-0.8c0.6-3.9,1.4-7.9,2.3-11.7c1.1-4.8,2.4-9.5,3.9-14.2   c0.4-1.2,1.7-1.8,2.9-1.4c1.2,0.4,1.8,1.7,1.5,2.8c-1.5,4.5-2.8,9.2-3.8,13.8C-50.1-1648.9-50.9-1645.1-51.5-1641.3L-51.5-1641.3z"></path>
	<path id="Path_6561" class="st4" d="M-132.8-1644.7c-5.7-6.6-10.9-13.5-15.6-20.8c-7.1-11-10.6-16.5-8.9-20.8   c2.8-7,17.4-10,26.7-4.6c12.2,7,14.9,26.8,9.3,39.3c-1.3,2.5-2.9,4.9-4.9,6.9H-132.8z"></path>
	<path id="Path_6562" class="st0" d="M-125.5-1647c-1.2,0.2-2.4-0.6-2.6-1.8c-0.5-2.3-1.1-4.5-1.8-6.7c-3.3-9.6-8.8-18.2-16.2-25.2   c-0.9-0.9-1-2.3-0.2-3.3s2.3-1,3.3-0.2c0,0,0,0,0.1,0.1c7.9,7.5,13.9,16.8,17.4,27.1c0.8,2.4,1.5,4.8,2,7.3   C-123.3-1648.5-124.2-1647.3-125.5-1647C-125.4-1647-125.4-1647-125.5-1647L-125.5-1647z"></path>
	<path id="Path_6563" class="st1" d="M-72.3-1651.5c0,8.9-7.3,16.1-16.2,16.1c-8.9,0-16.1-7.3-16.1-16.2c0-0.7,0-1.4,0.2-2.1   l1.2-4.5c2.2-5.1,7-8.6,12.4-9.4h4.6c6.3,0.9,11.4,5.4,13.2,11.5L-72.3-1651.5z"></path>
	<g id="Group_1101" transform="translate(56.288 49.197)">
		<path id="Path_6564" class="st5" d="M-142.4-1716.8v6.7h-4.6v-6.7C-145.5-1717.1-144-1717.1-142.4-1716.8z"></path>
		<path id="Path_6565" class="st5" d="M-153.2-1705.3l-1.5,4.4l-6-2c0.2-1.5,0.6-3,1.2-4.5L-153.2-1705.3z"></path>
		<path id="Path_6566" class="st5" d="M-128.6-1700.8v0.1l-6.2,2.1l-1.5-4.4l7-2.3C-128.8-1703.9-128.6-1702.4-128.6-1700.8    L-128.6-1700.8z"></path>
		<path id="Path_6567" class="st5" d="M-147-1705.5h4.6v4.6h-4.6V-1705.5z"></path>
	</g>
	<path id="Path_6568" class="st1" d="M-56.1-1707.1v4.6c0,10.2-8.3,18.5-18.5,18.5c0,0,0,0,0,0h-9.2v-4.6c0-10.2,8.3-18.5,18.5-18.5   c0,0,0,0,0,0H-56.1z"></path>
	<path id="Path_6569" class="st0" d="M-66.2-1696.1l-14.1,12.1h-3.6v-3l14.7-12.6L-66.2-1696.1z"></path>
	<ellipse id="Ellipse_285" class="st5" cx="-99.7" cy="-1702.5" rx="5" ry="4.5"></ellipse>
	<circle id="Ellipse_286" class="st5" cx="-130.2" cy="-1709.5" r="4.5"></circle>
	<path id="Path_6570" class="st6" d="M-157.7-1644.7h134c0,35.7-29,64.7-64.7,64.7h-4.6C-128.8-1580-157.7-1609-157.7-1644.7   C-157.7-1644.7-157.7-1644.7-157.7-1644.7z"></path>
	<path id="Path_6571" class="st7" d="M-117.2-1594.1c-10.9-5.3-20.1-13.6-26.4-24l3.9-2.4c5.8,9.6,14.3,17.3,24.4,22.2   L-117.2-1594.1z"></path>
	<path id="Path_6572" class="st7" d="M-111.5-1596.2h4.6v4.6h-4.6V-1596.2z"></path>
</g>
<path class="st2" d="M86.2,647.9c1.3,0.7,2.4,1.7,3.1,2.9c0.7,1.3,1.1,2.8,1.1,4.5c0,1.7-0.4,3.2-1.1,4.4c-0.7,1.2-1.8,2.2-3.1,2.9  s-2.9,1-4.7,1H76v-16.7h5.4C83.3,646.9,84.8,647.2,86.2,647.9z M86,659.8c1-1.1,1.6-2.5,1.6-4.5c0-1.9-0.5-3.4-1.6-4.5  c-1-1.1-2.5-1.6-4.5-1.6h-2.7v12.2h2.7C83.4,661.4,84.9,660.8,86,659.8z"></path>
<path class="st2" d="M105.1,658H95c0.1,1.1,0.5,1.9,1.2,2.5c0.7,0.6,1.6,1,2.6,1c1.5,0,2.5-0.6,3.1-1.8h3c-0.4,1.2-1.1,2.2-2.2,3  c-1,0.8-2.3,1.2-3.9,1.2c-1.3,0-2.4-0.3-3.4-0.9c-1-0.6-1.8-1.4-2.4-2.4c-0.6-1-0.9-2.2-0.9-3.6c0-1.4,0.3-2.6,0.8-3.6  s1.3-1.8,2.3-2.4c1-0.6,2.1-0.8,3.4-0.8c1.2,0,2.4,0.3,3.3,0.8c1,0.5,1.7,1.3,2.3,2.3s0.8,2.1,0.8,3.4  C105.2,657.1,105.1,657.6,105.1,658z M102.3,655.8c0-1-0.4-1.8-1.1-2.4c-0.7-0.6-1.6-0.9-2.6-0.9c-0.9,0-1.8,0.3-2.4,0.9  c-0.7,0.6-1.1,1.4-1.2,2.4H102.3z"></path>
<path class="st2" d="M110.6,645.8v17.8h-2.7v-17.8H110.6z"></path>
<path class="st2" d="M114.3,648.1c-0.3-0.3-0.5-0.8-0.5-1.2s0.2-0.9,0.5-1.2s0.8-0.5,1.2-0.5c0.5,0,0.9,0.2,1.2,0.5s0.5,0.8,0.5,1.2  s-0.2,0.9-0.5,1.2c-0.3,0.3-0.7,0.5-1.2,0.5C115.1,648.6,114.7,648.4,114.3,648.1z M116.9,650.4v13.2h-2.7v-13.2H116.9z"></path>
<path class="st2" d="M120.5,653.4c0.6-1,1.3-1.8,2.3-2.4c1-0.6,2.1-0.8,3.4-0.8c1.6,0,2.9,0.4,4,1.1s1.8,1.8,2.1,3.3h-3  c-0.2-0.7-0.6-1.2-1.2-1.5c-0.5-0.4-1.2-0.6-2-0.6c-1.1,0-2,0.4-2.7,1.2c-0.7,0.8-1,1.9-1,3.3s0.3,2.5,1,3.3  c0.7,0.8,1.6,1.2,2.7,1.2c1.6,0,2.6-0.7,3.1-2.1h3c-0.4,1.3-1.1,2.4-2.2,3.2c-1.1,0.8-2.4,1.2-3.9,1.2c-1.3,0-2.4-0.3-3.4-0.9  c-1-0.6-1.7-1.4-2.3-2.4s-0.8-2.2-0.8-3.6C119.6,655.6,119.9,654.4,120.5,653.4z"></path>
<path class="st2" d="M135.1,648.1c-0.3-0.3-0.5-0.8-0.5-1.2s0.2-0.9,0.5-1.2s0.8-0.5,1.2-0.5c0.5,0,0.9,0.2,1.2,0.5s0.5,0.8,0.5,1.2  s-0.2,0.9-0.5,1.2c-0.3,0.3-0.7,0.5-1.2,0.5C135.8,648.6,135.4,648.4,135.1,648.1z M137.7,650.4v13.2h-2.7v-13.2H137.7z"></path>
<path class="st2" d="M143.6,662.9c-1-0.6-1.8-1.4-2.4-2.4c-0.6-1-0.9-2.2-0.9-3.6c0-1.3,0.3-2.5,0.9-3.6s1.4-1.8,2.4-2.4  c1-0.6,2.2-0.8,3.4-0.8c1.3,0,2.4,0.3,3.4,0.8c1,0.6,1.8,1.4,2.4,2.4s0.9,2.2,0.9,3.6s-0.3,2.5-0.9,3.6c-0.6,1-1.4,1.8-2.5,2.4  c-1,0.6-2.2,0.9-3.5,0.9C145.8,663.8,144.6,663.5,143.6,662.9z M149,660.9c0.6-0.3,1.1-0.8,1.5-1.5c0.4-0.7,0.6-1.5,0.6-2.4  s-0.2-1.8-0.6-2.4s-0.9-1.2-1.5-1.5c-0.6-0.3-1.3-0.5-2-0.5c-0.7,0-1.4,0.2-2,0.5c-0.6,0.3-1.1,0.8-1.4,1.5  c-0.4,0.7-0.5,1.5-0.5,2.4c0,1.4,0.4,2.5,1.1,3.3c0.7,0.8,1.6,1.2,2.7,1.2C147.7,661.4,148.4,661.3,149,660.9z"></path>
<path class="st2" d="M168.6,650.4v13.2h-2.7V662c-0.4,0.5-1,1-1.7,1.3c-0.7,0.3-1.4,0.5-2.2,0.5c-1,0-2-0.2-2.8-0.6  s-1.5-1.1-1.9-1.9c-0.5-0.8-0.7-1.9-0.7-3.1v-7.8h2.7v7.4c0,1.2,0.3,2.1,0.9,2.7c0.6,0.6,1.4,0.9,2.4,0.9c1,0,1.8-0.3,2.4-0.9  c0.6-0.6,0.9-1.5,0.9-2.7v-7.4H168.6z"></path>
<path class="st2" d="M174.2,663.2c-0.8-0.4-1.5-0.9-2-1.5c-0.5-0.6-0.7-1.4-0.8-2.2h2.8c0,0.6,0.3,1,0.8,1.4  c0.5,0.4,1.1,0.6,1.8,0.6c0.8,0,1.4-0.1,1.8-0.4c0.4-0.3,0.6-0.7,0.6-1.1c0-0.5-0.2-0.9-0.7-1.1c-0.5-0.2-1.2-0.5-2.2-0.8  c-1-0.3-1.8-0.5-2.4-0.8c-0.6-0.3-1.2-0.6-1.6-1.2c-0.5-0.5-0.7-1.2-0.7-2.1c0-0.7,0.2-1.3,0.6-1.9s1-1,1.8-1.4  c0.8-0.3,1.7-0.5,2.7-0.5c1.5,0,2.7,0.4,3.6,1.1s1.4,1.8,1.5,3.1h-2.7c0-0.6-0.3-1.1-0.7-1.4c-0.4-0.4-1-0.5-1.8-0.5  c-0.7,0-1.3,0.1-1.7,0.4c-0.4,0.3-0.6,0.6-0.6,1.1c0,0.4,0.1,0.6,0.4,0.9c0.3,0.2,0.6,0.4,0.9,0.6c0.4,0.1,0.9,0.3,1.6,0.5  c1,0.3,1.7,0.5,2.4,0.8c0.6,0.3,1.1,0.7,1.6,1.2c0.4,0.5,0.7,1.2,0.7,2c0,0.8-0.2,1.4-0.6,2s-1,1.1-1.8,1.4  c-0.8,0.3-1.7,0.5-2.7,0.5C175.9,663.8,175,663.6,174.2,663.2z"></path>
<path class="st2" d="M208.8,646.9v16.7H206v-11.4l-5.1,11.4h-1.9l-5.1-11.4v11.4h-2.7v-16.7h3L200,660l5.8-13.1H208.8z"></path>
<path class="st2" d="M224.4,658h-10.1c0.1,1.1,0.5,1.9,1.2,2.5c0.7,0.6,1.6,1,2.6,1c1.5,0,2.5-0.6,3.1-1.8h3c-0.4,1.2-1.1,2.2-2.2,3  c-1,0.8-2.3,1.2-3.9,1.2c-1.3,0-2.4-0.3-3.4-0.9c-1-0.6-1.8-1.4-2.4-2.4c-0.6-1-0.9-2.2-0.9-3.6c0-1.4,0.3-2.6,0.8-3.6  s1.3-1.8,2.3-2.4c1-0.6,2.1-0.8,3.4-0.8c1.2,0,2.4,0.3,3.3,0.8c1,0.5,1.7,1.3,2.3,2.3s0.8,2.1,0.8,3.4  C224.5,657.1,224.5,657.6,224.4,658z M221.6,655.8c0-1-0.4-1.8-1.1-2.4c-0.7-0.6-1.6-0.9-2.6-0.9c-0.9,0-1.8,0.3-2.4,0.9  c-0.7,0.6-1.1,1.4-1.2,2.4H221.6z"></path>
<path class="st2" d="M227.1,653.4c0.6-1,1.3-1.8,2.3-2.4c1-0.6,2-0.9,3.2-0.9c1,0,1.9,0.2,2.7,0.6c0.8,0.4,1.4,0.9,1.9,1.5v-1.9h2.8  v13.2h-2.8v-2c-0.5,0.6-1.1,1.1-1.9,1.6c-0.8,0.4-1.7,0.6-2.7,0.6c-1.1,0-2.2-0.3-3.1-0.9s-1.7-1.4-2.2-2.4c-0.6-1-0.8-2.2-0.8-3.6  S226.6,654.4,227.1,653.4z M236.5,654.6c-0.4-0.7-0.9-1.2-1.5-1.5c-0.6-0.4-1.3-0.5-2-0.5s-1.4,0.2-2,0.5c-0.6,0.3-1.1,0.8-1.5,1.5  s-0.6,1.5-0.6,2.4s0.2,1.7,0.6,2.4c0.4,0.7,0.9,1.2,1.5,1.6c0.6,0.4,1.3,0.5,2,0.5c0.7,0,1.4-0.2,2-0.5c0.6-0.4,1.1-0.9,1.5-1.5  c0.4-0.7,0.6-1.5,0.6-2.4S236.9,655.3,236.5,654.6z"></path>
<path class="st2" d="M246.2,645.8v17.8h-2.7v-17.8H246.2z"></path>
<g id="Path_6994-2" transform="translate(19.13 379)">
	<path class="st0" d="M206.1,239H77.9c-2.1,0-4.1-1.1-5.2-3l-64-110.5c-1.1-1.9-1.1-4.2,0-6L72.7,9c1.1-1.8,3.1-3,5.2-3h128.2   c2.1,0,4.1,1.1,5.2,3l64,110.5c1.1,1.9,1.1,4.2,0,6l-64,110.5C210.2,237.9,208.2,239,206.1,239z"></path>
	<path class="st1" d="M77.9,12l-64,110.5l64,110.5h128.2l64-110.5L206.1,12H77.9 M77.9,0h128.2c4.3,0,8.2,2.3,10.4,6l64,110.5   c2.2,3.7,2.2,8.3,0,12l-64,110.5c-2.1,3.7-6.1,6-10.4,6H77.9c-4.3,0-8.2-2.3-10.4-6l-64-110.5c-2.2-3.7-2.2-8.3,0-12L67.5,6   C69.7,2.3,73.6,0,77.9,0z"></path>
</g>
<g id="delicious" transform="translate(254.74 2151)">
	<path id="Path_6992" class="st4" d="M-93.7-1717c37,0,67,30,67,67s-30,67-67,67s-67-30-67-67S-130.7-1717-93.7-1717z"></path>
	<path id="Path_6981" class="st3" d="M-93.7-1717c-37,0-67,30-67,67s30,67,67,67V-1717z"></path>
	<path id="Path_6982" class="st8" d="M-38.1-1623.7l-10.3-10.4c-0.6-0.6-1.4-1-2.2-1.1c-2.3,6.5-8.1,17.7-22.1,26.7   c0.1,0.3,0.3,0.5,0.5,0.7l9.1,9.1c6.8,7,18,7.2,25.1,0.4s7.2-18,0.4-25.1C-37.8-1623.5-38-1623.6-38.1-1623.7z"></path>
	<path id="Path_6983" class="st9" d="M-47.6-1614.1l-8.4-8.4c-1.6-1.6-7.6,4.3-5.9,5.9l8.4,8.4c1.6,1.6,4.3,1.6,5.9,0   C-46-1609.8-46-1612.5-47.6-1614.1z"></path>
	<path id="Path_6984" class="st10" d="M-62.2-1617.1c-3.2,3.3-6.8,6.1-10.6,8.6l0.5,0.7l9.1,9.1c6.9,6.9,18.1,7,25,0.1   c0,0,0,0,0.1-0.1c0.1-0.1,0.1-0.1,0.2-0.2l-9.5-9.5c0,0.1-0.1,0.1-0.2,0.2c-1.6,1.6-4.3,1.6-5.9,0c0,0,0,0,0,0l-8.4-8.4   C-62-1616.7-62.1-1616.9-62.2-1617.1z"></path>
	<path id="Path_6985" class="st11" d="M-60-1620.9c-1.3,1.2-2.3,2.8-2.2,3.8c0,0.2,0.1,0.4,0.3,0.6l8.4,8.4c1.6,1.6,4.3,1.6,5.9,0   c0,0,0,0,0,0c0.1-0.1,0.1-0.1,0.2-0.2L-60-1620.9z"></path>
	<path id="Path_6986" class="st6" d="M-48.1-1640.4c-2.2-0.7-4.5,0.6-5.2,2.8c-6.8,22.2-30.4,34.6-52.5,27.7   c-13.3-4.1-23.7-14.5-27.7-27.7c-0.7-2.2-3-3.5-5.2-2.8c-2.2,0.7-3.5,3-2.8,5.2c0,0,0,0,0,0c8.2,26.6,36.4,41.5,63,33.3   c15.9-4.9,28.4-17.4,33.3-33.3C-44.7-1637.4-45.9-1639.7-48.1-1640.4L-48.1-1640.4z"></path>
	<path id="Path_6987" class="st12" d="M-133.7-1637.7"></path>
	<path id="Path_6988" class="st6" d="M-58.8-1659.7c-2.3,0-4.2-1.9-4.2-4.2c0-3.1-2.5-5.6-5.6-5.6s-5.6,2.5-5.6,5.6   c0,2.3-1.9,4.2-4.2,4.2c-2.3,0-4.2-1.9-4.2-4.2c0-7.7,6.3-14,14-14s14,6.3,14,14C-54.6-1661.6-56.5-1659.7-58.8-1659.7z"></path>
	<path id="Path_6989" class="st6" d="M-109.1-1659.7c-2.3,0-4.2-1.9-4.2-4.2c0-3.1-2.5-5.6-5.6-5.6s-5.6,2.5-5.6,5.6   c0,2.3-1.9,4.2-4.2,4.2c-2.3,0-4.2-1.9-4.2-4.2c0-7.7,6.2-14,14-14c7.7,0,14,6.2,14,14c0,0,0,0,0,0   C-104.9-1661.6-106.7-1659.7-109.1-1659.7z"></path>
</g>
<g class="st13">
	<path class="st2" d="M445.1,482.3v2.2h-7.1v4.9h5.5v2.2h-5.5v7.3h-2.7v-16.7H445.1z"></path>
	<path class="st2" d="M447.6,488.8c0.6-1,1.3-1.8,2.3-2.4c1-0.6,2-0.9,3.2-0.9c1,0,1.9,0.2,2.7,0.6c0.8,0.4,1.4,0.9,1.9,1.5v-1.9   h2.8V499h-2.8v-2c-0.5,0.6-1.1,1.1-1.9,1.6s-1.7,0.6-2.7,0.6c-1.1,0-2.2-0.3-3.1-0.9c-0.9-0.6-1.7-1.4-2.2-2.4   c-0.6-1-0.8-2.2-0.8-3.6S447,489.8,447.6,488.8z M457,490c-0.4-0.7-0.9-1.2-1.5-1.5c-0.6-0.4-1.3-0.5-2-0.5c-0.7,0-1.4,0.2-2,0.5   s-1.1,0.8-1.5,1.5c-0.4,0.7-0.6,1.5-0.6,2.4s0.2,1.7,0.6,2.4c0.4,0.7,0.9,1.2,1.5,1.6c0.6,0.4,1.3,0.5,2,0.5c0.7,0,1.4-0.2,2-0.5   c0.6-0.4,1.1-0.9,1.5-1.5c0.4-0.7,0.6-1.5,0.6-2.4S457.4,490.7,457,490z"></path>
	<path class="st2" d="M466,498.7c-0.8-0.4-1.5-0.9-2-1.5c-0.5-0.6-0.7-1.4-0.8-2.2h2.8c0,0.6,0.3,1,0.8,1.4c0.5,0.4,1.1,0.6,1.8,0.6   c0.8,0,1.4-0.1,1.8-0.4c0.4-0.3,0.6-0.7,0.6-1.1c0-0.5-0.2-0.9-0.7-1.1c-0.5-0.2-1.2-0.5-2.2-0.8c-1-0.3-1.8-0.5-2.4-0.8   c-0.6-0.3-1.2-0.6-1.6-1.2c-0.5-0.5-0.7-1.2-0.7-2.1c0-0.7,0.2-1.3,0.6-1.9s1-1,1.8-1.4c0.8-0.3,1.7-0.5,2.7-0.5   c1.5,0,2.7,0.4,3.6,1.1s1.4,1.8,1.5,3.1h-2.7c0-0.6-0.3-1.1-0.7-1.4c-0.4-0.4-1-0.5-1.8-0.5c-0.7,0-1.3,0.1-1.7,0.4   c-0.4,0.3-0.6,0.6-0.6,1.1c0,0.4,0.1,0.6,0.4,0.9c0.3,0.2,0.6,0.4,0.9,0.6c0.4,0.1,0.9,0.3,1.6,0.5c1,0.3,1.7,0.5,2.4,0.8   c0.6,0.3,1.1,0.7,1.6,1.2c0.4,0.5,0.7,1.2,0.7,2c0,0.8-0.2,1.4-0.6,2s-1,1.1-1.8,1.4c-0.8,0.3-1.7,0.5-2.7,0.5   C467.7,499.2,466.8,499,466,498.7z"></path>
	<path class="st2" d="M480,488v7.3c0,0.5,0.1,0.9,0.3,1.1c0.2,0.2,0.6,0.3,1.2,0.3h1.7v2.3H481c-1.2,0-2.2-0.3-2.8-0.9s-1-1.5-1-2.8   V488h-1.6v-2.2h1.6v-3.3h2.8v3.3h3.2v2.2H480z"></path>
	<path class="st2" d="M497.7,493.4h-10.1c0.1,1.1,0.5,1.9,1.2,2.5c0.7,0.6,1.6,1,2.6,1c1.5,0,2.5-0.6,3.1-1.8h3   c-0.4,1.2-1.1,2.2-2.2,3c-1,0.8-2.3,1.2-3.9,1.2c-1.3,0-2.4-0.3-3.4-0.9c-1-0.6-1.8-1.4-2.4-2.4c-0.6-1-0.9-2.2-0.9-3.6   c0-1.4,0.3-2.6,0.8-3.6s1.3-1.8,2.3-2.4c1-0.6,2.1-0.8,3.4-0.8c1.2,0,2.4,0.3,3.3,0.8c1,0.5,1.7,1.3,2.3,2.3s0.8,2.1,0.8,3.4   C497.8,492.6,497.8,493,497.7,493.4z M495,491.2c0-1-0.4-1.8-1.1-2.4c-0.7-0.6-1.6-0.9-2.6-0.9c-0.9,0-1.8,0.3-2.4,0.9   c-0.7,0.6-1.1,1.4-1.2,2.4H495z"></path>
	<path class="st2" d="M502.5,498.7c-0.8-0.4-1.5-0.9-2-1.5c-0.5-0.6-0.7-1.4-0.8-2.2h2.8c0,0.6,0.3,1,0.8,1.4   c0.5,0.4,1.1,0.6,1.8,0.6c0.8,0,1.4-0.1,1.8-0.4c0.4-0.3,0.6-0.7,0.6-1.1c0-0.5-0.2-0.9-0.7-1.1c-0.5-0.2-1.2-0.5-2.2-0.8   c-1-0.3-1.8-0.5-2.4-0.8c-0.6-0.3-1.2-0.6-1.6-1.2c-0.5-0.5-0.7-1.2-0.7-2.1c0-0.7,0.2-1.3,0.6-1.9s1-1,1.8-1.4   c0.8-0.3,1.7-0.5,2.7-0.5c1.5,0,2.7,0.4,3.6,1.1s1.4,1.8,1.5,3.1h-2.7c0-0.6-0.3-1.1-0.7-1.4c-0.4-0.4-1-0.5-1.8-0.5   c-0.7,0-1.3,0.1-1.7,0.4c-0.4,0.3-0.6,0.6-0.6,1.1c0,0.4,0.1,0.6,0.4,0.9c0.3,0.2,0.6,0.4,0.9,0.6c0.4,0.1,0.9,0.3,1.6,0.5   c1,0.3,1.7,0.5,2.4,0.8c0.6,0.3,1.1,0.7,1.6,1.2c0.4,0.5,0.7,1.2,0.7,2c0,0.8-0.2,1.4-0.6,2s-1,1.1-1.8,1.4   c-0.8,0.3-1.7,0.5-2.7,0.5C504.3,499.2,503.3,499,502.5,498.7z"></path>
	<path class="st2" d="M516.5,488v7.3c0,0.5,0.1,0.9,0.3,1.1c0.2,0.2,0.6,0.3,1.2,0.3h1.7v2.3h-2.2c-1.2,0-2.2-0.3-2.8-0.9   s-1-1.5-1-2.8V488h-1.6v-2.2h1.6v-3.3h2.8v3.3h3.2v2.2H516.5z"></path>
	<path class="st2" d="M538.6,483.3c1.3,0.7,2.4,1.7,3.1,2.9c0.7,1.3,1.1,2.8,1.1,4.5c0,1.7-0.4,3.2-1.1,4.4   c-0.7,1.2-1.8,2.2-3.1,2.9s-2.9,1-4.7,1h-5.4v-16.7h5.4C535.7,482.3,537.3,482.7,538.6,483.3z M538.4,495.2c1-1.1,1.6-2.5,1.6-4.5   c0-1.9-0.5-3.4-1.6-4.5c-1-1.1-2.5-1.6-4.5-1.6h-2.7v12.2h2.7C535.9,496.8,537.4,496.2,538.4,495.2z"></path>
	<path class="st2" d="M557.5,493.4h-10.1c0.1,1.1,0.5,1.9,1.2,2.5c0.7,0.6,1.6,1,2.6,1c1.5,0,2.5-0.6,3.1-1.8h3   c-0.4,1.2-1.1,2.2-2.2,3c-1,0.8-2.3,1.2-3.9,1.2c-1.3,0-2.4-0.3-3.4-0.9c-1-0.6-1.8-1.4-2.4-2.4c-0.6-1-0.9-2.2-0.9-3.6   c0-1.4,0.3-2.6,0.8-3.6s1.3-1.8,2.3-2.4c1-0.6,2.1-0.8,3.4-0.8c1.2,0,2.4,0.3,3.3,0.8c1,0.5,1.7,1.3,2.3,2.3s0.8,2.1,0.8,3.4   C557.6,492.6,557.6,493,557.5,493.4z M554.8,491.2c0-1-0.4-1.8-1.1-2.4c-0.7-0.6-1.6-0.9-2.6-0.9c-0.9,0-1.8,0.3-2.4,0.9   c-0.7,0.6-1.1,1.4-1.2,2.4H554.8z"></path>
	<path class="st2" d="M563,481.2V499h-2.7v-17.8H563z"></path>
	<path class="st2" d="M566.8,483.5c-0.3-0.3-0.5-0.8-0.5-1.2c0-0.5,0.2-0.9,0.5-1.2s0.8-0.5,1.2-0.5c0.5,0,0.9,0.2,1.2,0.5   s0.5,0.8,0.5,1.2c0,0.5-0.2,0.9-0.5,1.2c-0.3,0.3-0.7,0.5-1.2,0.5C567.5,484,567.1,483.9,566.8,483.5z M569.4,485.8V499h-2.7v-13.2   H569.4z"></path>
	<path class="st2" d="M578.1,496.6l3.7-10.8h2.9l-5,13.2h-3.3l-5-13.2h2.9L578.1,496.6z"></path>
	<path class="st2" d="M598.8,493.4h-10.1c0.1,1.1,0.5,1.9,1.2,2.5c0.7,0.6,1.6,1,2.6,1c1.5,0,2.5-0.6,3.1-1.8h3   c-0.4,1.2-1.1,2.2-2.2,3c-1,0.8-2.3,1.2-3.9,1.2c-1.3,0-2.4-0.3-3.4-0.9c-1-0.6-1.8-1.4-2.4-2.4c-0.6-1-0.9-2.2-0.9-3.6   c0-1.4,0.3-2.6,0.8-3.6s1.3-1.8,2.3-2.4c1-0.6,2.1-0.8,3.4-0.8c1.2,0,2.4,0.3,3.3,0.8c1,0.5,1.7,1.3,2.3,2.3s0.8,2.1,0.8,3.4   C598.9,492.6,598.9,493,598.8,493.4z M596.1,491.2c0-1-0.4-1.8-1.1-2.4c-0.7-0.6-1.6-0.9-2.6-0.9c-0.9,0-1.8,0.3-2.4,0.9   c-0.7,0.6-1.1,1.4-1.2,2.4H596.1z"></path>
	<path class="st2" d="M605.9,486.1c0.7-0.4,1.5-0.6,2.4-0.6v2.8h-0.7c-1.1,0-1.9,0.3-2.4,0.8c-0.6,0.5-0.8,1.5-0.8,2.8v7h-2.7v-13.2   h2.7v1.9C604.7,487,605.3,486.5,605.9,486.1z"></path>
	<path class="st2" d="M622.7,485.8l-8.1,19.4h-2.8l2.7-6.4l-5.2-13h3l3.7,10.1l3.9-10.1H622.7z"></path>
</g>
<g id="Path_6995-2" transform="translate(386.13 215)">
	<path class="st0" d="M206.1,239H77.9c-2.1,0-4.1-1.1-5.2-3l-64-110.5c-1.1-1.9-1.1-4.2,0-6L72.7,9c1.1-1.8,3.1-3,5.2-3h128.2   c2.1,0,4.1,1.1,5.2,3l64,110.5c1.1,1.9,1.1,4.2,0,6l-64,110.5C210.2,237.9,208.2,239,206.1,239z"></path>
	<path class="st1" d="M77.9,12l-64,110.5l64,110.5h128.2l64-110.5L206.1,12H77.9 M77.9,0h128.2c4.3,0,8.2,2.3,10.4,6l64,110.5   c2.2,3.7,2.2,8.3,0,12l-64,110.5c-2.1,3.7-6.1,6-10.4,6H77.9c-4.3,0-8.2-2.3-10.4-6l-64-110.5c-2.2-3.7-2.2-8.3,0-12L67.5,6   C69.7,2.3,73.6,0,77.9,0z"></path>
</g>
<g id="Group_1094" transform="translate(-873.521 892)">
	<g id="delivery_logistic_food_cart_shipping" transform="translate(1498.26 1101)">
		<path id="Path_6500" class="st14" d="M-93-1599h28.4v4.4H-93c-1.2,0-2.2-1-2.2-2.2S-94.2-1599-93-1599z"></path>
		<path id="Path_6501" class="st14" d="M-154.2-1599h28.4v4.4h-28.4c-1.2,0-2.2-1-2.2-2.2S-155.4-1599-154.2-1599z"></path>
		<path id="Path_6502" class="st6" d="M-38.3-1647.1H-152c-3.6,0-6.5,3-6.5,6.6c0,3.6,2.9,6.4,6.5,6.5h113.7c3.6,0,6.5-3,6.5-6.6    C-31.9-1644.1-34.8-1647-38.3-1647.1z"></path>
		<path id="Path_6514" class="st6" d="M-95.1-1714.9c3.6,0.1,6.4,3.2,6.3,6.8c0.1,3.6-2.7,6.6-6.3,6.8c-3.6-0.1-6.4-3.2-6.3-6.8    C-101.5-1711.7-98.7-1714.8-95.1-1714.9z"></path>
		<g id="Group_1093" transform="translate(19.538 95.918)">
			<path id="Path_6503" class="st15" d="M-147.5-1708c2.4,0,4.4,2,4.4,4.4c0,2.4-2,4.4-4.4,4.4c-2.4,0-4.4-2-4.4-4.4     C-151.9-1706-149.9-1708-147.5-1708C-147.5-1708-147.5-1708-147.5-1708z"></path>
			<circle id="Ellipse_280" class="st1" cx="-147.7" cy="-1704" r="13"></circle>
			<path id="Path_6515" class="st1" d="M-85.9-1717c7.2,0,13,5.8,13,13s-5.8,13-13,13c-7.2,0-13-5.8-13-13S-93.1-1717-85.9-1717     C-85.9-1717-85.9-1717-85.9-1717z"></path>
		</g>
		<ellipse id="Ellipse_282" class="st0" cx="-66.7" cy="-1607.5" rx="4" ry="4.5"></ellipse>
		<path id="Path_6504" class="st1" d="M-148.6-1623.8c0.6,1.8,2.3,3,4.1,3h98.6c1.9,0,3.6-1.2,4.2-3l3.4-10.1H-152L-148.6-1623.8z"></path>
		<path id="Path_6505" class="st1" d="M-39.8-1629.6l1.5-4.4H-152l1.5,4.4H-39.8z"></path>
		<path id="Path_6506" class="st3" d="M-95.2-1703.9c-31.4,0-56.8,25.4-56.8,56.8h113.7C-38.3-1678.4-63.8-1703.9-95.2-1703.9z"></path>
		<path id="Path_6507" class="st1" d="M-57.1-1689.2c-10,21.7-31.7,35.6-55.6,35.6h-39c-0.3,2.2-0.4,4.4-0.4,6.6h113.7    C-38.3-1663.1-45.1-1678.5-57.1-1689.2z"></path>
		<path id="Path_6508" class="st0" d="M-81.5-1695.4c-1.1-0.4-2.4,0.2-2.8,1.4c-0.4,1.1,0.2,2.4,1.4,2.8c0.1,0,0.1,0,0.2,0.1    c16.8,4.8,29.4,18.7,32.6,35.8c0.2,1,1.1,1.8,2.1,1.8c0.1,0,0.3,0,0.4,0c1.2-0.2,2-1.4,1.7-2.5    C-49.3-1675-63.1-1690.1-81.5-1695.4z"></path>
		<path id="Path_6509" class="st0" d="M-90.6-1697.1c-1.5-0.1-3-0.2-4.6-0.2c-1.2,0-2.2,1-2.2,2.2s1,2.2,2.2,2.2c0,0,0,0,0,0    c1.4,0,2.8,0.1,4.2,0.2h0.2c1.2,0.1,2.2-0.9,2.3-2.1S-89.4-1697.1-90.6-1697.1L-90.6-1697.1z"></path>
		<path id="Path_6510" class="st14" d="M-158.6-1695.1h21.9c1.2,0,2.2-1,2.2-2.2c0-1.2-1-2.2-2.2-2.2c0,0,0,0,0,0h-21.9    c-1.2,0-2.2,1-2.2,2.2C-160.7-1696.1-159.8-1695.1-158.6-1695.1C-158.6-1695.1-158.6-1695.1-158.6-1695.1z"></path>
		<path id="Path_6511" class="st14" d="M-149.8-1703.9h26.2c1.2,0,2.2-1,2.2-2.2c0-1.2-1-2.2-2.2-2.2h-26.2c-1.2,0-2.2,1-2.2,2.2    C-152-1704.9-151-1703.9-149.8-1703.9z"></path>
		<path id="Path_6512" class="st14" d="M-132.3-1712.6h17.5c1.2,0,2.2-1,2.2-2.2s-1-2.2-2.2-2.2h-17.5c-1.2,0-2.2,1-2.2,2.2    S-133.5-1712.6-132.3-1712.6z"></path>
		<path id="Path_6513" class="st14" d="M-143.3-1712.6h2.2c1.2,0,2.2-1,2.2-2.2s-1-2.2-2.2-2.2h-2.2c-1.2,0-2.2,1-2.2,2.2    S-144.5-1712.6-143.3-1712.6L-143.3-1712.6z"></path>
	</g>
	<circle id="Ellipse_283" class="st0" cx="1369.6" cy="-506.5" r="4.2"></circle>
</g>
</svg>