<svg xmlns="http://www.w3.org/2000/svg" width="65.447" height="85.564" viewBox="0 0 65.447 85.564"><defs><style>.a{fill:#191919;}.b{fill:#ffc545;}.c{fill:#e5e5e5;}.d{fill:#686868;}.e{fill:#ffba31;}.f{fill:#293b54;}.g{fill:#f2f2f2;}.h{fill:#fff;}</style></defs><g transform="translate(-80.22 -51)"><g transform="translate(80.22 122.663)"><path class="a" d="M576.44,1369.758a3.358,3.358,0,0,1-.247,1.048,3.191,3.191,0,0,1-.516.845,2.95,2.95,0,0,1-.726.614,2.675,2.675,0,0,1-.89.337,2.356,2.356,0,0,1,.95.277,2.535,2.535,0,0,1,.815.681,2.777,2.777,0,0,1,.5,1.033,2.92,2.92,0,0,1,.022,1.3,4.285,4.285,0,0,1-.546,1.489,4.934,4.934,0,0,1-.935,1.13,5.634,5.634,0,0,1-1.182.808,7.957,7.957,0,0,1-1.309.531,8.108,8.108,0,0,1-1.294.284,8.891,8.891,0,0,1-1.137.082,3.9,3.9,0,0,1-1-.135,2.91,2.91,0,0,1-.95-.449,2.824,2.824,0,0,1-.763-.838,3.762,3.762,0,0,1-.464-1.294,6.936,6.936,0,0,1-.052-1.826,12.862,12.862,0,0,1,.494-2.447l.883-3.112a.438.438,0,0,0-.075-.4.662.662,0,0,0-.15-.135,3.181,3.181,0,0,1,.449-.314,2.72,2.72,0,0,1,.509-.217,2.225,2.225,0,0,1,.688-.1,1.27,1.27,0,0,1,.973.352.8.8,0,0,1,.209.8l-1.556,5.611a6.119,6.119,0,0,0-.135.845,2.858,2.858,0,0,0,.045.883,1.464,1.464,0,0,0,.352.7,1.036,1.036,0,0,0,.8.285,3.314,3.314,0,0,0,1.025-.172,3.673,3.673,0,0,0,.98-.486,3.135,3.135,0,0,0,.756-.741,1.977,1.977,0,0,0,.367-.935,2.41,2.41,0,0,0-.082-.988,2.321,2.321,0,0,0-.419-.8,2.114,2.114,0,0,0-.643-.531,1.6,1.6,0,0,0-.756-.195q-.179-.045-.352-.075a1.412,1.412,0,0,1-.3-.082.524.524,0,0,1-.195-.127.2.2,0,0,1-.037-.195.433.433,0,0,1,.157-.224,1.089,1.089,0,0,1,.367-.18,5.492,5.492,0,0,0,1.631-.935,2.213,2.213,0,0,0,.733-1.489,2.111,2.111,0,0,0-.1-.98,1.856,1.856,0,0,0-.509-.748,2.45,2.45,0,0,0-.845-.479,3.428,3.428,0,0,0-1.115-.172,5.364,5.364,0,0,0-1.8.322,6.562,6.562,0,0,0-1.683.891,6.3,6.3,0,0,0-1.362,1.362,5.4,5.4,0,0,0-.853,1.751,4.1,4.1,0,0,0-.15.943,1.958,1.958,0,0,0,.1.748.711.711,0,0,0,.337.411.619.619,0,0,0,.568-.068c.06,0,.115.063.165.187a1.41,1.41,0,0,1,.082.479,2.16,2.16,0,0,1-.082.621,1.934,1.934,0,0,1-.3.621,1.574,1.574,0,0,1-.576.479,2.051,2.051,0,0,1-.935.187,1.329,1.329,0,0,1-.883-.314,2.073,2.073,0,0,1-.584-.838,3.519,3.519,0,0,1-.232-1.2,4.884,4.884,0,0,1,.157-1.377,7.554,7.554,0,0,1,1.242-2.581,10.193,10.193,0,0,1,2.132-2.162,10.813,10.813,0,0,1,2.709-1.481,8.4,8.4,0,0,1,2.97-.554,6.818,6.818,0,0,1,2.3.329,3.894,3.894,0,0,1,1.422.838,2.667,2.667,0,0,1,.7,1.115A3.075,3.075,0,0,1,576.44,1369.758Z" transform="translate(-562.664 -1366.316)"/><path class="a" d="M759.109,1411.228a.342.342,0,0,1,.217-.142.338.338,0,0,1,.224.03.231.231,0,0,1,.112.194.635.635,0,0,1-.12.367,3.92,3.92,0,0,1-.636.7,6.59,6.59,0,0,1-1.017.756,5.376,5.376,0,0,1-1.242.554,2.873,2.873,0,0,1-1.309.1,1.062,1.062,0,0,1-.561-.247,1.119,1.119,0,0,1-.292-.419,1.315,1.315,0,0,1-.09-.479,1.773,1.773,0,0,1,.045-.427l1.077-3.771a.437.437,0,0,0-.075-.4.669.669,0,0,0-.15-.135,3.212,3.212,0,0,1,.449-.314,3.09,3.09,0,0,1,.509-.224,2.083,2.083,0,0,1,.688-.1,1.254,1.254,0,0,1,.973.359.82.82,0,0,1,.21.808l-1.077,3.8a.323.323,0,0,0,.03.195q.045.09.225.09a1.187,1.187,0,0,0,.509-.12,2.613,2.613,0,0,0,.494-.307,3.2,3.2,0,0,0,.441-.419Q758.944,1411.437,759.109,1411.228Zm-1.511-4.893a1.151,1.151,0,0,1-1.167-1.3,1.435,1.435,0,0,1,.479-.935,1.4,1.4,0,0,1,.973-.381,1.136,1.136,0,0,1,.883.381,1.149,1.149,0,0,1,.284.935,1.425,1.425,0,0,1-.479.92A1.4,1.4,0,0,1,757.6,1406.335Z" transform="translate(-740.05 -1400.918)"/><path class="a" d="M826.987,1406.757a.377.377,0,0,1,.217-.15.267.267,0,0,1,.217.03.281.281,0,0,1,.112.2.584.584,0,0,1-.112.367,3.108,3.108,0,0,1-.4.479,6.763,6.763,0,0,1-.816.711,6.469,6.469,0,0,1-1.092.658,3.384,3.384,0,0,1-1.234.337,1.578,1.578,0,0,1-.883-.187,1.7,1.7,0,0,1-.621-.584,2.245,2.245,0,0,1-.247-1.788l1.047-3.726a2.437,2.437,0,0,0-.658.15.461.461,0,0,1-.1-.3.834.834,0,0,1,.09-.426.989.989,0,0,1,.344-.381,1.117,1.117,0,0,1,.643-.165l.539-1.885a.462.462,0,0,0-.075-.419.661.661,0,0,0-.15-.135,3.262,3.262,0,0,1,.449-.314,2.7,2.7,0,0,1,.516-.217,2.3,2.3,0,0,1,.7-.1,1.25,1.25,0,0,1,.958.352.8.8,0,0,1,.209.8L826,1402.3a1.167,1.167,0,0,0,.322.052,2.211,2.211,0,0,0,.367-.015,1.733,1.733,0,0,0,.337-.075,1.059,1.059,0,0,0,.247-.112.512.512,0,0,1,.112.314.982.982,0,0,1-.067.456.933.933,0,0,1-.314.4.984.984,0,0,1-.613.172,3.78,3.78,0,0,1-.4-.022.944.944,0,0,1-.3-.068l-1.137,4.055a.451.451,0,0,0,.022.277.386.386,0,0,0,.15.172.542.542,0,0,0,.224.075.676.676,0,0,0,.247-.015,3.574,3.574,0,0,0,.427-.179,4.921,4.921,0,0,0,.494-.277,4.492,4.492,0,0,0,.479-.352A2.747,2.747,0,0,0,826.987,1406.757Z" transform="translate(-802.632 -1396.477)"/><path class="a" d="M900.608,1455.866a.344.344,0,0,1,.217-.142.311.311,0,0,1,.224.037.252.252,0,0,1,.112.2.605.605,0,0,1-.135.367,3.792,3.792,0,0,1-.681.808,5.826,5.826,0,0,1-.89.666,4.447,4.447,0,0,1-1.017.457,3.662,3.662,0,0,1-1.078.165,3.116,3.116,0,0,1-1.317-.262,2.663,2.663,0,0,1-.928-.681,2.4,2.4,0,0,1-.5-.935,2.25,2.25,0,0,1-.052-1.01,5.351,5.351,0,0,1,.531-1.594,4.04,4.04,0,0,1,.875-1.13,3.527,3.527,0,0,1,1.115-.673,3.613,3.613,0,0,1,1.264-.224,1.919,1.919,0,0,1,.658.12,1.993,1.993,0,0,1,.591.336,1.4,1.4,0,0,1,.4.531,1.224,1.224,0,0,1,.075.688,1.593,1.593,0,0,1-.262.726,2.427,2.427,0,0,1-.524.561,2.969,2.969,0,0,1-.681.4,3.246,3.246,0,0,1-.748.217,1.733,1.733,0,0,1-.456.03,2.338,2.338,0,0,1-.411-.06,1.623,1.623,0,0,0,.03.943,1.378,1.378,0,0,0,.389.554,1.306,1.306,0,0,0,.5.262,1.742,1.742,0,0,0,.382.067,1.773,1.773,0,0,0,.643-.127,3.553,3.553,0,0,0,.643-.329,3.945,3.945,0,0,0,.584-.456A3.41,3.41,0,0,0,900.608,1455.866Zm-2.02-2.963a.633.633,0,0,0-.254.082,1.332,1.332,0,0,0-.359.292,3.482,3.482,0,0,0-.411.569,4.335,4.335,0,0,0-.4.928,2.1,2.1,0,0,0,.509-.172,2.161,2.161,0,0,0,.494-.322,1.936,1.936,0,0,0,.382-.449,1.147,1.147,0,0,0,.172-.554.76.76,0,0,0-.015-.269C898.687,1452.939,898.647,1452.9,898.588,1452.9Z" transform="translate(-869.698 -1445.511)"/><path class="a" d="M981.793,1452.36a.778.778,0,0,1-.539-.187.574.574,0,0,1-.209-.442.293.293,0,0,1,.082-.217,1.594,1.594,0,0,1,.172-.15q.09-.067.172-.12c.055-.035.082-.072.082-.112a.471.471,0,0,0-.067-.187q-.067-.127-.4-.127a.767.767,0,0,0-.262.052.835.835,0,0,0-.262.157.887.887,0,0,0-.2.262.746.746,0,0,0-.082.352.862.862,0,0,0,.322.629q.322.3.718.636a4.94,4.94,0,0,1,.718.756,1.553,1.553,0,0,1,.322.973,1.627,1.627,0,0,1-.262.891,2.411,2.411,0,0,1-.711.711,3.788,3.788,0,0,1-1.025.472,4.2,4.2,0,0,1-1.2.172,2.418,2.418,0,0,1-.883-.157,2.229,2.229,0,0,1-.688-.412,1.816,1.816,0,0,1-.441-.591,1.594,1.594,0,0,1-.157-.681,1.054,1.054,0,0,1,.284-.823.939.939,0,0,1,.643-.254.616.616,0,0,1,.539.232.79.79,0,0,1,.165.456.45.45,0,0,1-.1.329.315.315,0,0,0-.1.224.483.483,0,0,0,.18.359.524.524,0,0,0,.344.165.681.681,0,0,0,.464-.187.622.622,0,0,0,.209-.486.664.664,0,0,0-.284-.456q-.285-.247-.628-.569a4.086,4.086,0,0,1-.629-.756,1.84,1.84,0,0,1-.284-1.032,1.5,1.5,0,0,1,.225-.771,2.437,2.437,0,0,1,.606-.681,3.247,3.247,0,0,1,.89-.486,3.139,3.139,0,0,1,1.092-.187,3.681,3.681,0,0,1,1,.12,2.315,2.315,0,0,1,.7.314,1.32,1.32,0,0,1,.412.441,1.034,1.034,0,0,1,.135.5.73.73,0,0,1-.12.427.883.883,0,0,1-.292.269,1.2,1.2,0,0,1-.351.135A1.476,1.476,0,0,1,981.793,1452.36Z" transform="translate(-945.991 -1443.846)"/></g><g transform="translate(117.763 122.663)"><path class="b" d="M1078.242,1369.758a3.366,3.366,0,0,1-.247,1.048,3.191,3.191,0,0,1-.516.845,2.952,2.952,0,0,1-.726.614,2.676,2.676,0,0,1-.89.337,2.355,2.355,0,0,1,.95.277,2.537,2.537,0,0,1,.815.681,2.775,2.775,0,0,1,.5,1.033,2.917,2.917,0,0,1,.022,1.3,4.279,4.279,0,0,1-.546,1.489,4.934,4.934,0,0,1-.935,1.13,5.632,5.632,0,0,1-1.182.808,7.954,7.954,0,0,1-1.309.531,8.109,8.109,0,0,1-1.294.284,8.892,8.892,0,0,1-1.137.082,3.9,3.9,0,0,1-1-.135,2.912,2.912,0,0,1-.95-.449,2.829,2.829,0,0,1-.763-.838,3.763,3.763,0,0,1-.464-1.294,6.932,6.932,0,0,1-.053-1.826,12.87,12.87,0,0,1,.494-2.447l.883-3.112a.437.437,0,0,0-.075-.4.65.65,0,0,0-.15-.135,3.2,3.2,0,0,1,.449-.314,2.722,2.722,0,0,1,.509-.217,2.224,2.224,0,0,1,.688-.1,1.268,1.268,0,0,1,.973.352.8.8,0,0,1,.21.8l-1.556,5.611a6.193,6.193,0,0,0-.135.845,2.858,2.858,0,0,0,.045.883,1.465,1.465,0,0,0,.352.7,1.036,1.036,0,0,0,.8.285,3.314,3.314,0,0,0,1.025-.172,3.673,3.673,0,0,0,.98-.486,3.139,3.139,0,0,0,.756-.741,1.973,1.973,0,0,0,.367-.935,2.416,2.416,0,0,0-.082-.988,2.313,2.313,0,0,0-.419-.8,2.113,2.113,0,0,0-.643-.531,1.6,1.6,0,0,0-.756-.195q-.179-.045-.352-.075a1.412,1.412,0,0,1-.3-.082.524.524,0,0,1-.194-.127.2.2,0,0,1-.037-.195.434.434,0,0,1,.157-.224,1.089,1.089,0,0,1,.367-.18,5.494,5.494,0,0,0,1.631-.935,2.214,2.214,0,0,0,.733-1.489,2.112,2.112,0,0,0-.1-.98,1.859,1.859,0,0,0-.509-.748,2.452,2.452,0,0,0-.845-.479,3.429,3.429,0,0,0-1.115-.172,5.367,5.367,0,0,0-1.8.322,6.571,6.571,0,0,0-1.683.891,6.294,6.294,0,0,0-1.361,1.362,5.4,5.4,0,0,0-.853,1.751,4.1,4.1,0,0,0-.15.943,1.958,1.958,0,0,0,.1.748.71.71,0,0,0,.337.411.619.619,0,0,0,.568-.068c.06,0,.114.063.165.187a1.4,1.4,0,0,1,.082.479,2.153,2.153,0,0,1-.082.621,1.932,1.932,0,0,1-.3.621,1.574,1.574,0,0,1-.576.479,2.051,2.051,0,0,1-.935.187,1.33,1.33,0,0,1-.883-.314,2.075,2.075,0,0,1-.583-.838,3.518,3.518,0,0,1-.232-1.2,4.884,4.884,0,0,1,.157-1.377,7.562,7.562,0,0,1,1.242-2.581,10.2,10.2,0,0,1,2.132-2.162,10.814,10.814,0,0,1,2.708-1.481,8.4,8.4,0,0,1,2.97-.554,6.818,6.818,0,0,1,2.3.329,3.9,3.9,0,0,1,1.421.838,2.667,2.667,0,0,1,.7,1.115A3.071,3.071,0,0,1,1078.242,1369.758Z" transform="translate(-1064.465 -1366.316)"/><path class="b" d="M1266.212,1455.866a.344.344,0,0,1,.217-.142.311.311,0,0,1,.224.037.252.252,0,0,1,.112.2.606.606,0,0,1-.135.367,3.793,3.793,0,0,1-.681.808,5.807,5.807,0,0,1-.89.666,4.443,4.443,0,0,1-1.018.457,3.66,3.66,0,0,1-1.077.165,3.114,3.114,0,0,1-1.317-.262,2.663,2.663,0,0,1-.928-.681,2.4,2.4,0,0,1-.5-.935,2.25,2.25,0,0,1-.052-1.01,5.351,5.351,0,0,1,.531-1.594,4.043,4.043,0,0,1,.875-1.13,3.523,3.523,0,0,1,1.115-.673,3.611,3.611,0,0,1,1.264-.224,1.919,1.919,0,0,1,.659.12,1.991,1.991,0,0,1,.591.336,1.4,1.4,0,0,1,.4.531,1.228,1.228,0,0,1,.075.688,1.6,1.6,0,0,1-.262.726,2.422,2.422,0,0,1-.524.561,2.965,2.965,0,0,1-.681.4,3.252,3.252,0,0,1-.748.217,1.735,1.735,0,0,1-.456.03,2.34,2.34,0,0,1-.412-.06,1.624,1.624,0,0,0,.03.943,1.378,1.378,0,0,0,.389.554,1.306,1.306,0,0,0,.5.262,1.743,1.743,0,0,0,.381.067,1.771,1.771,0,0,0,.643-.127,3.546,3.546,0,0,0,.643-.329,3.957,3.957,0,0,0,.584-.456A3.418,3.418,0,0,0,1266.212,1455.866Zm-2.02-2.963a.635.635,0,0,0-.254.082,1.328,1.328,0,0,0-.359.292,3.5,3.5,0,0,0-.412.569,4.347,4.347,0,0,0-.4.928,2.1,2.1,0,0,0,.509-.172,2.155,2.155,0,0,0,.494-.322,1.937,1.937,0,0,0,.382-.449,1.146,1.146,0,0,0,.172-.554.76.76,0,0,0-.015-.269C1264.292,1452.939,1264.252,1452.9,1264.192,1452.9Z" transform="translate(-1245.493 -1445.511)"/><path class="b" d="M1354.811,1455.866a.343.343,0,0,1,.217-.142.311.311,0,0,1,.224.037.253.253,0,0,1,.112.2.609.609,0,0,1-.135.367,3.8,3.8,0,0,1-.681.808,5.813,5.813,0,0,1-.89.666,4.444,4.444,0,0,1-1.017.457,3.661,3.661,0,0,1-1.077.165,3.116,3.116,0,0,1-1.317-.262,2.662,2.662,0,0,1-.928-.681,2.4,2.4,0,0,1-.5-.935,2.249,2.249,0,0,1-.052-1.01,5.344,5.344,0,0,1,.531-1.594,4.04,4.04,0,0,1,.875-1.13,3.526,3.526,0,0,1,1.115-.673,3.611,3.611,0,0,1,1.264-.224,1.92,1.92,0,0,1,.659.12,2,2,0,0,1,.591.336,1.4,1.4,0,0,1,.4.531,1.225,1.225,0,0,1,.075.688,1.6,1.6,0,0,1-.262.726,2.432,2.432,0,0,1-.524.561,2.971,2.971,0,0,1-.681.4,3.248,3.248,0,0,1-.748.217,1.735,1.735,0,0,1-.456.03,2.337,2.337,0,0,1-.411-.06,1.619,1.619,0,0,0,.03.943,1.376,1.376,0,0,0,.389.554,1.308,1.308,0,0,0,.5.262,1.743,1.743,0,0,0,.382.067,1.771,1.771,0,0,0,.643-.127,3.547,3.547,0,0,0,.644-.329,3.958,3.958,0,0,0,.584-.456A3.438,3.438,0,0,0,1354.811,1455.866Zm-2.02-2.963a.633.633,0,0,0-.254.082,1.328,1.328,0,0,0-.359.292,3.489,3.489,0,0,0-.412.569,4.329,4.329,0,0,0-.4.928,2.1,2.1,0,0,0,.509-.172,2.163,2.163,0,0,0,.494-.322,1.933,1.933,0,0,0,.381-.449,1.146,1.146,0,0,0,.172-.554.763.763,0,0,0-.015-.269C1352.89,1452.939,1352.851,1452.9,1352.791,1452.9Z" transform="translate(-1327.463 -1445.511)"/></g><g transform="translate(80.339 51)"><path class="c" d="M591.215,429.6a10.939,10.939,0,0,0,5.554-10.111c-.229-6.728-5.133-10.867-7.253-11-2.224.135-7.07,4.2-7.372,10.921a10.939,10.939,0,0,0,5.44,10.172c.852.487.174,7.208.174,7.208-.645,10.4-.242,34.063-.242,34.063.1,1.388,1.649,1.331,1.649,1.331s1.546.075,1.661-1.312c0,0,.666-23.653.135-34.064,0,0-.6-6.728.254-7.205" transform="translate(-580.792 -408.484)"/><path class="c" d="M1254.993,409.915c-.1-1.517-.509-1.248-.509-1.248-.77,2.1-.6,13.739-.6,13.739a.691.691,0,0,1-.589.534c-.058-1.172-.486-9.81-.562-12.951,0,0-.136-1.5-.4-1.391,0,0-.267-.187-.294,1.338-.024,1.445.029,11.547-.194,12.893-.06-.015-.112-.03-.15-.042v-.023l-.041.012-.041-.012v.023c-.037.012-.085.027-.141.039-.077-1.535-.482-9.785-.558-12.835,0,0-.134-1.5-.4-1.391,0,0-.268-.187-.291,1.338-.027,1.5.031,12.277-.219,13a.683.683,0,0,1-.578-.531s.154-11.635-.617-13.739c0,0-.407-.269-.507,1.248s-1.919,14.274.357,17.093,2.355,2.636,2.233,4.815c-.1,1.757-1.248,11.6-1.253,24.151l.037.013c.006,8.011.123,14.965.123,14.965.1,1.377,1.636,1.319,1.636,1.319s1.534.076,1.648-1.3c0,0,.179-6.4.276-14,.121.046.241.095.359.148.051-13.1-1.181-23.485-1.283-25.295-.123-2.179-.041-2,2.228-4.817s.437-15.576.335-17.094" transform="translate(-1196.393 -408.582)"/><path class="a" d="M839.529,480.164a.4.4,0,0,1-.349-.205l-5.524-9.943a.4.4,0,0,1,.155-.543l1.165-.647a.4.4,0,0,1,.543.155l5.524,9.943a.4.4,0,0,1-.155.543l-1.165.648a.4.4,0,0,1-.194.05" transform="translate(-813.453 -464.264)"/><rect class="a" width="1.333" height="11.374" transform="matrix(0.874, -0.486, 0.486, 0.874, 20.552, 5.558)"/><path class="a" d="M799.769,411.325c.907,1.633.7,3.479-.461,4.125s-2.838-.155-3.745-1.788-.7-3.479.461-4.125,2.838.155,3.745,1.788" transform="translate(-777.734 -409.252)"/><path class="d" d="M807.027,426.561a2.163,2.163,0,0,1,.164-2.714,1.178,1.178,0,0,0-.165.075c-.793.44-.933,1.7-.314,2.815s1.764,1.66,2.556,1.22a1.181,1.181,0,0,0,.151-.1,2.163,2.163,0,0,1-2.391-1.295" transform="translate(-788.214 -422.697)"/><path class="a" d="M1055.716,480.164a.4.4,0,0,0,.349-.205l5.524-9.943a.4.4,0,0,0-.155-.543l-1.165-.647a.4.4,0,0,0-.543.155l-5.524,9.943a.4.4,0,0,0,.155.543l1.165.648a.4.4,0,0,0,.194.05" transform="translate(-1017.498 -464.264)"/><rect class="a" width="11.374" height="1.333" transform="translate(37.052 14.852) rotate(-60.941)"/><path class="a" d="M1122.074,411.325c-.907,1.633-.7,3.479.46,4.125s2.838-.155,3.746-1.788.7-3.479-.461-4.125-2.838.155-3.745,1.788" transform="translate(-1079.815 -409.252)"/><path class="d" d="M1132.269,423.133a2.163,2.163,0,0,1,2.463-1.152,1.165,1.165,0,0,0-.145-.109c-.765-.486-1.94-.008-2.623,1.068s-.617,2.342.148,2.828a1.191,1.191,0,0,0,.16.085,2.163,2.163,0,0,1,0-2.719" transform="translate(-1089.052 -420.694)"/><path class="a" d="M808.234,498.582a16.414,16.414,0,0,0-28.02,11.606v20.558a16.414,16.414,0,1,0,32.828,0V510.188a16.306,16.306,0,0,0-4.807-11.606" transform="translate(-764.056 -487.393)"/><path class="b" d="M821.308,569.845h0a14.418,14.418,0,0,1-14.418-14.418V534.869a14.418,14.418,0,1,1,28.836,0v20.558a14.418,14.418,0,0,1-14.418,14.418" transform="translate(-788.736 -512.074)"/><path class="e" d="M809.009,555.388V534.83a14.419,14.419,0,0,1,13.1-14.358c-.266-.015-.534-.023-.8-.023a14.418,14.418,0,0,0-14.418,14.418v20.558a14.418,14.418,0,0,0,14.418,14.418c.443,0,.882-.021,1.315-.06a14.418,14.418,0,0,1-13.613-14.4" transform="translate(-788.736 -512.073)"/><path class="a" d="M849.534,1094.378H825.293a1.02,1.02,0,0,1-1.02-1.02v-.891a.285.285,0,0,1,.285-.285h25.711a.285.285,0,0,1,.285.285v.891a1.02,1.02,0,0,1-1.02,1.02" transform="translate(-804.819 -1041.029)"/><rect class="a" width="29.335" height="2.016" transform="translate(18.04 45.872)"/><rect class="f" width="29.335" height="3.203" transform="translate(18.04 33.036)"/><path class="a" d="M969.864,1183.648a1.062,1.062,0,0,0-.888-.478H965.9a1.064,1.064,0,0,0-.979,1.482l1.536,3.6a1.064,1.064,0,0,0,1.958,0l1.536-3.6a1.062,1.062,0,0,0-.091-1" transform="translate(-934.868 -1125.21)"/><path class="a" d="M985.661,951.883v-1.072a7.348,7.348,0,0,1-.078,1.072Z" transform="translate(-954.06 -910.235)"/><path class="a" d="M939.829,814.029c1.967.273,3.5,2.555,3.5,5.33v-10.63h0c-.011,2.762-1.541,5.029-3.5,5.3" transform="translate(-911.729 -778.783)"/><path class="a" d="M597.885,704.764a17.091,17.091,0,0,0-2.816-6.722c-.021-.03-.042-.059-.064-.089a10.436,10.436,0,0,0-8.29-4.377H568.36a3.9,3.9,0,0,0-3.065,1.555,5.24,5.24,0,0,0,0,6.274,4.011,4.011,0,0,0,2.217,1.455,4.01,4.01,0,0,0-2.217,1.455,5.1,5.1,0,0,0-1.043,3.137v.3a5.1,5.1,0,0,0,1.043,3.137,4.01,4.01,0,0,0,2.217,1.455A4.011,4.011,0,0,0,565.3,713.8a5.24,5.24,0,0,0,0,6.274,3.9,3.9,0,0,0,3.065,1.555h18.354a9.6,9.6,0,0,0,4.722-1.249,11.759,11.759,0,0,0,3.656-3.245l.04-.055a17.645,17.645,0,0,0,2.682-6.457,15.964,15.964,0,0,0,.072-5.857" transform="translate(-564.252 -672.247)"/><path class="g" d="M618.179,740.613a14.654,14.654,0,0,0-.075-16.76,8.53,8.53,0,0,0-6.709-3.6H593.041a2.777,2.777,0,0,0,0,5.392h11.478a1.933,1.933,0,0,1,0,3.793H593.041a2.458,2.458,0,0,0-2.112,2.7v.3a2.458,2.458,0,0,0,2.112,2.7h11.478a1.933,1.933,0,0,1,0,3.792H593.041a2.777,2.777,0,0,0,0,5.393H611.4a8.563,8.563,0,0,0,6.784-3.7" transform="translate(-588.933 -696.928)"/><path class="c" d="M592.321,725.484a3.143,3.143,0,0,1-.535-1.794,2.458,2.458,0,0,1,2.112-2.7h18.354a7.891,7.891,0,0,1,4.838,1.714,8.143,8.143,0,0,0-5.693-2.456H593.042a2.458,2.458,0,0,0-2.112,2.7,2.745,2.745,0,0,0,1.391,2.535" transform="translate(-588.934 -696.927)"/><path class="c" d="M591.785,936.331a2.458,2.458,0,0,1,2.112-2.7h11.478a1.753,1.753,0,0,0,1.559-1.9,1.879,1.879,0,0,0-1.135-1.825,2.179,2.179,0,0,1,.28,1.083,1.753,1.753,0,0,1-1.559,1.9H593.042a2.458,2.458,0,0,0-2.112,2.7,2.745,2.745,0,0,0,1.391,2.535,3.142,3.142,0,0,1-.535-1.794" transform="translate(-588.934 -890.902)"/><path class="c" d="M592.321,811.7a3.141,3.141,0,0,1-.535-1.794v-.3a2.458,2.458,0,0,1,2.112-2.7h11.478a1.753,1.753,0,0,0,1.559-1.9,1.879,1.879,0,0,0-1.135-1.825,2.179,2.179,0,0,1,.28,1.083,1.753,1.753,0,0,1-1.559,1.9H593.042a2.458,2.458,0,0,0-2.112,2.7v.3a2.745,2.745,0,0,0,1.391,2.535" transform="translate(-588.934 -773.661)"/><path class="a" d="M928.9,742.626c1.443,1.291,5.366,5.782,1.682,10.147,0,0,4.45,5.7-1.784,10.462l4.257-3.1,1.553-5.941-.6-5.865-1.934-3.581s-3.951-2.809-3.171-2.126" transform="translate(-901.522 -717.527)"/><path class="a" d="M1013.663,702.861a4.01,4.01,0,0,0,2.217-1.455,5.24,5.24,0,0,0,0-6.274,3.9,3.9,0,0,0-3.064-1.555H994.461a10.435,10.435,0,0,0-8.29,4.377c-.023.029-.044.059-.065.089a17.092,17.092,0,0,0-2.816,6.722,15.968,15.968,0,0,0,.072,5.857,17.639,17.639,0,0,0,2.68,6.454l.041.057a11.761,11.761,0,0,0,3.657,3.246,9.6,9.6,0,0,0,4.722,1.249h18.355a3.9,3.9,0,0,0,3.064-1.555,5.24,5.24,0,0,0,0-6.274,4.01,4.01,0,0,0-2.217-1.455,4.01,4.01,0,0,0,2.217-1.455,5.1,5.1,0,0,0,1.043-3.137v-.3a5.1,5.1,0,0,0-1.043-3.137,4.011,4.011,0,0,0-2.217-1.455" transform="translate(-951.719 -672.246)"/><path class="g" d="M1012.356,740.613a14.654,14.654,0,0,1,.075-16.76,8.53,8.53,0,0,1,6.709-3.6h18.354a2.777,2.777,0,0,1,0,5.392h-11.479a1.933,1.933,0,0,0,0,3.793h11.479a2.458,2.458,0,0,1,2.112,2.7v.3a2.458,2.458,0,0,1-2.112,2.7h-11.479a1.933,1.933,0,0,0,0,3.793h11.479a2.777,2.777,0,0,1,0,5.392H1019.14a8.563,8.563,0,0,1-6.784-3.7" transform="translate(-976.399 -696.928)"/><path class="c" d="M1221.609,969.119h11.479a1.728,1.728,0,0,1,.864.236,1.987,1.987,0,0,0-1.662-1.034h-11.479a1.31,1.31,0,0,1-.535-.115,1.527,1.527,0,0,0,1.333.913" transform="translate(-1171.194 -926.329)"/><path class="c" d="M1232.291,841.6h-11.479a1.31,1.31,0,0,1-.535-.115,1.526,1.526,0,0,0,1.334.913h11.478a1.728,1.728,0,0,1,.864.236,1.987,1.987,0,0,0-1.662-1.034" transform="translate(-1171.195 -809.087)"/><path class="c" d="M1013.153,741.41a14.654,14.654,0,0,1,.075-16.76,8.531,8.531,0,0,1,6.709-3.6h18.355a1.727,1.727,0,0,1,.864.236,1.987,1.987,0,0,0-1.662-1.034h-18.354a8.531,8.531,0,0,0-6.709,3.6,14.655,14.655,0,0,0-.075,16.76,10.637,10.637,0,0,0,1.407,1.538q-.317-.353-.609-.74" transform="translate(-976.398 -696.927)"/><path class="a" d="M998.878,742.626c-1.443,1.291-5.366,5.782-1.682,10.147,0,0-4.45,5.7,1.783,10.462l-4.257-3.1-1.553-5.941.6-5.865,1.934-3.581s3.95-2.809,3.171-2.126" transform="translate(-961.079 -717.527)"/><path class="h" d="M604.19,431.778c-.186.134-10.132,7.612-.5,17.939,0,0-7.979-7.395.5-17.939" transform="translate(-596.858 -430.035)"/></g></g></svg>