<svg xmlns="http://www.w3.org/2000/svg" width="148.521" height="44.006" viewBox="0 0 148.521 44.006"><defs><style>.a{fill:#a6a6a6;}.b{fill:#fff;}</style></defs><path class="a" d="M143.237,44.006H5.2A5.218,5.218,0,0,1,0,38.8V5.2A5.207,5.207,0,0,1,5.2,0H143.237a5.281,5.281,0,0,1,5.284,5.2V38.8A5.286,5.286,0,0,1,143.237,44.006Z" transform="translate(0 0)"/><path d="M147.367,38.711a4.212,4.212,0,0,1-4.218,4.212H5.113A4.219,4.219,0,0,1,.89,38.711V5.108A4.225,4.225,0,0,1,5.113.89H143.148a4.218,4.218,0,0,1,4.218,4.219v33.6Z" transform="translate(0.089 0.089)"/><g transform="translate(14.072 6.84)"><path class="b" d="M31.864,20.527A6.377,6.377,0,0,1,34.9,15.175a6.532,6.532,0,0,0-5.144-2.781c-2.164-.228-4.263,1.3-5.366,1.3-1.125,0-2.822-1.273-4.652-1.235a6.852,6.852,0,0,0-5.765,3.516c-2.493,4.316-.634,10.658,1.755,14.145,1.194,1.709,2.591,3.616,4.418,3.549,1.788-.074,2.456-1.14,4.613-1.14,2.137,0,2.766,1.14,4.628,1.1,1.919-.031,3.127-1.716,4.28-3.44A14.118,14.118,0,0,0,35.626,26.2a6.165,6.165,0,0,1-3.762-5.669Z" transform="translate(-12.791 -5.601)"/><path class="b" d="M27.322,10.716a6.277,6.277,0,0,0,1.437-4.5,6.394,6.394,0,0,0-4.135,2.137,5.972,5.972,0,0,0-1.474,4.332A5.281,5.281,0,0,0,27.322,10.716Z" transform="translate(-11.77 -6.217)"/></g><g transform="translate(46.658 19.796)"><path class="b" d="M54.77,32.837h-2.5l-1.37-4.3H46.146l-1.3,4.3H42.41L47.125,18.2h2.911Zm-4.28-6.1-1.234-3.823q-.2-.586-.738-2.758h-.044q-.216.934-.7,2.758l-1.216,3.823Z" transform="translate(-42.41 -17.974)"/><path class="b" d="M65.588,27.077a6,6,0,0,1-1.455,4.257A4.256,4.256,0,0,1,60.9,32.724a3.236,3.236,0,0,1-3-1.5h-.044v5.561H55.508V25.4q0-1.693-.087-3.475h2.061l.131,1.673h.044a4.173,4.173,0,0,1,6.678-.414A5.816,5.816,0,0,1,65.588,27.077Zm-2.389.086a4.346,4.346,0,0,0-.7-2.541,2.4,2.4,0,0,0-2.042-1.043,2.439,2.439,0,0,0-1.572.575,2.669,2.669,0,0,0-.927,1.511,3.071,3.071,0,0,0-.109.715v1.76a2.821,2.821,0,0,0,.707,1.945,2.341,2.341,0,0,0,1.835.793,2.4,2.4,0,0,0,2.063-1.021,4.494,4.494,0,0,0,.739-2.7Z" transform="translate(-41.107 -17.622)"/><path class="b" d="M76.626,27.076a6,6,0,0,1-1.457,4.257,4.252,4.252,0,0,1-3.236,1.391,3.233,3.233,0,0,1-3-1.5h-.044v5.561H66.549V25.4q0-1.693-.087-3.475h2.061l.131,1.673H68.7a4.174,4.174,0,0,1,6.68-.414A5.833,5.833,0,0,1,76.626,27.076Zm-2.389.086a4.347,4.347,0,0,0-.7-2.542A2.4,2.4,0,0,0,71.5,23.578a2.442,2.442,0,0,0-1.575.575A2.667,2.667,0,0,0,69,25.664a3.131,3.131,0,0,0-.109.715v1.76a2.829,2.829,0,0,0,.7,1.945,2.346,2.346,0,0,0,1.838.793A2.4,2.4,0,0,0,73.5,29.858a4.494,4.494,0,0,0,.74-2.7Z" transform="translate(-40.002 -17.621)"/><path class="b" d="M88.866,28.746a3.9,3.9,0,0,1-1.3,3.041,5.764,5.764,0,0,1-3.988,1.282,6.978,6.978,0,0,1-3.795-.912l.544-1.955a6.43,6.43,0,0,0,3.39.934,3.206,3.206,0,0,0,2.065-.6,1.955,1.955,0,0,0,.738-1.6,2.039,2.039,0,0,0-.609-1.5,5.658,5.658,0,0,0-2.02-1.132q-3.847-1.434-3.847-4.2a3.715,3.715,0,0,1,1.348-2.958A5.313,5.313,0,0,1,84.979,18a7.1,7.1,0,0,1,3.322.7L87.715,20.6a5.765,5.765,0,0,0-2.8-.673,2.837,2.837,0,0,0-1.932.609,1.738,1.738,0,0,0-.587,1.326,1.789,1.789,0,0,0,.672,1.433A7.6,7.6,0,0,0,85.2,24.43a7.23,7.23,0,0,1,2.78,1.78,3.719,3.719,0,0,1,.89,2.535Z" transform="translate(-38.667 -17.989)"/><path class="b" d="M95.673,23.907H93.088v5.125q0,1.956,1.369,1.955a4.172,4.172,0,0,0,1.042-.109l.063,1.781a5.314,5.314,0,0,1-1.823.26,2.814,2.814,0,0,1-2.173-.847,4.188,4.188,0,0,1-.781-2.846v-5.32h-1.54v-1.76h1.54V20.212l2.3-.7v2.63h2.586Z" transform="translate(-37.719 -17.842)"/><path class="b" d="M106.629,27.116a5.791,5.791,0,0,1-1.391,4,4.966,4.966,0,0,1-3.868,1.607,4.721,4.721,0,0,1-3.7-1.541,5.613,5.613,0,0,1-1.379-3.888,5.734,5.734,0,0,1,1.423-4.018,4.923,4.923,0,0,1,3.835-1.565,4.821,4.821,0,0,1,3.736,1.543,5.55,5.55,0,0,1,1.347,3.865Zm-2.434.076a4.748,4.748,0,0,0-.629-2.505,2.317,2.317,0,0,0-2.106-1.263,2.352,2.352,0,0,0-2.151,1.263,4.841,4.841,0,0,0-.629,2.549,4.742,4.742,0,0,0,.629,2.5,2.4,2.4,0,0,0,4.236-.022,4.766,4.766,0,0,0,.649-2.526Z" transform="translate(-37.01 -17.618)"/><path class="b" d="M113.135,23.993a4.073,4.073,0,0,0-.739-.063,2.216,2.216,0,0,0-1.912.935,3.515,3.515,0,0,0-.587,2.085v5.539h-2.344l.022-7.23q0-1.823-.088-3.324h2.043l.086,2.02h.063a3.61,3.61,0,0,1,1.172-1.672,2.836,2.836,0,0,1,1.7-.566,3.765,3.765,0,0,1,.587.043Z" transform="translate(-35.892 -17.624)"/><path class="b" d="M123.006,26.7a5.5,5.5,0,0,1-.086,1.064h-7.037a3.063,3.063,0,0,0,1.021,2.389,3.485,3.485,0,0,0,2.3.738,7.783,7.783,0,0,0,2.847-.5l.368,1.628a8.8,8.8,0,0,1-3.539.653,5.127,5.127,0,0,1-3.857-1.446,5.335,5.335,0,0,1-1.4-3.877,6.048,6.048,0,0,1,1.305-3.975,4.5,4.5,0,0,1,3.691-1.693,3.934,3.934,0,0,1,3.458,1.693A5.71,5.71,0,0,1,123.006,26.7Zm-2.237-.609a3.187,3.187,0,0,0-.456-1.8,2.049,2.049,0,0,0-1.869-.978,2.225,2.225,0,0,0-1.867.956,3.5,3.5,0,0,0-.692,1.823h4.886Z" transform="translate(-35.273 -17.618)"/></g><g transform="translate(48.05 7.213)"><path class="b" d="M49.589,10.319a3.612,3.612,0,0,1-1.164,2.924,4.629,4.629,0,0,1-3.062.907,14.2,14.2,0,0,1-1.687-.086V6.989a12.447,12.447,0,0,1,1.986-.15,4.281,4.281,0,0,1,2.85.822A3.321,3.321,0,0,1,49.589,10.319Zm-1.216.032a2.63,2.63,0,0,0-.666-1.932,2.628,2.628,0,0,0-1.949-.672,4.88,4.88,0,0,0-.929.075V13.2a6.088,6.088,0,0,0,.779.032,2.727,2.727,0,0,0,2.044-.737,2.947,2.947,0,0,0,.721-2.145Z" transform="translate(-43.676 -6.52)"/><path class="b" d="M55.37,11.277a2.845,2.845,0,0,1-.683,1.964,2.439,2.439,0,0,1-1.9.79,2.318,2.318,0,0,1-1.82-.758,2.76,2.76,0,0,1-.676-1.91,2.817,2.817,0,0,1,.7-1.974,2.423,2.423,0,0,1,1.886-.768,2.372,2.372,0,0,1,1.836.754A2.738,2.738,0,0,1,55.37,11.277Zm-1.194.038a2.346,2.346,0,0,0-.309-1.231,1.138,1.138,0,0,0-1.034-.62,1.157,1.157,0,0,0-1.057.62,2.377,2.377,0,0,0-.309,1.252,2.346,2.346,0,0,0,.309,1.231,1.164,1.164,0,0,0,1.046.62,1.15,1.15,0,0,0,1.034-.629,2.331,2.331,0,0,0,.319-1.244Z" transform="translate(-43.012 -6.347)"/><path class="b" d="M63.449,8.719,61.827,13.9H60.771L60.1,11.653a16.85,16.85,0,0,1-.417-1.675h-.021a12.267,12.267,0,0,1-.417,1.675L58.53,13.9H57.461L55.935,8.719H57.12l.587,2.466q.213.874.352,1.665h.021q.126-.65.428-1.653l.737-2.476h.939l.705,2.423q.256.886.416,1.707h.032a16.311,16.311,0,0,1,.352-1.707l.629-2.423h1.132Z" transform="translate(-42.448 -6.34)"/><path class="b" d="M68.614,13.913H67.459v-2.97q0-1.373-1.045-1.373a1.04,1.04,0,0,0-.833.377,1.339,1.339,0,0,0-.32.889v3.076H64.107v-3.7q0-.683-.041-1.484h1.013l.054.811h.032a1.666,1.666,0,0,1,.6-.629,1.949,1.949,0,0,1,1.045-.292,1.655,1.655,0,0,1,1.207.47,2.283,2.283,0,0,1,.6,1.721Z" transform="translate(-41.634 -6.347)"/><path class="b" d="M71.193,14.122H70.041V6.556h1.152Z" transform="translate(-41.035 -6.556)"/><path class="b" d="M77.719,11.277a2.845,2.845,0,0,1-.683,1.964,2.44,2.44,0,0,1-1.9.79,2.315,2.315,0,0,1-1.82-.758,2.76,2.76,0,0,1-.676-1.91,2.817,2.817,0,0,1,.7-1.973,2.422,2.422,0,0,1,1.882-.768,2.374,2.374,0,0,1,1.838.754,2.738,2.738,0,0,1,.661,1.9Zm-1.194.038a2.346,2.346,0,0,0-.309-1.231,1.137,1.137,0,0,0-1.033-.62,1.154,1.154,0,0,0-1.06.62,2.377,2.377,0,0,0-.309,1.252,2.345,2.345,0,0,0,.309,1.232,1.164,1.164,0,0,0,1.046.62,1.149,1.149,0,0,0,1.033-.629,2.321,2.321,0,0,0,.321-1.245Z" transform="translate(-40.774 -6.348)"/><path class="b" d="M82.717,13.916H81.682l-.086-.6h-.031a1.775,1.775,0,0,1-1.515.715,1.563,1.563,0,0,1-1.184-.47,1.473,1.473,0,0,1-.406-1.056,1.611,1.611,0,0,1,.8-1.451,4.128,4.128,0,0,1,2.237-.49v-.1q0-1.025-1.077-1.024a2.412,2.412,0,0,0-1.352.384l-.234-.754a3.326,3.326,0,0,1,1.779-.448q2.033,0,2.035,2.145v1.91a8.1,8.1,0,0,0,.074,1.233Zm-1.194-1.782v-.8q-1.907-.033-1.907,1.045a.781.781,0,0,0,.221.609.807.807,0,0,0,.566.2,1.164,1.164,0,0,0,.705-.24.984.984,0,0,0,.418-.817Z" transform="translate(-40.192 -6.35)"/><path class="b" d="M88.735,14.122H87.711l-.054-.833h-.029a1.724,1.724,0,0,1-1.666.951A1.949,1.949,0,0,1,84.4,13.5a2.867,2.867,0,0,1-.619-1.91,3.007,3.007,0,0,1,.672-2.039,2.067,2.067,0,0,1,1.6-.726,1.554,1.554,0,0,1,1.461.7h.022V6.556H88.7v6.168Q88.7,13.482,88.735,14.122ZM87.54,11.935V11.07a1.7,1.7,0,0,0-.032-.363,1.313,1.313,0,0,0-.417-.7,1.132,1.132,0,0,0-.771-.283,1.183,1.183,0,0,0-1.015.512,2.2,2.2,0,0,0-.37,1.313A2.048,2.048,0,0,0,85.29,12.8a1.187,1.187,0,0,0,1.006.512,1.111,1.111,0,0,0,.911-.427,1.421,1.421,0,0,0,.333-.949Z" transform="translate(-39.658 -6.556)"/><path class="b" d="M97.709,11.277a2.845,2.845,0,0,1-.683,1.964,2.437,2.437,0,0,1-1.9.79,2.321,2.321,0,0,1-1.819-.758,2.76,2.76,0,0,1-.676-1.91,2.817,2.817,0,0,1,.7-1.973,2.424,2.424,0,0,1,1.886-.768,2.369,2.369,0,0,1,1.835.754A2.738,2.738,0,0,1,97.709,11.277Zm-1.194.038a2.345,2.345,0,0,0-.309-1.231,1.14,1.14,0,0,0-1.035-.62,1.159,1.159,0,0,0-1.057.62,2.377,2.377,0,0,0-.308,1.252,2.345,2.345,0,0,0,.308,1.232,1.178,1.178,0,0,0,2.081-.011,2.341,2.341,0,0,0,.32-1.242Z" transform="translate(-38.771 -6.348)"/><path class="b" d="M103.3,13.913h-1.152v-2.97q0-1.373-1.046-1.373a1.037,1.037,0,0,0-.832.377,1.333,1.333,0,0,0-.32.889v3.076H98.793v-3.7q0-.683-.041-1.484h1.012l.054.811h.032a1.683,1.683,0,0,1,.6-.629,1.953,1.953,0,0,1,1.046-.292,1.654,1.654,0,0,1,1.206.47,2.278,2.278,0,0,1,.6,1.718Z" transform="translate(-38.16 -6.347)"/><path class="b" d="M110.22,9.7h-1.27v2.519c0,.641.226.961.672.961a2.03,2.03,0,0,0,.514-.054l.028.875a2.59,2.59,0,0,1-.9.126,1.378,1.378,0,0,1-1.069-.416,2.034,2.034,0,0,1-.385-1.4V9.7h-.758V8.837h.758V7.885l1.132-.341V8.837h1.27V9.7Z" transform="translate(-37.324 -6.456)"/><path class="b" d="M115.894,14.122H114.74V11.173q0-1.394-1.044-1.395a1.1,1.1,0,0,0-1.1.808,1.449,1.449,0,0,0-.054.415V14.12H111.39V6.556h1.152V9.682h.022a1.743,1.743,0,0,1,1.558-.852,1.607,1.607,0,0,1,1.186.47,2.362,2.362,0,0,1,.587,1.74Z" transform="translate(-36.894 -6.556)"/><path class="b" d="M121.625,11.075a2.786,2.786,0,0,1-.043.522h-3.458a1.509,1.509,0,0,0,.5,1.174,1.717,1.717,0,0,0,1.132.363,3.82,3.82,0,0,0,1.4-.245l.18.8a4.342,4.342,0,0,1-1.741.32,2.515,2.515,0,0,1-1.894-.71,2.614,2.614,0,0,1-.688-1.9,2.968,2.968,0,0,1,.64-1.953,2.2,2.2,0,0,1,1.813-.832,1.929,1.929,0,0,1,1.7.832,2.766,2.766,0,0,1,.459,1.632Zm-1.1-.3a1.552,1.552,0,0,0-.223-.886,1.006,1.006,0,0,0-.917-.481,1.094,1.094,0,0,0-.918.47,1.745,1.745,0,0,0-.342.9Z" transform="translate(-36.33 -6.347)"/></g></svg>