<svg xmlns="http://www.w3.org/2000/svg" width="459.386" height="297.999" viewBox="0 0 459.386 297.999"><defs><style>.a{opacity:0.34;}.b,.d{opacity:0.24;}.c,.d{fill:#fff;}</style></defs><g class="a" transform="translate(-36.872 -26.44) rotate(-7)"><g class="b" transform="translate(0 302.554) rotate(-60)"><path class="c" d="M1.724.33c4.611,5.628,7.221,12.261,8.728,19.337a1.017,1.017,0,0,1-1.96.54C6.68,13.526,3.575,7.523.129,1.561-.431.6.972-.587,1.724.33Z" transform="translate(338.882 222.652)"/><path class="c" d="M1.132.113A49.867,49.867,0,0,1,14.458,13.306c.49.681-.613,1.535-1.164.9A165.843,165.843,0,0,0,.222,1.294.755.755,0,0,1,1.132.113Z" transform="translate(308.593 184.103)"/><path class="c" d="M1.676.1A113.738,113.738,0,0,1,23.534,12.858c.991.715.069,2.372-.976,1.667A211.617,211.617,0,0,0,.568,1.995C-.719,1.336.412-.438,1.676.1Z" transform="translate(267.823 153.398)"/><path class="c" d="M.773.665c7.2-1.593,14.44-.2,21.076,2.853,1,.46.286,2.2-.759,1.8C14.554,2.8,8,2.378,1.062,2.8A1.092,1.092,0,0,1,.773.665Z" transform="translate(212.993 141.215)"/><path class="c" d="M.529,3.09A23.352,23.352,0,0,1,17.241.526c.906.184.718,1.758-.221,1.637A26.269,26.269,0,0,0,1.617,4.95,1.078,1.078,0,0,1,.529,3.09Z" transform="translate(173.883 143.05)"/><path class="c" d="M.383,2.855A57.148,57.148,0,0,1,6.224.074c.865-.384,1.63.828.759,1.3A58.483,58.483,0,0,1,1.025,4.379C.134,4.739-.408,3.321.383,2.855Z" transform="translate(139.578 158.152)"/><path class="c" d="M.037,12.324A21.908,21.908,0,0,1,9.157.163c.975-.674,2.228.917,1.281,1.661A28.982,28.982,0,0,0,2.081,13.187C1.55,14.362-.28,13.517.037,12.324Z" transform="translate(106.124 183.747)"/><path class="c" d="M2.006.764C2.167-.422,4.185-.149,4.1,1.046c-.416,5.944-.685,11.9-1.665,17.785C2.206,20.213-.053,19.884,0,18.5.237,12.55,1.208,6.658,2.006.764Z" transform="translate(93.343 221.226)"/><path class="c" d="M2.279.619c3.252,5.756,7.57,10.711,11,16.313.848,1.387-1.045,2.729-2.187,1.687C6.231,14.183,2.949,7.734.137,1.872-.543.45,1.484-.788,2.279.619Z" transform="translate(98.934 275.867)"/><path class="c" d="M.963.783c5.432.6,10.6-.173,15.992-.776,1.084-.121,1.09,1.418.236,1.756C11.934,3.853,6.2,3.625.7,2.721-.383,2.543-.143.661.963.783Z" transform="translate(145.176 311.473)"/><path class="c" d="M.453,10.079c4.808-3.4,9.556-6.865,14.6-9.9,1.24-.748,2.211,1.073,1.108,1.895C11.444,5.59,6.441,8.67,1.481,11.833.362,12.546-.6,10.823.453,10.079Z" transform="translate(190.072 288.153)"/><path class="c" d="M.038,15.3A40.284,40.284,0,0,0,.953,1.031C.832-.146,2.806-.417,3.03.752A29.9,29.9,0,0,1,2.017,15.846,1.027,1.027,0,0,1,.038,15.3Z" transform="translate(222.038 242.999)"/><path class="c" d="M1.751.432c2.543,3.781,4.96,7.611,7.332,11.5C9.8,13.1,7.99,14.141,7.258,13,4.8,9.164,2.421,5.316.139,1.375A.935.935,0,0,1,1.751.432Z" transform="translate(210.207 196.862)"/><path class="c" d="M1.53.094a18.853,18.853,0,0,1,10.7,12.044c.379,1.227-1.424,1.65-1.882.518A21.75,21.75,0,0,0,.515,1.833C-.653,1.206.374-.4,1.53.094Z" transform="translate(179.737 165.101)"/><path class="c" d="M1.747.166A85.2,85.2,0,0,1,10.306,6.6c1.082.861-.36,2.755-1.489,1.932A85.516,85.516,0,0,1,.342,1.985,1.163,1.163,0,0,1,1.747.166Z" transform="translate(140.822 132.746)"/><path class="c" d="M1.229.064c6.484,2.573,12.84,5.526,19.053,8.7.936.477.275,2.129-.728,1.726C13.083,7.888,6.669,5.059.469,1.866-.5,1.365.18-.352,1.229.064Z" transform="translate(93.056 108.741)"/><path class="c" d="M1.472.249A48.319,48.319,0,0,0,19.45,11.012a.813.813,0,0,1-.431,1.567C11.765,10.713,5.166,7.195.237,1.485A.874.874,0,0,1,1.472.249Z" transform="translate(47.243 82.487)"/><path class="c" d="M2.284.821a29.551,29.551,0,0,0,8.177,12.695c.893.789-.321,2.413-1.292,1.676A23.069,23.069,0,0,1,.032,1.444,1.169,1.169,0,0,1,2.284.821Z" transform="translate(14.913 47.771)"/><path class="c" d="M2.517.913C4.156,10.1,5.062,19.385,5.975,28.666c.152,1.556-2.534,1.94-2.755.373C1.91,19.8.581,10.569,0,1.254-.087-.166,2.261-.515,2.517.913Z" transform="translate(0 0)"/></g><path class="d" d="M13.581,2.969c-12.17,10.016-2.568,26.824,9.836,30.652-3.68,4.865-5.656,10.532-2.747,15.6a.869.869,0,0,0,.186.205l.016.053c-7.509,2.993-17.736,4.16-19.645-6.212C1.116,42.661.122,42.476.044,43.2c-.471,4.464,2.872,8.073,6.91,9.52,4.813,1.725,9.956.151,14.158-2.407A11.786,11.786,0,0,0,24.4,55.2a18.671,18.671,0,0,0-7.289,13.246c-.264,2.964.607,9.035,4.918,6.554.756-.434.09-1.433-.638-1.261-4.8,1.128-1.2-10.275-.765-11.2a20.053,20.053,0,0,1,4.886-6.43c.244.182.491.363.745.53A16.588,16.588,0,0,0,37.972,58.75c-3.1,5.3-.946,13.11,2.812,17.484,4.629,5.391,12.432,6.963,19.023,4.578A17.005,17.005,0,0,0,70.762,65.341c.317-7.746-4.913-14.9-11.837-18.116a15.887,15.887,0,0,0,3.653-13.631c-2.029-9.975-11.493-14-20.436-12.5C43.72,14.7,37.488,7.127,32.79,3.652,27.249-.442,19.205-1.662,13.581,2.969ZM26.93,54.916l.039-.03a.577.577,0,0,0-.648-.955c-.151.087-.294.182-.443.273a10.446,10.446,0,0,1-3.524-5.028.812.812,0,0,0,.1-.857c-2-4.374-.372-9.1,2.612-13.218-.494,8.38,5.226,17.344,12.184,21.415.485.285,1-.478.549-.824a27.68,27.68,0,0,1-8.667-10.234c-1.851-3.983-2.123-7.914-2.534-12.191a.43.43,0,0,0-.021-.073,37.413,37.413,0,0,1,6.786-6.1.7.7,0,0,0-.085.211c-2.171,10.774,6.9,22.007,16.71,25.1C42.477,56.882,32.825,58.456,26.93,54.916ZM68.635,63a15.087,15.087,0,0,1-8.95,15.589c-5.948,2.446-13.407,1.068-17.567-4.009-4.048-4.941-3.66-10.268-2.913-16.046a29.745,29.745,0,0,0,3.884-1.057,37.789,37.789,0,0,0,14.628-8.892C62.513,52.9,67.9,55.706,68.635,63ZM58.705,44.142a24.65,24.65,0,0,1-8.159,7.927.459.459,0,0,0-.237-.588,24.882,24.882,0,0,1-11.676-9.57c-2.964-4.606-3.471-9.23-3.887-14.528a.722.722,0,0,0-.866-.646c.549-.367,1.086-.708,1.6-1.011a21.01,21.01,0,0,1,5.04-2.106.857.857,0,0,0,.409-.108,20.511,20.511,0,0,1,5.447-.616.748.748,0,0,0-.737.769c.414,8.127,6.3,16.287,13.025,20.464C58.682,44.137,58.695,44.135,58.705,44.142Zm1.654-11.084A13.53,13.53,0,0,1,59.1,43.414,37.119,37.119,0,0,1,51.232,34.5c-2.168-3.561-3.025-7.2-4.172-11.135a.621.621,0,0,0-.526-.464C52.69,23.081,58.4,26.219,60.359,33.058ZM29.128,3.9C34.605,6.838,41.761,14.853,39.81,21.606a21.906,21.906,0,0,0-4.07,1.581,39.065,39.065,0,0,0-11.6,9.513C14.516,28.383,5.4,17.727,12.717,7.134,16.446,1.736,23.542.906,29.128,3.9Z" transform="matrix(-0.848, -0.53, 0.53, -0.848, 442.294, 185.86)"/></g></svg>