<svg xmlns="http://www.w3.org/2000/svg" xmlns:xlink="http://www.w3.org/1999/xlink" width="148.82" height="43.915" viewBox="0 0 148.82 43.915"><defs><style>.a,.b,.d,.e,.f,.g,.h,.i,.j,.k{fill-rule:evenodd;}.b{fill:#a6a6a6;}.c,.d,.k{fill:#fff;}.e{fill:url(#a);}.f{fill:url(#b);}.g{fill:url(#c);}.h{fill:url(#d);}.i{opacity:0.2;}.j{opacity:0.12;}.k{opacity:0.25;}</style><linearGradient id="a" x1="6.723" y1="-0.457" x2="6.612" y2="-0.427" gradientUnits="objectBoundingBox"><stop offset="0" stop-color="#00a0ff"/><stop offset="0.007" stop-color="#00a1ff"/><stop offset="0.26" stop-color="#00beff"/><stop offset="0.512" stop-color="#00d2ff"/><stop offset="0.76" stop-color="#00dfff"/><stop offset="1" stop-color="#00e3ff"/></linearGradient><linearGradient id="b" x1="7.223" y1="-2.216" x2="6.963" y2="-2.216" gradientUnits="objectBoundingBox"><stop offset="0" stop-color="#ffe000"/><stop offset="0.409" stop-color="#ffbd00"/><stop offset="0.775" stop-color="orange"/><stop offset="1" stop-color="#ff9c00"/></linearGradient><linearGradient id="c" x1="5.291" y1="-1.801" x2="5.2" y2="-1.648" gradientUnits="objectBoundingBox"><stop offset="0" stop-color="#ff3a44"/><stop offset="1" stop-color="#c31162"/></linearGradient><linearGradient id="d" x1="5.221" y1="-0.949" x2="5.261" y2="-0.881" gradientUnits="objectBoundingBox"><stop offset="0" stop-color="#32a071"/><stop offset="0.068" stop-color="#2da771"/><stop offset="0.476" stop-color="#15cf74"/><stop offset="0.801" stop-color="#06e775"/><stop offset="1" stop-color="#00f076"/></linearGradient></defs><path class="a" d="M143.306,43.914H5.514A5.517,5.517,0,0,1,0,38.425V5.489A5.51,5.51,0,0,1,5.514,0H143.306a5.511,5.511,0,0,1,5.514,5.489V38.425A5.518,5.518,0,0,1,143.306,43.914Z" transform="translate(0 0)"/><path class="b" d="M143.306.88a4.635,4.635,0,0,1,4.635,4.611V38.426a4.626,4.626,0,0,1-4.635,4.611H5.514A4.635,4.635,0,0,1,.88,38.425V5.489A4.626,4.626,0,0,1,5.514.88Zm0-.88H5.514A5.517,5.517,0,0,0,0,5.489V38.425a5.51,5.51,0,0,0,5.514,5.489H143.306a5.511,5.511,0,0,0,5.514-5.489V5.489A5.518,5.518,0,0,0,143.306,0Z" transform="translate(0 0)"/><path class="c" d="M1687.386,278.4a3.341,3.341,0,0,1-2.494-1.032,3.516,3.516,0,0,1-1.006-2.519,3.437,3.437,0,0,1,1.006-2.515,3.331,3.331,0,0,1,2.491-1.032,3.376,3.376,0,0,1,2.494,1.032,3.646,3.646,0,0,1,0,5.029,3.313,3.313,0,0,1-2.491,1.037Zm-29.571,0a3.464,3.464,0,0,1-2.505-1.018,3.548,3.548,0,0,1,2.505-6.078,3.491,3.491,0,0,1,1.4.29,2.83,2.83,0,0,1,1.065.761l.063.079-.742.728-.077-.091a2.109,2.109,0,0,0-1.722-.742,2.38,2.38,0,0,0-1.717.7,2.661,2.661,0,0,0,0,3.646,2.51,2.51,0,0,0,3.48,0,1.9,1.9,0,0,0,.5-1.142h-2.379V274.51h3.4l.014.093a3.753,3.753,0,0,1,.049.515,3.08,3.08,0,0,1-.849,2.273,3.312,3.312,0,0,1-2.482,1.008Zm39.317-.145h-1.045l-3.211-5.139.028.925v4.212h-1.049v-6.8h1.194l.033.052,3.018,4.841-.028-.923v-3.97h1.059v6.806Zm-17.626,0h-1.062V272.47H1676.6v-1.024h4.744v1.024H1679.5v5.784Zm-3.772,0h-1.059v-6.806h1.059Zm-5.955,0h-1.059V272.47h-1.843v-1.024h4.744v1.024h-1.843Zm-3.573-.011h-4.063v-6.8h4.063v1.024h-3v1.867h2.708v1.013h-2.708v1.867h3Zm19.46-1.58a2.345,2.345,0,0,0,1.717.712,2.284,2.284,0,0,0,1.717-.712,2.7,2.7,0,0,0,0-3.625,2.348,2.348,0,0,0-1.716-.712,2.275,2.275,0,0,0-1.714.712,2.7,2.7,0,0,0-.006,3.625Z" transform="translate(-1608.99 -263.872)"/><path class="d" d="M1676.48,688.185a4.671,4.671,0,1,0,4.684,4.671,4.6,4.6,0,0,0-4.684-4.671Zm0,7.49a2.838,2.838,0,1,1,2.634-2.829,2.7,2.7,0,0,1-2.634,2.829Zm-10.22-7.49a4.671,4.671,0,1,0,4.684,4.671,4.6,4.6,0,0,0-4.686-4.671Zm0,7.49a2.838,2.838,0,1,1,2.633-2.829,2.7,2.7,0,0,1-2.635,2.829Zm-12.161-6.064v1.977h4.744a4.166,4.166,0,0,1-1.073,2.489,4.842,4.842,0,0,1-3.66,1.451,5.27,5.27,0,1,1,0-10.541,5.065,5.065,0,0,1,3.573,1.416l1.4-1.4a6.893,6.893,0,0,0-4.966-2,7.247,7.247,0,1,0,0,14.495,6.635,6.635,0,0,0,5.062-2.038,6.56,6.56,0,0,0,1.719-4.635,6.119,6.119,0,0,0-.109-1.232h-6.7l.006.022Zm49.743,1.538a4.338,4.338,0,0,0-4-2.976,4.437,4.437,0,0,0-4.4,4.67,4.565,4.565,0,0,0,4.635,4.671,4.636,4.636,0,0,0,3.89-2.074l-1.585-1.062a2.656,2.656,0,0,1-2.294,1.293,2.389,2.389,0,0,1-2.27-1.416l6.245-2.587-.222-.517Zm-6.368,1.56a2.563,2.563,0,0,1,2.439-2.721,1.8,1.8,0,0,1,1.733.989Zm-5.073,4.526h2.051V683.514H1692.4Zm-3.368-8.014h-.074a3.234,3.234,0,0,0-2.464-1.049,4.67,4.67,0,0,0,0,9.333,3.226,3.226,0,0,0,2.464-1.062h.074v.671c0,1.782-.953,2.743-2.489,2.743a2.59,2.59,0,0,1-2.354-1.659l-1.782.744a4.457,4.457,0,0,0,4.134,2.757c2.4,0,4.441-1.416,4.441-4.868v-8.381h-1.938v.77Zm-2.354,6.453a2.84,2.84,0,0,1,0-5.658,2.626,2.626,0,0,1,2.489,2.842,2.592,2.592,0,0,1-2.49,2.816Zm26.765-12.161h-4.9v13.722h2.051v-5.2h2.855a4.269,4.269,0,1,0,0-8.525Zm.063,6.609h-2.916v-4.709h2.916a2.355,2.355,0,1,1,0,4.709Zm12.658-1.963a3.862,3.862,0,0,0-3.661,2.1l1.818.754a1.949,1.949,0,0,1,1.867-1.013,1.979,1.979,0,0,1,2.16,1.768v.145a4.6,4.6,0,0,0-2.138-.526c-1.963,0-3.953,1.073-3.953,3.086a3.171,3.171,0,0,0,3.4,3.025,2.886,2.886,0,0,0,2.609-1.342h.074v1.063h1.977v-5.257C1730.324,689.516,1728.5,688.16,1726.163,688.16Zm-.257,7.515c-.671,0-1.61-.329-1.61-1.172,0-1.062,1.172-1.465,2.171-1.465a3.56,3.56,0,0,1,1.867.463,2.469,2.469,0,0,1-2.428,2.174Zm11.63-7.222-2.354,5.952h-.074l-2.439-5.952h-2.207l3.661,8.32-2.086,4.624h2.137l5.632-12.944Zm-18.458,8.783h2.051V683.514h-2.051Z" transform="translate(-1601.68 -664.301)"/><path class="e" d="M400.6,299.474a2.224,2.224,0,0,0-.5,1.55V325.3a2.117,2.117,0,0,0,.512,1.536l.085.074,13.6-13.6v-.3L400.683,299.4Z" transform="translate(-389.143 -291.203)"/><path class="f" d="M922.836,639.89l-4.536-4.536v-.318l4.536-4.536.1.063,5.366,3.05c1.536.865,1.536,2.295,0,3.17l-5.366,3.05Z" transform="translate(-893.159 -613.238)"/><path class="g" d="M436.721,806.635,432.086,802,418.4,815.686a1.8,1.8,0,0,0,2.281.074l16.041-9.125" transform="translate(-406.945 -780.043)"/><path class="h" d="M436.721,295.959l-16.041-9.111a1.778,1.778,0,0,0-2.281.074l13.686,13.673Z" transform="translate(-406.945 -278.637)"/><path class="i" d="M437.012,967.7l-15.931,9.053a1.808,1.808,0,0,1-2.2.011l-.085.085.085.074a1.809,1.809,0,0,0,2.2-.011l16.041-9.111Z" transform="translate(-407.334 -941.206)"/><path class="j" d="M1088.974,803.426l-5.478,3.11.1.1,5.366-3.05a1.923,1.923,0,0,0,1.147-1.585A1.975,1.975,0,0,1,1088.974,803.426Z" transform="translate(-1053.835 -780.043)"/><path class="k" d="M402.882,286.837,424.288,299a2.018,2.018,0,0,1,1.147,1.426,1.923,1.923,0,0,0-1.147-1.585L402.882,286.68c-1.536-.88-2.782-.145-2.782,1.61v.159C400.1,286.689,401.345,285.969,402.882,286.837Z" transform="translate(-389.146 -278.468)"/></svg>