<svg xmlns="http://www.w3.org/2000/svg" width="1922" height="1022.766" viewBox="0 0 1922 1022.766"><defs><style>.a{fill:#ffc545;stroke:rgba(0,0,0,0);stroke-miterlimit:10;opacity:0.12;}</style></defs><path class="a" d="M2231.285,2212.766h-50.028l-25.049-42.318,25.049-42.317h50.026l25.05,42.317-25.05,42.318Zm-48.14-81.329-23.089,39.009,23.089,39.018H2229.4l23.09-39.018-23.09-39.009ZM2074.4,2212.766H2024.37l-25.049-42.318,25.05-42.317h50.024l25.05,42.317-25.05,42.318Zm-48.139-81.329-23.1,39.009,23.1,39.018h46.256l23.09-39.018-23.089-39.009Zm523.831,78.514h-50.021l-25.049-42.307,25.049-42.317h50.018l25.046,42.317-25.046,42.307Zm-48.144-81.323h0l-23.094,39.015,23.094,39H2548.2l23.1-39-23.1-39.015Zm206.931,79.485h-50.021l-25.052-42.32,25.052-42.318h50.018l25.057,42.317-25.057,42.32Zm-48.133-81.342h0l-23.1,39.02,23.1,39.019H2707l23.094-39.019L2707,2126.772Zm204.987,81.341h-50.02l-25.057-42.32,25.057-42.318h50.018l25.05,42.317-25.049,42.32Zm-48.138-81.341h0l-23.1,39.019,23.1,39.019h46.248l23.1-39.019-23.1-39.019Zm-823.746,42.79H1943.82l-25.042-42.307,25.042-42.317h50.025l25.05,42.317-25.05,42.306Zm-48.135-81.323h0l-23.1,39.015,23.1,39h46.247l23.1-39-23.1-39.016h-46.248Zm363.779,79.487h-50.027l-25.045-42.323,25.045-42.317h50.026l25.049,42.317-25.049,42.322Zm-48.138-81.343-23.1,39.02,23.1,39.016H2307.6l23.1-39.016-23.1-39.02H2261.35Zm-108.714,81.342h-50.018l-25.056-42.323,25.056-42.317h50.018l25.056,42.317-25.056,42.322Zm-48.133-81.342-23.095,39.02,23.095,39.016h46.244l23.1-39.016-23.1-39.02H2104.5ZM2469.4,2165.76h-50.027l-25.05-42.317,25.05-42.314h50.025l25.05,42.314-25.05,42.317Zm-48.143-81.328-23.095,39.009,23.095,39.011H2467.5l23.1-39.012-23.1-39.009Zm206.934,79.481h-50.029l-25.042-42.328,25.042-42.31h50.03l25.042,42.31-25.042,42.328Zm-48.144-81.338h0l-23.094,39.008,23.094,39.023h46.26l23.087-39.023-23.087-39.009h-46.26Zm207.482,80.029H2737.5l-25.049-42.324,25.049-42.313h50.026l25.046,42.313-25.046,42.324Zm-48.143-81.335-23.088,39.009,23.088,39.023h46.259l23.1-39.023-23.1-39.009ZM2914,2162.6h-19.165l-25.057-42.324,25.057-42.313H2914v3.3h-17.283l-23.092,39.009,23.092,39.023H2914v3.3Zm-1000.845-37.235h-50.02l-25.057-42.313,25.057-42.318h50.018l25.05,42.318-25.05,42.313Zm-48.138-81.328h0l-23.1,39.012,23.1,39.012h46.243l23.095-39.012-23.095-39.013h-46.243Zm206.929,79.487h-50.028l-25.049-42.328,25.049-42.313h50.026l25.049,42.313-25.049,42.328Zm-48.139-81.339-23.1,39.009,23.1,39.023h46.256l23.091-39.023-23.091-39.009h-46.256Zm364.817,80.028H2338.6l-25.046-42.325,25.046-42.313h50.026l25.049,42.313-25.049,42.324Zm-1.888-81.338h-46.26l-23.088,39.011,23.088,39.016h46.26l23.094-39.016Zm-155.453,81.337h-50.026l-25.049-42.325,25.049-42.313h50.026l25.05,42.313-25.05,42.324Zm-1.881-81.337h-46.257l-23.089,39.011,23.089,39.016H2229.4l23.09-39.016Zm320.127,78.531h-50.021l-25.052-42.328,25.052-42.314h50.018l25.056,42.314-25.056,42.328Zm-48.14-81.339h0l-23.1,39.008,23.1,39.022h46.259l23.088-39.022-23.088-39.008h-46.259Zm204.884,79.479h-50.027l-25.046-42.313,25.046-42.317h50.025l25.05,42.317-25.05,42.313Zm-48.146-81.324-23.088,39.008,23.088,39.009h46.259l23.088-39.009-23.088-39.008Zm208.088,81.323h-50.026l-25.057-42.313,25.056-42.317h50.026l25.046,42.317-25.046,42.313Zm-48.141-81.323h0l-23.1,39.008,23.1,39.009h46.252l23.093-39.009-23.093-39.008Zm-824.784,42.79h-50.019l-25.057-42.324,25.057-42.321h50.018l25.046,42.322-25.046,42.324Zm-48.141-81.334-23.088,39.009,23.088,39.023h46.259l23.091-39.023-23.091-39.009Zm364.828,79.479h-50.027l-25.057-42.313,25.057-42.317h50.025l25.05,42.317-25.05,42.314Zm-48.148-81.325h0l-23.1,39.008,23.1,39.009h46.256l23.092-39.009-23.092-39.009h-46.257Zm-111.8,81.325H2100l-25.049-42.313L2100,1992.529h50.026l25.05,42.317-25.05,42.314Zm-48.14-81.325h0l-23.091,39.008,23.091,39.009h46.248l23.1-39.009-23.1-39.009h-46.248Zm367.5,79.369h-50.025l-25.05-42.318,25.05-42.325h50.025l25.05,42.325-25.05,42.317Zm-48.14-81.338h0l-23.095,39.02,23.095,39.009H2467.5l23.1-39.009-23.1-39.02Zm366.271,80.233H2737.5l-25.049-42.327,25.049-42.311h50.026l25.046,42.31-25.046,42.328Zm-48.141-81.338-23.088,39.01,23.088,39.015h46.259l23.1-39.016-23.1-39.009Zm-111.2,80.587h-50.029l-25.042-42.315,25.042-42.319h50.03l25.042,42.32-25.042,42.314Zm-48.144-81.332h0l-23.094,39.015,23.094,39.009h46.26l23.087-39.009L2626.3,1992.02h-46.26ZM2914,2072.036h-19.165l-25.057-42.318,25.057-42.317H2914v3.3h-17.283l-23.092,39.016,23.092,39.012H2914v3.3Zm-1000.845-37.218h-50.02l-25.057-42.321,25.057-42.324h50.018l25.05,42.324-25.05,42.321Zm-48.138-81.342h0l-23.1,39.019,23.1,39.012h46.243l23.095-39.013-23.095-39.019h-46.243Zm366.267,80.233h-50.027l-25.049-42.324,25.049-42.314h50.026l25.05,42.314-25.05,42.324h0Zm-48.139-81.333h0l-23.089,39.008,23.089,39.016H2229.4l23.09-39.016-23.09-39.008Zm-111.2,80.584h-50.028l-25.049-42.31,25.049-42.321h50.026l25.049,42.321-25.049,42.31Zm-48.139-81.329h0l-23.1,39.016,23.1,39.01h46.256l23.091-39.01-23.091-39.016Zm364.814,80.014H2338.6l-25.046-42.318,25.046-42.312h50.026l25.049,42.312-25.049,42.318Zm-48.145-81.332h0l-23.087,39.012,23.088,39.016h46.26l23.094-39.016-23.094-39.012h-46.26Zm209.61,80.585h-50.018l-25.049-42.325,25.049-42.311h50.018l25.046,42.31-25.046,42.325Zm-48.141-81.334-23.094,39.009,23.094,39.023H2548.2l23.1-39.023-23.1-39.009Zm206.931,79.486h-50.021l-25.052-42.32,25.052-42.318h50.018l25.057,42.318-25.057,42.32Zm-48.133-81.338h0l-23.1,39.016,23.1,39.011H2707l23.094-39.011L2707,1947.712Zm204.987,81.338h-50.02l-25.057-42.32,25.057-42.318h50.018l25.05,42.318-25.049,42.32Zm-48.139-81.338h0l-23.1,39.016,23.1,39.011h46.248l23.1-39.011-23.1-39.017h-46.248Zm-823.743,42.8H1943.82l-25.042-42.321,25.042-42.31h50.025l25.05,42.31-25.05,42.321Zm-48.139-81.332-23.1,39.009,23.1,39.016h46.247l23.1-39.016-23.1-39.007h-46.248v0Zm206.93,79.487h-50.021l-25.056-42.324,25.056-42.317h50.018l25.056,42.317-25.056,42.324Zm-48.135-81.339-23.095,39.013,23.095,39.016h46.244l23.1-39.016-23.1-39.013H2104.5Zm204.985,81.338h-50.027l-25.045-42.324,25.045-42.317h50.026l25.049,42.317-25.049,42.324Zm-48.138-81.338-23.1,39.013,23.1,39.016H2307.6l23.1-39.016-23.1-39.013H2261.35Zm208.044,81.246h-50.026l-25.05-42.313,25.05-42.321h50.025l25.05,42.321-25.05,42.313Zm-48.141-81.323-23.095,39.009,23.095,39.016H2467.5l23.1-39.016-23.1-39.009h-46.245Zm206.934,79.483h-50.029l-25.042-42.325,25.042-42.318h50.03l25.042,42.318-25.042,42.325Zm-48.143-81.344h0l-23.094,39.016,23.094,39.016h46.26l23.087-39.016-23.087-39.017h-46.26Zm207.482,80.206H2737.5l-25.049-42.317,25.049-42.317h50.026l25.046,42.317-25.046,42.317Zm-48.143-81.335-23.088,39.016,23.088,39.016h46.259l23.1-39.016-23.1-39.016ZM2914,1983.111h-20.5l-25.056-42.317,25.056-42.321H2914v3.306h-18.623l-23.088,39.015,23.088,39.009H2914v3.308Zm-1000.845-34.925h-50.02l-25.057-42.32,25.057-42.317h50.018l25.05,42.317-25.05,42.32Zm-48.138-81.329h0l-23.1,39.005,23.1,39.015h46.243l23.095-39.015-23.095-39.006h-46.243Zm206.929,79.48h-50.028l-25.049-42.321,25.049-42.322h50.026l25.049,42.322-25.049,42.321ZM2023.807,1865h0l-23.1,39.016,23.1,39.016h46.256l23.091-39.016L2070.063,1865Zm207.479,80.2h-50.028l-25.049-42.316,25.049-42.318h50.026l25.05,42.318-25.05,42.316Zm-48.14-81.335h0l-23.089,39.017,23.089,39.011H2229.4l23.09-39.011-23.09-39.017Zm364.939,80.4h-50.025L2473,1901.947l25.057-42.31h50.025l25.049,42.31-25.049,42.321Zm-48.14-81.327-23.1,39.005,23.1,39.019H2546.2l23.1-39.019-23.1-39.005Zm-112.664,79.776h-50.021l-25.06-42.31,25.06-42.32h50.019l25.049,42.32-25.049,42.31Zm-48.138-81.332h0l-23.1,39.018,23.1,39.009H2385.4l23.086-39.009-23.087-39.02h-46.258Zm367.735,81.031H2656.85L2631.8,1900.1l25.051-42.315h50.023l25.046,42.315-25.046,42.316Zm-48.143-81.331-23.095,39.013,23.095,39.015h46.253l23.095-39.015-23.095-39.013Zm205.66,79.033h-50.028l-25.042-42.318,25.042-42.317h50.026l25.045,42.317-25.044,42.318Zm-48.143-81.331h0l-23.087,39.011,23.088,39.02H2862.5l23.09-39.02-23.09-39.011Zm-824.406,45.092h-50.026l-25.053-42.321,25.053-42.31h50.025l25.05,42.309-25.049,42.321Zm-48.138-81.331h0l-23.105,39.009,23.106,39.012h46.252l23.095-39.013-23.095-39.009Zm206.929,79.483h-50.027l-25.049-42.325,25.049-42.313h50.026l25.05,42.313-25.05,42.325Zm-48.138-81.339-23.1,39.013,23.1,39.02h46.249l23.1-39.019-23.1-39.013Zm364.623,80.724H2417.1l-25.064-42.325,25.064-42.31h50.02l25.044,42.31-25.045,42.325Zm-48.141-81.335-23.095,39.009,23.095,39.019h46.259l23.092-39.02-23.092-39.009h-46.259Zm-110.826,79.648h-50.028l-25.042-42.321,25.042-42.313h50.026l25.049,42.313-25.048,42.322Zm-48.14-81.336-23.09,39.013,23.09,39.02h46.241l23.1-39.02-23.1-39.013h-46.242Zm367.756,80.577h-50.021l-25.061-42.321,25.061-42.313h50.018l25.049,42.313-25.049,42.321Zm-48.133-81.328-23.106,39.005,23.106,39.016h46.252l23.095-39.016-23.094-39h-46.253Zm-753.006,81.276H1776.6l-25.049-42.319,25.049-42.317h50.026l25.049,42.317-25.049,42.319Zm-48.146-81.328-23.091,39.008,23.091,39.018h46.256l23.1-39.018-23.1-39.008Zm-108.741,81.328h-50.026l-25.05-42.319,25.05-42.317h50.026l25.05,42.317-25.05,42.319Zm-48.145-81.328-23.09,39.008,23.09,39.018h46.255l23.091-39.018-23.091-39.008Zm1163.843,78.853h-50.017l-25.046-42.325,25.046-42.317h50.018l25.057,42.317-25.057,42.326ZM2737.3,1815.1l-23.092,39.017,23.092,39.012h46.251l23.095-39.013-23.095-39.015H2737.3Zm-1386.374,81h-50.018l-25.045-42.307,25.045-42.318h50.019l25.049,42.318-25.049,42.307Zm-48.129-81.323-23.1,39.016,23.1,39h46.252l23.094-39-23.094-39.015Zm-110.656,79.486h-50.02l-25.056-42.32,25.056-42.318h50.018l25.052,42.318-25.052,42.32ZM1144,1812.927l-23.095,39.02L1144,1890.965h46.252l23.1-39.019-23.1-39.02Zm-108.713,81.342H993v-3.3h40.409l23.1-39.019-23.1-39.02H993v-3.3h42.29l25.057,42.318-25.057,42.32Zm1036.237-35.688h-50.017l-25.064-42.323,25.064-42.306h50.017l25.046,42.307-25.046,42.323Zm-48.132-81.328h0l-23.1,39.005,23.1,39.02h46.245l23.106-39.02-23.106-39.005Zm205.81,78.8h-50.02l-25.056-42.321,25.056-42.32H2229.2l25.053,42.32-25.053,42.321Zm-48.142-81.339h0l-23.089,39.015,23.088,39.013h46.251l23.105-39.012-23.105-39.016h-46.251Zm-273.883,81h-50.028l-25.049-42.307,25.049-42.317h50.026l25.041,42.317-25.041,42.307Zm-48.139-81.324-23.1,39.015,23.1,39h46.248l23.1-39-23.1-39.015Zm686.724,79.674h-50.025l-25.055-42.326,25.055-42.313h50.026l25.05,42.313-25.05,42.326Zm-48.135-81.332-23.1,39.005,23.1,39.017h46.255l23.091-39.017-23.091-39.005Zm-108.753,81.332h-50.024l-25.057-42.326,25.057-42.313h50.025l25.046,42.313-25.046,42.326Zm-48.14-81.332-23.095,39.005,23.095,39.017H2387l23.091-39.017L2387,1772.736h-46.259Zm365.534,81.3h-50.027l-25.046-42.322,25.046-42.31h50.025l25.05,42.31-25.05,42.322Zm-48.139-81.332-23.095,39.009,23.095,39.016h46.252l23.088-39.016-23.088-39.009Zm-909.75,81.182h-50.021l-25.056-42.322,25.056-42.317h50.018l25.056,42.317-25.056,42.322Zm-48.133-81.343-23.1,39.019,23.1,39.016H1746.5l23.095-39.017-23.095-39.019Zm-108.71,81.343h-50.028l-25.05-42.322,25.05-42.317h50.026l25.045,42.317-25.045,42.322Zm-48.144-81.343-23.095,39.019,23.095,39.016h46.252l23.1-39.017-23.1-39.019Zm-111.765,79.376h-50.027l-25.05-42.317,25.05-42.313h50.026l25.049,42.313-25.049,42.317Zm-48.131-81.327h0l-23.1,39.009,23.1,39.01h46.245l23.095-39.011-23.095-39.009Zm-110.658,79.483h-50.032l-25.043-42.328,25.043-42.31h50.029l25.042,42.31-25.042,42.328Zm-48.147-81.339-23.088,39.008,23.088,39.024h46.259l23.095-39.024-23.095-39.008ZM1113.5,1848.76h-50.028l-25.046-42.324,25.046-42.314H1113.5l25.049,42.314-25.049,42.324Zm-48.147-81.335h0l-23.1,39.009,23.1,39.022h46.259l23.088-39.022-23.088-39.01Zm1084.672,46.218h-50.021l-25.056-42.324,25.056-42.31h50.019l25.05,42.31-25.05,42.324Zm-48.132-81.331h0l-23.1,39.005,23.1,39.02h46.24l23.1-39.02-23.1-39.005Zm-114.033,79.212h-50.017l-25.05-42.315,25.05-42.318h50.017l25.057,42.318-25.057,42.315Zm-48.125-81.328h0l-23.094,39.013,23.094,39.013h46.245l23.1-39.012-23.1-39.013Zm368.593,80.666H2258.3l-25.049-42.307,25.049-42.317h50.025l25.05,42.317-25.05,42.307Zm-48.139-81.324-23.091,39.016,23.091,39h46.248l23.1-39-23.1-39.016Zm-431.112,80.145h-50.024l-25.05-42.329,25.05-42.313h50.025l25.05,42.313-25.05,42.329Zm-48.143-81.338h0l-23.091,39.008,23.091,39.022h46.255l23.1-39.022-23.1-39.009Zm843.036,80.681h-50.021L2548.9,1766.7l25.056-42.318h50.018l25.05,42.318-25.05,42.321Zm-48.138-81.34-23.1,39.017,23.1,39.015h46.251l23.087-39.015-23.087-39.017Zm-108.715,81.338H2417.1l-25.057-42.321,25.057-42.318h50.02l25.044,42.318-25.045,42.321Zm-48.133-81.338h0l-23.1,39.016,23.1,39.015h46.244l23.1-39.015-23.1-39.017h-46.244Zm-749.243,80.686h-50.028l-25.05-42.324,25.05-42.314h50.026l25.05,42.314-25.05,42.323Zm-48.147-81.338-23.09,39.012,23.09,39.017h46.255l23.091-39.016-23.091-39.012Zm-109.191,81.338h-50.028l-25.049-42.324,25.049-42.314H1512.4l25.045,42.314-25.045,42.323Zm-48.143-81.338-23.095,39.012,23.095,39.017h46.259l23.087-39.016-23.087-39.012Zm-112.772,78.53h-50.02l-25.056-42.329,25.056-42.314h50.019l25.052,42.314-25.052,42.329Zm-48.141-81.338-23.088,39.009,23.088,39.022h46.259l23.1-39.022-23.1-39.009ZM1194.757,1803.7h-50.028l-25.049-42.313,25.049-42.317h50.026l25.045,42.317-25.045,42.313Zm-48.144-81.323-23.088,39.008,23.088,39.01h46.259l23.088-39.01-23.088-39.008Zm-111.8,81.323H993v-3.3h39.926l23.1-39.01-23.1-39.008H993v-3.308h41.811l25.056,42.317-25.056,42.313Zm1033.432-34.544h-50.017l-25.05-42.32,25.05-42.326h50.017l25.057,42.326-25.057,42.32Zm-48.136-81.339h0l-23.091,39.019,23.091,39.012h46.259l23.088-39.012-23.088-39.019Zm207.521,78.848h-50.019l-25.048-42.322,25.048-42.313h50.019l25.049,42.313-25.049,42.322Zm-48.13-81.331-23.1,39.009,23.1,39.017h46.24l23.106-39.017-23.106-39.009Zm-271.77,79.835h-50.019l-25.046-42.324,25.046-42.323h50.018l25.058,42.323-25.058,42.324Zm-48.138-81.335-23.091,39.009,23.091,39.023h46.259l23.089-39.023-23.088-39.009Zm526.837,80.986H2336.4l-25.041-42.328,25.041-42.31h50.026l25.049,42.309-25.049,42.328Zm-48.141-81.337-23.095,39.009,23.095,39.023h46.252l23.091-39.023-23.091-39.009Zm364.82,80.028h-50.028l-25.045-42.325,25.045-42.314H2703.1l25.051,42.314-25.051,42.325Zm-48.146-81.335-23.1,39.009,23.1,39.023h46.259l23.088-39.023-23.088-39.009Zm-109.191,81.335h-50.028l-25.055-42.325,25.055-42.314h50.026l25.05,42.314-25.05,42.325Zm-48.138-81.335-23.1,39.009,23.1,39.023h46.255l23.091-39.023-23.091-39.009ZM1751,1763.315h-50.026L1675.923,1721l25.05-42.316H1751L1776.047,1721,1751,1763.314Zm-48.137-81.322h0l-23.1,39.008,23.1,39.01h46.247L1772.2,1721l-23.091-39.008Zm-111.811,81.322h-50.026L1515.976,1721l25.05-42.316h50.025L1616.108,1721l-25.057,42.313Zm-48.137-81.322h0L1519.823,1721l23.091,39.01h46.256l23.1-39.01-23.1-39.008Zm-111.28,79.37h-50.028l-25.05-42.317,25.05-42.324h50.026l25.049,42.324-25.049,42.317Zm-48.133-81.339h0l-23.1,39.019,23.1,39.008h46.245l23.095-39.008-23.095-39.019Zm-270,80.232h-50.026l-25.046-42.328,25.046-42.311H1113.5l25.049,42.311-25.049,42.328Zm-48.145-81.337h0l-23.1,39.008,23.1,39.016h46.259l23.088-39.016-23.088-39.009Zm207.487,80.589h-50.032l-25.043-42.314,25.043-42.321h50.029l25.042,42.321-25.042,42.314Zm-48.147-81.332-23.088,39.016,23.088,39.01h46.259l23.095-39.01-23.095-39.016Zm922.683,45.478h-50.025l-25.045-42.333,25.045-42.306h50.026l25.048,42.306-25.048,42.333Zm-48.145-81.338-23.09,39.005,23.09,39.024h46.26l23.094-39.024-23.094-39.005Zm-111.369,78.659h-50.02l-25.05-42.321,25.05-42.324h50.017l25.057,42.324-25.057,42.32Zm-48.128-81.343-23.094,39.021,23.094,39.012h46.245l23.1-39.012-23.1-39.021h-46.245Zm368.037,80.685h-50.028l-25.049-42.323,25.049-42.315h50.026l25.046,42.315-25.046,42.323Zm-48.143-81.335-23.095,39.01,23.095,39.023h46.252l23.095-39.023-23.095-39.009h-46.252Zm-589.889,80.884h-50.027l-25.05-42.324,25.05-42.313h50.026l25.05,42.313-25.05,42.324ZM1621.6,1638.53l-23.09,39.009,23.09,39.016h46.255l23.091-39.016-23.091-39.009Zm207.486,80.584h-50.027l-25.05-42.31,25.05-42.32h50.025l25.05,42.32-25.05,42.31Zm-48.146-81.328h0l-23.091,39.015,23.091,39.01h46.255l23.1-39.01-23.1-39.015Zm683.576,80.673h-50.028l-25.048-42.313,25.048-42.317h50.026l25.05,42.317-25.05,42.313Zm-48.15-81.324-23.087,39.009,23.087,39.009h46.26l23.1-39.009-23.1-39.009Zm208.1,81.324-50.026,0-25.057-42.313,25.057-42.317h50.026l25.05,42.317-25.05,42.313Zm-48.138-81.324h0l-23.105,39.009,23.105,39.009h46.247l23.091-39.009-23.091-39.009h-46.247ZM1512.407,1717.8h-50.028l-25.049-42.318,25.049-42.313H1512.4l25.045,42.313L1512.4,1717.8Zm-48.143-81.333-23.095,39.013,23.095,39.016h46.259l23.087-39.016-23.087-39.013Zm-113.33,80.586h-50.021l-25.045-42.326,25.045-42.309h50.019l25.049,42.309-25.049,42.326Zm-48.132-81.335h0l-23.1,39.007,23.1,39.024h46.252l23.094-39.024-23.094-39.007Zm-110.655,79.486h-50.021l-25.056-42.32,25.056-42.317h50.018l25.052,42.317-25.052,42.32ZM1144,1633.867l-23.095,39.016L1144,1711.894h46.252l23.1-39.011-23.1-39.016Zm-108.712,81.339H993v-3.309h40.409l23.1-39.011-23.1-39.016H993v-3.3h42.29l25.057,42.317-25.057,42.32Zm1033.442-36.612h-50.019l-25.064-42.309,25.064-42.318h50.018l25.05,42.318-25.05,42.309Zm-48.137-81.327h0l-23.1,39.017,23.1,39.008h46.248l23.1-39.008-23.1-39.017Zm-113.416,79.394h-50.027l-25.049-42.321,25.049-42.31h50.026l25.041,42.31-25.041,42.321Zm-48.138-81.33-23.1,39.008,23.1,39.017h46.248l23.1-39.016-23.1-39.008Zm368.59,80.789h-50.021l-25.048-42.32,25.048-42.328h50.019l25.049,42.328-25.049,42.321Zm-48.132-81.342-23.1,39.02,23.1,39.01h46.24l23.106-39.01-23.106-39.019Zm366.27,80.233h-50.028l-25.055-42.328,25.055-42.31h50.026l25.05,42.31-25.05,42.328Zm-48.138-81.339-23.1,39.009,23.1,39.016h46.255l23.091-39.016-23.091-39.009Zm-749.247,81.143h-50.021l-25.056-42.323,25.056-42.317h50.018l25.056,42.317-25.056,42.324Zm-48.133-81.338h0l-23.1,39.012,23.1,39.016H1746.5l23.095-39.016-23.095-39.012Zm-108.71,81.338h-50.028l-25.05-42.323,25.05-42.317h50.026l25.045,42.317-25.045,42.324Zm-48.144-81.338h0l-23.095,39.012,23.095,39.016h46.252l23.1-39.016-23.1-39.012Zm-111.764,81.246h-50.027l-25.05-42.314,25.05-42.32h50.026l25.049,42.32-25.049,42.314ZM1383.5,1593.4h0l-23.1,39.008,23.1,39.015h46.245l23.095-39.015-23.095-39.009Zm1002.927,80.856H2336.4l-25.041-42.314,25.041-42.317h50.026l25.049,42.317-25.049,42.314Zm-48.141-81.328-23.095,39.013,23.095,39.012h46.252l23.091-39.012-23.091-39.012Zm364.816,80.022h-50.024l-25.045-42.323,25.045-42.317H2703.1l25.051,42.317-25.051,42.323Zm-48.143-81.339-23.1,39.016,23.1,39.012h46.259l23.088-39.012-23.088-39.016Zm-1382.117,81.273h-50.032l-25.043-42.325,25.043-42.317h50.029l25.042,42.317-25.042,42.325Zm-48.147-81.343-23.088,39.016,23.088,39.018h46.259l23.095-39.018-23.095-39.016Zm-111.192,80.2h-50.028l-25.046-42.316,25.046-42.317H1113.5l25.049,42.317-25.049,42.316Zm-48.147-81.335h0l-23.1,39.017,23.1,39.016h46.259l23.088-39.016-23.088-39.017Zm922.51,43.93h-50.02l-25.05-42.32,25.05-42.317h50.017l25.057,42.317-25.057,42.32Zm-48.128-81.327-23.094,39.005,23.094,39.016h46.245l23.1-39.016-23.1-39.005Zm207.642,80.068h-50.025l-25.045-42.317,25.045-42.317h50.026l25.048,42.317-25.048,42.317Zm-48.145-81.327-23.09,39.009,23.09,39.015h46.26l23.094-39.015-23.094-39.009Zm-270.154,80.737h-50.026l-25.05-42.319,25.05-42.323h50.025l25.05,42.323-25.05,42.319Zm-48.145-81.338-23.091,39.018,23.091,39.015h46.255l23.1-39.015-23.1-39.018Zm527.391,80.655H2258.3l-25.049-42.325,25.049-42.31h50.025l25.05,42.311-25.05,42.325Zm-48.136-81.334h0l-23.091,39.008,23.091,39.021h46.248l23.1-39.021-23.1-39.009Zm-590.45,80.883h-50.026l-25.05-42.317,25.05-42.317h50.026l25.05,42.317-25.05,42.317Zm-48.145-81.334-23.09,39.016,23.09,39.011h46.255l23.091-39.012-23.091-39.016Zm-268.655,80.4h-50.028l-25.049-42.321,25.049-42.309h50.025L1378,1588.1l-25.057,42.321ZM1304.8,1549.1h0l-23.1,39,23.1,39.019h46.252l23.1-39.019-23.1-39.005H1304.8Zm1319.168,80.863h-50.019l-25.056-42.319,25.056-42.318h50.018l25.05,42.318-25.05,42.319Zm-48.136-81.337h0l-23.1,39.017,23.1,39.015h46.251l23.087-39.015-23.087-39.017Zm-108.715,81.337H2417.1l-25.057-42.319,25.057-42.318h50.02l25.044,42.318-25.045,42.319Zm-48.133-81.339-23.1,39.019,23.1,39.015h46.244l23.1-39.015-23.1-39.017h-46.244v0Zm-905.244,80.253h-50.021l-25.049-42.311,25.049-42.321h50.018l25.06,42.321-25.06,42.31Zm-48.144-81.331-23.087,39.019,23.087,39.01h46.259l23.1-39.01-23.1-39.019Zm-271.447,81.031h-50.027l-25.046-42.317,25.046-42.313h50.025l25.05,42.313-25.05,42.317Zm-48.139-81.332-23.095,39.013,23.095,39.016h46.252l23.095-39.016-23.095-39.013h-46.252Zm-109.379,79.033H993v-3.3h41.748l23.088-39.02-23.088-39.012H993v-3.3h43.634l25.042,42.317-25.042,42.318Zm1031.611-36.18h-50.017l-25.05-42.321,25.05-42.322h50.017l25.057,42.322-25.057,42.321Zm-48.136-81.335-23.091,39.013,23.091,39.015h46.259l23.088-39.015-23.088-39.013h-46.259Zm-110.926,81.276h-50.027l-25.05-42.321,25.05-42.31h50.024l25.053,42.31-25.053,42.32Zm-48.143-81.331h0l-23.1,39.009,23.1,39.012h46.252l23.106-39.012-23.106-39.009Zm366.591,80.775h-50.02l-25.048-42.317,25.048-42.317h50.019l25.049,42.317-25.049,42.317Zm-48.131-81.323h0l-23.1,39,23.1,39.017h46.24l23.106-39.016-23.106-39H2179.5Zm-429.106,80.032h-50.028l-25.05-42.326,25.05-42.313h50.026l25.049,42.313-25.049,42.326Zm-48.14-81.339-23.1,39.012,23.1,39.019H1748.5l23.1-39.019-23.1-39.012ZM1433.9,1587.573h-50.021l-25.045-42.325,25.045-42.31H1433.9l25.064,42.31-25.064,42.324Zm-48.139-81.335h0l-23.091,39.008,23.091,39.02h46.259l23.095-39.02-23.095-39.009Zm207.116,79.648h-50.028l-25.049-42.322,25.049-42.313h50.026l25.042,42.312-25.042,42.322Zm-48.133-81.336h0l-23.1,39.012,23.1,39.019h46.241l23.091-39.02-23.091-39.012Zm-271.49,80.577h-50.021l-25.049-42.321,25.049-42.314h50.018l25.06,42.314-25.06,42.32Zm-48.143-81.328-23.095,39.005,23.095,39.016h46.252l23.106-39.016-23.106-39.005Zm-109.532,78.8h-50.02l-25.057-42.325,25.057-42.318h50.018l25.046,42.318-25.046,42.324Zm-48.135-81.342-23.095,39.016,23.095,39.012h46.252l23.091-39.012-23.091-39.016h-46.252Zm762.047,43.477h-50.02l-25.046-42.322,25.046-42.306h50.018l25.064,42.306-25.064,42.322Zm-48.132-81.328-23.106,39,23.106,39.02H1827.6l23.1-39.02-23.1-39Zm-109.543,78.8H1621.8l-25.053-42.321,25.053-42.32h50.018l25.057,42.32-25.057,42.321Zm-48.132-81.338h0l-23.105,39.015,23.106,39.013h46.252l23.088-39.013-23.088-39.015Zm-111.536,79.352h-50.028l-25.045-42.325,25.045-42.314h50.026L1537.2,1497.9l-25.057,42.325ZM1464,1458.892h0L1440.91,1497.9,1464,1536.913h46.259l23.095-39.016-23.095-39.005Zm-108.741,81.332h-50.028l-25.05-42.325,25.05-42.314h50.026l25.056,42.314-25.056,42.325Zm-48.147-81.332h0l-23.091,39.005,23.091,39.016h46.255l23.1-39.016-23.1-39.005Zm-112.357,81.3h-50.027l-25.049-42.321,25.049-42.31h50.026l25.045,42.31-25.045,42.321Zm-48.143-81.332-23.088,39.009,23.088,39.016h46.252l23.095-39.016-23.095-39.009Zm604.38,40.942h-50.02l-25.05-42.323,25.05-42.31h50.018l25.057,42.309-25.057,42.323Zm-48.131-81.33h0l-23.1,39,23.1,39.019h46.24l23.1-39.02-23.1-39ZM1592.7,1497.016h-50.028l-25.049-42.3,25.049-42.317h50.026l25.049,42.317-25.049,42.3Zm-48.139-81.323h0l-23.1,39.016,23.1,39h46.248l23.091-39-23.091-39.017ZM1433.9,1495.179h-50.021l-25.045-42.321,25.045-42.317H1433.9l25.057,42.317-25.057,42.321Zm-48.132-81.339-23.1,39.016,23.1,39.016h46.245l23.095-39.016-23.095-39.016Zm-108.719,81.339h-50.02l-25.05-42.321,25.05-42.317h50.017l25.057,42.317-25.057,42.321Zm-48.135-81.339-23.088,39.016,23.088,39.016h46.252l23.1-39.016-23.1-39.016Zm603.86,41.478h-50.02L1757.7,1413l25.057-42.325h50.018L1857.82,1413l-25.049,42.321Zm-48.142-81.342L1761.543,1413l23.088,39.013h46.26l23.09-39.014-23.091-39.019Zm-111.241,78.849H1623.37l-25.049-42.32,25.049-42.314h50.018l25.049,42.314-25.049,42.32Zm-48.132-81.331-23.106,39.009,23.106,39.016h46.24l23.1-39.016-23.1-39.009ZM1514.6,1450.98h-50.028l-25.05-42.327,25.05-42.31H1514.6l25.042,42.311-25.042,42.327Zm-48.14-81.338-23.091,39.008,23.091,39.022h46.252l23.095-39.022-23.095-39.009Zm-111.2,80.027h-50.027l-25.05-42.324,25.05-42.314h50.026l25.056,42.314-25.056,42.324Zm-48.146-81.333-23.091,39.009,23.091,39.023h46.255l23.1-39.023-23.1-39.009Zm-109.193,81.333H1147.9l-25.05-42.324,25.05-42.314h50.025l25.046,42.314-25.046,42.324Zm-48.141-81.333-23.088,39.009,23.088,39.023h46.259l23.1-39.023-23.1-39.009Zm603.868,41.474h-50.028l-25.049-42.332,25.049-42.307h50.026l25.045,42.307-25.045,42.332Zm-48.143-81.34-23.095,39.006L1705.5,1406.5h46.259l23.091-39.024-23.091-39.006Zm-112.251,78h-50.027l-25.046-42.324,25.046-42.313h50.025l25.049,42.313-25.049,42.324Zm-48.14-81.336h0l-23.094,39.009,23.095,39.023h46.252l23.095-39.023-23.095-39.01h-46.253Zm-108.6,79.481h-50.027l-25.05-42.314,25.05-42.317h50.025l25.05,42.317-25.05,42.314Zm-48.139-81.323h0l-23.1,39.007,23.1,39.009h46.259l23.088-39.009-23.088-39.008Zm-111.807,81.323h-50.028l-25.05-42.314,25.05-42.317h50.026l25.056,42.317-25.056,42.314Zm-48.14-81.323h0l-23.091,39.007,23.091,39.009h46.248l23.106-39.009-23.106-39.008Zm603.857,41.457h-50.02l-25.05-42.31,25.05-42.317h50.018l25.063,42.317-25.062,42.31Zm-48.132-81.327-23.1,39.016,23.1,39.009H1830.4l23.1-39.009-23.1-39.016Zm-110.766,78.853H1623.37l-25.049-42.322,25.049-42.328h50.018l25.049,42.328-25.049,42.322Zm-48.13-81.341h0l-23.105,39.018,23.106,39.01h46.24l23.1-39.01-23.1-39.019Zm-270,80.232h-50.028l-25.05-42.327,25.05-42.309h50.026l25.056,42.309-25.056,42.327Zm-48.147-81.338h0l-23.091,39.008,23.091,39.016h46.255l23.1-39.016-23.1-39.009Zm207.487,80.585h-50.028l-25.05-42.314,25.05-42.317H1514.6l25.042,42.317-25.042,42.314Zm-48.14-81.328-23.091,39.012,23.091,39.013h46.252l23.095-39.012-23.095-39.012Zm-268.538,80.022H1147.9l-25.05-42.322,25.05-42.317h50.025l25.046,42.317-25.046,42.322Zm-48.143-81.339h0l-23.087,39.015,23.088,39.011h46.259l23.1-39.012-23.1-39.015Zm603.868,41.469h-50.028l-25.049-42.317,25.049-42.317h50.026l25.045,42.317-25.045,42.317Zm-48.143-81.328h0l-23.094,39.009,23.095,39.016h46.259l23.091-39.016-23.091-39.01H1705.5ZM1592.7,1317.964h-50.028l-25.049-42.324,25.049-42.311h50.026l25.049,42.311-25.049,42.324Zm-48.139-81.335h0l-23.1,39.008,23.1,39.02h46.248l23.091-39.02-23.091-39.009ZM1433.9,1316.116h-50.021l-25.045-42.321,25.045-42.318H1433.9l25.057,42.318-25.057,42.321Zm-48.132-81.338-23.1,39.016,23.1,39.016h46.245l23.095-39.016-23.095-39.016Zm-108.719,81.338h-50.02l-25.05-42.321,25.05-42.318h50.017l25.057,42.318-25.057,42.321Zm-48.135-81.338-23.088,39.016,23.088,39.016h46.252l23.1-39.016-23.1-39.016Zm603.86,41.473h-50.02l-25.057-42.321,25.057-42.321h50.018l25.049,42.321-25.049,42.321Zm-48.142-81.335h0l-23.088,39.012,23.088,39.016h46.26l23.09-39.016-23.091-39.012h-46.258Zm-111.241,80.719H1623.37l-25.049-42.316L1623.37,1191h50.018l25.049,42.317-25.049,42.316Zm-48.132-81.323-23.106,39.005,23.106,39.016h46.24l23.1-39.016-23.1-39.005Z" transform="translate(-992.5 -1190.5)"></path></svg>