<svg xmlns="http://www.w3.org/2000/svg" width="365.582" height="708.918" viewBox="0 0 365.582 708.918"><defs><style>.a{fill:#ffc545;stroke:rgba(0,0,0,0);stroke-miterlimit:10;opacity:0.12;}</style></defs><path class="a" d="M8513.707,2197.875h-50.023l-25.051-42.317,25.051-42.317h50.023l25.051,42.317-25.051,42.317Zm-48.143-81.328h0l-23.089,39.009,23.092,39.018h46.253l23.1-39.018-23.1-39.009h-46.254Zm-108.744,81.327H8335.5v-3.3h19.433l23.092-39.018-23.092-39.009H8335.5v-3.308h21.321l25.051,42.317-25.051,42.317Zm237.438-43.2h-50.026l-25.048-42.308,25.048-42.317h50.026l25.044,42.317-25.044,42.308Zm-48.137-81.323h0l-23.1,39.014,23.1,39h46.249l23.1-39-23.1-39.015h-46.248Zm-110.661,79.485h-50.018l-25.057-42.321,25.057-42.317h50.018l25.058,42.317-25.058,42.321Zm-48.131-81.342-23.1,39.02,23.1,39.015h46.245l23.1-39.015-23.1-39.02h-46.245Zm287.614,38.985h-50.018l-25.05-42.314,25.05-42.319h50.018L8700,2068.164l-25.057,42.314Zm-48.127-81.328-23.092,39.014,23.092,39.013h46.245l23.1-39.013-23.1-39.013h-46.245Zm-110.657,79.485h-50.024l-25.048-42.328,25.048-42.314h50.024l25.051,42.314-25.051,42.328Zm-48.145-81.337-23.089,39.009,23.089,39.024h46.256l23.1-39.024-23.1-39.009h-46.256Zm-111.194,80.027H8335.5v-3.308h19.433L8378.023,2065l-23.092-39.013H8335.5v-3.3h21.321L8381.871,2065l-25.051,42.323Zm237.985-43.2H8544.79l-25.046-42.323,25.046-42.323h50.016l25.06,42.323-25.06,42.323Zm-48.136-81.334h0l-23.089,39.011,23.089,39.022h46.261l23.087-39.022-23.087-39.009H8546.67Zm-108.594,79.479h-50.024L8363,2019.958l25.05-42.319h50.024l25.05,42.319-25.05,42.312Zm-48.136-81.322-23.1,39.01,23.1,39.009h46.247l23.092-39.009-23.092-39.009H8389.94Zm285,38.979h-50.018l-25.05-42.321,25.05-42.323h50.018L8700,1977.606l-25.057,42.321Zm-48.127-81.342-23.092,39.02,23.092,39.013h46.245l23.1-39.013-23.1-39.02h-46.245Zm-270,80.232H8335.5v-3.308h19.433l23.092-39.015-23.092-39.009H8335.5v-3.306h21.321l25.051,42.315-25.051,42.323Zm159.342-.749h-50.027l-25.048-42.31,25.048-42.319h50.024l25.051,42.319-25.051,42.31Zm-48.147-81.328-23.089,39.016,23.089,39.009h46.256l23.1-39.009-23.1-39.016h-46.256Zm126.243,38.874h-50.026l-25.048-42.321,25.048-42.31h50.026l25.044,42.31-25.044,42.321Zm-48.137-81.328h0l-23.1,39.006,23.1,39.018h46.249l23.1-39.018-23.1-39.007h-46.248ZM8435.46,1973.77h-50.018l-25.057-42.323,25.057-42.317h50.018l25.058,42.317-25.058,42.323Zm-48.131-81.337-23.1,39.014,23.1,39.016h46.245l23.1-39.015-23.1-39.013h-46.245Zm287.614,40.861h-50.018l-25.05-42.321,25.05-42.317h50.018L8700,1890.973l-25.057,42.321Zm-48.127-81.326-23.092,39.005,23.092,39.016h46.245l23.1-39.015-23.1-39h-46.245Zm-110.657,79.479h-50.024l-25.048-42.321,25.048-42.321h50.024l25.051,42.321-25.051,42.321Zm-48.145-81.339-23.089,39.018,23.089,39.015h46.256l23.1-39.015-23.1-39.018h-46.256Zm-111.194,80.2H8335.5v-3.3h19.433l23.092-39.013-23.092-39.018H8335.5v-3.3h21.321l25.051,42.317-25.051,42.317Zm239.439-41.321h-50.026l-25.048-42.321,25.048-42.31h50.026l25.053,42.31-25.053,42.321Zm-48.14-81.331-23.094,39.01,23.094,39.011h46.251l23.107-39.011-23.107-39.009H8548.12Zm-110.648,79.481h-50.026l-25.051-42.325,25.051-42.312h50.026l25.048,42.313-25.048,42.325Zm-48.138-81.337-23.1,39.012,23.1,39.02h46.246l23.1-39.02-23.1-39.011h-46.246Zm127.231,37.887h-50.018l-25.046-42.323,25.046-42.306h50.018l25.065,42.306-25.065,42.323Zm-48.129-81.328-23.1,39.005,23.1,39.02h46.247l23.1-39.02-23.1-39h-46.247Zm-109.544,78.8H8335.5v-3.308h21.516l23.088-39.011-23.088-39.018H8335.5v-3.3h23.394l25.057,42.321-25.057,42.319Zm79.177-42.411h-50.018L8363,1756.427l25.05-42.31h50.018l25.057,42.31-25.057,42.325Zm-48.129-81.331-23.1,39.005,23.1,39.02h46.24l23.1-39.02-23.1-39h-46.24Zm129.909,36.85h-50.016l-25.06-42.321,25.06-42.326h50.016l25.05,42.325-25.05,42.321Zm-48.141-81.341-23.087,39.02,23.087,39.013h46.261l23.092-39.013-23.092-39.02h-46.261Zm-111.242,78.851H8335.5v-3.306h23.079l23.1-39.018-23.1-39.009H8335.5v-3.3h24.968l25.048,42.312-25.048,42.323Zm80.258-43.018H8390.7l-25.048-42.332,25.048-42.308h50.026l25.046,42.308-25.046,42.332Zm-48.14-81.337-23.1,39.005,23.1,39.024h46.258l23.092-39.024-23.092-39h-46.258Zm126.777,36.278h-50.018l-25.05-42.31,25.05-42.317h50.018l25.065,42.317-25.065,42.31Zm-48.129-81.326-23.1,39.016,23.1,39.009h46.249l23.1-39.009-23.1-39.016h-46.249Zm-110.767,78.853H8335.5v-3.312h23.079l23.1-39.009-23.1-39.02H8335.5v-3.308h24.968l25.048,42.328-25.048,42.321Zm80.258-43.038H8390.7l-25.048-42.319,25.048-42.317h50.026l25.046,42.317-25.046,42.319Zm-48.14-81.328-23.1,39.009,23.1,39.016h46.258l23.092-39.016-23.092-39.009h-46.258Zm127.265,38.341h-50.016l-25.06-42.323,25.06-42.321h50.016l25.05,42.321-25.05,42.323Zm-48.141-81.337h0l-23.087,39.013,23.087,39.018h46.261l23.092-39.018-23.092-39.011h-46.261Zm-111.242,80.719H8335.5v-3.3h23.079l23.1-39.015-23.1-39.007H8335.5v-3.31h24.968l25.048,42.317-25.048,42.314Z" transform="translate(-8334.999 -1489.457)"/></svg>