<svg xmlns="http://www.w3.org/2000/svg" width="365.582" height="708.918" viewBox="0 0 365.582 708.918"><defs><style>.a{fill:#ffc545;stroke:rgba(0,0,0,0);stroke-miterlimit:10;opacity:0.12;}</style></defs><path class="a" d="M178.208,707.918H128.185L103.134,665.6l25.051-42.317h50.023L203.259,665.6l-25.051,42.317ZM130.065,626.59h0L106.975,665.6l23.092,39.018h46.253l23.1-39.018-23.1-39.009H130.065ZM21.321,707.917H0v-3.3H19.433L42.524,665.6,19.433,626.591H0v-3.308H21.321L46.372,665.6,21.321,707.917Zm237.438-43.2H208.732l-25.048-42.308,25.048-42.317h50.026L283.8,622.408l-25.044,42.308Zm-48.137-81.323h0l-23.1,39.014,23.1,39H256.87l23.1-39-23.1-39.015H210.622ZM99.961,662.878H49.943L24.887,620.556,49.943,578.24H99.961l25.058,42.317L99.961,662.878ZM51.83,581.536l-23.1,39.02,23.1,39.015H98.075l23.1-39.015-23.1-39.02H51.83Zm287.614,38.985H289.427l-25.05-42.314,25.05-42.319h50.018L364.5,578.207l-25.057,42.314Zm-48.127-81.328-23.092,39.014,23.092,39.013h46.245l23.1-39.013-23.1-39.013H291.317ZM180.66,618.679H130.636l-25.048-42.328,25.048-42.314H180.66l25.051,42.314L180.66,618.679Zm-48.145-81.337-23.089,39.009,23.089,39.024h46.256l23.1-39.024-23.1-39.009H132.516ZM21.321,617.369H0v-3.308H19.433l23.092-39.015L19.433,536.032H0v-3.3H21.321l25.051,42.315L21.321,617.369Zm237.985-43.2H209.291l-25.046-42.323,25.046-42.323h50.016l25.06,42.323-25.06,42.323Zm-48.136-81.334h0l-23.089,39.011,23.089,39.022h46.261l23.087-39.022-23.087-39.009H211.171ZM102.577,572.314H52.553L27.5,530l25.05-42.319h50.024L127.627,530l-25.05,42.312ZM54.441,490.992,31.343,530l23.1,39.009h46.247L123.78,530l-23.092-39.009H54.441Zm285,38.979H289.427l-25.05-42.321,25.05-42.323h50.018L364.5,487.65l-25.057,42.321ZM291.317,448.63l-23.092,39.02,23.092,39.013h46.245l23.1-39.013-23.1-39.02H291.317Zm-270,80.232H0v-3.308H19.433l23.092-39.015L19.433,447.53H0v-3.306H21.321l25.051,42.315L21.321,528.862Zm159.342-.749H130.636L105.588,485.8l25.048-42.319H180.66L205.711,485.8l-25.051,42.31Zm-48.147-81.328L109.427,485.8l23.089,39.009h46.256l23.1-39.009-23.1-39.016H132.516Zm126.243,38.874H208.732l-25.048-42.321,25.048-42.31h50.026l25.044,42.31-25.044,42.321Zm-48.137-81.328h0l-23.1,39.006,23.1,39.018H256.87l23.1-39.018-23.1-39.007H210.622ZM99.961,483.814H49.943L24.887,441.49l25.057-42.317H99.961l25.058,42.317L99.961,483.814ZM51.83,402.477l-23.1,39.014,23.1,39.016H98.075l23.1-39.015-23.1-39.013H51.83Zm287.614,40.861H289.427l-25.05-42.321,25.05-42.317h50.018L364.5,401.017l-25.057,42.321Zm-48.127-81.326-23.092,39.005,23.092,39.016h46.245l23.1-39.015-23.1-39H291.317ZM180.66,441.49H130.636l-25.048-42.321,25.048-42.321H180.66l25.051,42.321L180.66,441.49Zm-48.145-81.339-23.089,39.018,23.089,39.015h46.256l23.1-39.015-23.1-39.018H132.516Zm-111.194,80.2H0v-3.3H19.433l23.092-39.013L19.433,359.021H0v-3.3H21.321l25.051,42.317L21.321,440.355Zm239.439-41.321H210.734l-25.048-42.321,25.048-42.31h50.026l25.053,42.31-25.053,42.321ZM212.621,317.7l-23.094,39.01,23.094,39.011h46.251l23.107-39.011L258.872,317.7H212.621ZM101.973,397.185H51.946L26.9,354.859l25.051-42.312h50.026l25.048,42.313-25.048,42.325ZM53.835,315.848l-23.1,39.012,23.1,39.02h46.246l23.1-39.02-23.1-39.011H53.835Zm127.231,37.887H131.049L106,311.411l25.046-42.306h50.018l25.065,42.306-25.065,42.323Zm-48.129-81.328-23.1,39.005,23.1,39.02h46.247l23.1-39.02-23.1-39H132.938Zm-109.544,78.8H0V347.9H21.516L44.6,308.887,21.516,269.87H0v-3.3H23.394L48.45,308.887,23.394,351.206ZM102.57,308.8H52.553L27.5,266.47l25.05-42.31H102.57l25.057,42.31L102.57,308.8ZM54.441,227.465l-23.1,39.005,23.1,39.02h46.24l23.1-39.02-23.1-39H54.441Zm129.909,36.85H134.335l-25.06-42.321,25.06-42.326h50.016l25.05,42.325-25.05,42.321ZM136.21,182.974l-23.087,39.02,23.087,39.013h46.261l23.092-39.013-23.092-39.02H136.21ZM24.968,261.824H0v-3.306H23.079l23.1-39.018-23.1-39.009H0v-3.3H24.968L50.016,219.5,24.968,261.824Zm80.258-43.018H55.2L30.151,176.474,55.2,134.167h50.026l25.046,42.308-25.046,42.332Zm-48.14-81.337-23.1,39.005,23.1,39.024h46.258l23.092-39.024-23.092-39H57.086Zm126.777,36.278H133.846l-25.05-42.31,25.05-42.317h50.018l25.065,42.317-25.065,42.31ZM135.734,92.421l-23.1,39.016,23.1,39.009h46.249l23.1-39.009-23.1-39.016H135.734ZM24.968,171.274H0v-3.312H23.079l23.1-39.009-23.1-39.02H0V86.625H24.968l25.048,42.328L24.968,171.273Zm80.258-43.038H55.2L30.151,85.917,55.2,43.6h50.026l25.046,42.317-25.046,42.319ZM57.086,46.908l-23.1,39.009,23.1,39.016h46.258l23.092-39.016L103.344,46.908H57.086ZM184.351,85.249H134.335l-25.06-42.323L134.335.6h50.016L209.4,42.926l-25.05,42.323ZM136.21,3.912h0L113.123,42.926,136.21,81.944h46.261l23.092-39.018L182.471,3.915H136.21ZM24.968,84.631H0v-3.3H23.079l23.1-39.015L23.079,3.31H0V0H24.968L50.016,42.317,24.968,84.631Z" transform="translate(365.082 708.418) rotate(180)"/></svg>