<svg xmlns="http://www.w3.org/2000/svg" width="103.115" height="201.338" viewBox="0 0 103.115 201.338"><defs><style>.a{opacity:0.21;}.b{fill:#e5e5e5;}.c{fill:#686868;}.d{fill:#ffc545;}.e{fill:#ffba31;}.f{fill:#191919;}.g{fill:#f2f2f2;}</style></defs><g class="a" transform="translate(-157.464 -14.564)"><path class="b" d="M238.642,72.741c7.17-8.92,1.379-49.211,1.057-54v.005c-.319-4.794-1.607-3.942-1.607-3.942-3.512,7.9.328,46.144-3.753,45.095-.185-3.7-1.536-30.993-1.777-40.918,0,0-.429-4.734-1.273-4.4-2.4,5.154-.1,38.763-1.541,44.96-.19-.048-.354-.1-.474-.132v-.073c.01.027-.268.027-.258,0v.072c-.116.037-.269.084-.445.122-.242-4.849-1.522-30.915-1.762-40.551,0,0-.423-4.733-1.274-4.394-2.393,4.9-.076,41.279-1.614,45.311-3.991,1.091-.289-37.257-3.78-45.084,0,0-1.283-.851-1.6,3.943s-6.062,45.1,1.126,54c4.243,5.255,6.061,7.209,6.766,9.344q2.7.116,5.394.19C232.486,80.077,234.282,78.165,238.642,72.741Z"></path><path class="b" d="M228.439,215.755c8.968.835,4.6-19.043,5.911-45.365-3.426.073-7.237.179-11.237.276C223.689,196.673,219.774,216.717,228.439,215.755Z"></path><path class="c" d="M191.11,30.833c-1.978-1.73-2.026-5.421-.012-8.591s5.376-4.695,7.782-3.64C193.154,13.681,184.223,27.743,191.11,30.833Z"></path><path class="d" d="M161.3,196.838c13.884-1.123,23.3-6.316,29.643-14.086-6.885-.017-20.062.47-33.48.716v12.967Q159.359,196.715,161.3,196.838Z"></path><path class="d" d="M195.254,176.274a50.626,50.626,0,0,0,2.553-5.515c-10.713-.349-19.772-1.44-23.133-4.164-.426-.245-.841-.5-1.253-.762H157.464v10.132C172.844,175.8,188.311,175.751,195.254,176.274Z"></path><path class="d" d="M165.822,159.464a44.354,44.354,0,0,1-8.293-13.311c-.021.053-.043.1-.065.157v13.154Z"></path><path class="d" d="M160.01,41.075q-1.3.121-2.546.29v64.483c.026.058.049.116.074.174,8.306-20.969,25.606-24.783,45.268-24.813C200.582,59.5,181.18,40.333,157.792,40.575c-.112,0-.217.01-.328.012v.5C158.3,41.07,159.144,41.063,160.01,41.075Z"></path><path class="e" d="M157.464,197.056c1.376-.005,2.76-.058,4.155-.193-.106-.006-.211-.019-.318-.025q-1.942-.123-3.837-.4Z"></path><path class="e" d="M157.464,41.087v.278q1.248-.168,2.546-.29C159.144,41.063,158.3,41.07,157.464,41.087Z"></path><path class="f" d="M250.257,141.205c13.756-3.359,13.761-26.568.024-29.952,14.785-3.578,12.992-29.071-2.7-29.329a137.046,137.046,0,0,1-15.751.365q-2.689-.071-5.394-.19c-6.012-.259-12.043-.639-17.926-.806-1.831-13.141-5.892-24.62-14.374-31.406a48.828,48.828,0,0,0-6.578-5.84l5.208-9.374c2.911.029,6.207-1.792,8.6-6.2,6.857-12.058-6.675-19.577-13.29-7.383h0c-2.347,4.125-2.306,7.717-.973,10.172-1.472,2.131-3.4,5.434-5.419,9.087a48.553,48.553,0,0,0-24.219-5.513v5.754c.111,0,.216-.01.328-.012,23.388-.242,42.79,18.927,45.014,40.634-19.662.03-36.962,3.844-45.268,24.813-.025-.058-.048-.116-.074-.174V146.31c.022-.052.044-.1.065-.157a44.354,44.354,0,0,0,8.293,13.311h-8.358v6.369h15.957c.412.26.827.517,1.253.762,3.361,2.724,12.42,3.815,23.133,4.164a50.626,50.626,0,0,1-2.553,5.515c-6.943-.523-22.41-.472-37.79-.309v7.5c13.418-.246,26.6-.733,33.48-.716-6.344,7.77-15.759,12.963-29.643,14.086.107.006.212.019.318.025-1.4.135-2.779.188-4.155.193V215.9c.954.037,1.985-.582,3.1-2.178.3-1.632,3.5-7.058,4.619-10.918a51.906,51.906,0,0,0,40.387-31.911c5.847.026,11.883-.091,17.545-.228,4-.1,7.811-.2,11.237-.276a122.01,122.01,0,0,1,13.231.153C263.261,170.266,265.094,144.772,250.257,141.205ZM198.88,18.6c-2.406-1.055-5.768.47-7.782,3.64s-1.966,6.861.012,8.591C184.223,27.743,193.154,13.681,198.88,18.6ZM247.587,164.24H189.6a25.416,25.416,0,0,1-17.02-6.86c.011.011.02.024.03.035-.194-.11-.386-.233-.577-.359-6.971-6.267-8.593-12.881-8.158-18.4a26.252,26.252,0,0,1,4.789-12.764,19.794,19.794,0,0,1-4.531-9.045c-2.027-10.454,6.216-19.752,9.8-22.971l.047-.043h0a1.669,1.669,0,0,0,.307-.308A31.6,31.6,0,0,1,189.6,88.231h16.256c11.173-.291,25.685-.667,35.608,0h6.123a5.422,5.422,0,0,1,4.308,1.915c.659.387,1,.836.943,1.354,2.7,4.982.959,13.889-5.252,13.767H211.323c-5.772-.1-6.331,9.886-1.65,11.7-.011-.028-.034-.053-.044-.082a4.128,4.128,0,0,0,1.688.363h36.266l.017,0a5.491,5.491,0,0,1,2.935.885q.095.055.186.114c.041.028.081.058.121.087a6.256,6.256,0,0,1,1.837,1.934c.046.069.089.14.134.211a.412.412,0,0,0,.022.035h0a10.045,10.045,0,0,1,1.427,5.252c.373,4.779-2.645,9.54-6.672,9.454H211.323c-5.772-.12-6.331,9.891-1.652,11.7-.013-.028-.03-.053-.043-.082a5.459,5.459,0,0,0,1.323.346c.123.008.244.018.372.015h12.608c7.053-.285,15.173-.648,21.04,0h2.617a5.517,5.517,0,0,1,4.846,2.59,2.619,2.619,0,0,1,.258.42C255.593,155.143,253.9,164.383,247.587,164.24Z"></path><path class="g" d="M247.588,88.232h-6.123c4.946.333,8.749.925,10.431,1.915A5.422,5.422,0,0,0,247.588,88.232Z"></path><path class="g" d="M223.931,147.2H211.323c-.128,0-.249-.007-.372-.015C213.531,147.6,218.4,147.428,223.931,147.2Z"></path><path class="g" d="M250.721,118.25c.042.027.08.059.121.087C250.8,118.308,250.762,118.278,250.721,118.25Z"></path><path class="g" d="M211.322,117.25h0Z"></path><path class="g" d="M247.6,117.251a6.264,6.264,0,0,1,2.935.885A5.491,5.491,0,0,0,247.6,117.251Z"></path><path class="g" d="M252.679,120.271c.043.072.093.138.134.211C252.768,120.411,252.725,120.34,252.679,120.271Z"></path><path class="g" d="M252.434,149.794a5.517,5.517,0,0,0-4.846-2.59h-2.617C248.568,147.6,251.314,148.379,252.434,149.794Z"></path><path class="g" d="M252.836,150.473c.1-1.582-37.764-.39-38.994-.746h0a4.82,4.82,0,0,1-4.171-2.8c-4.679-1.812-4.12-11.823,1.652-11.7h36.264c4.027.086,7.045-4.675,6.672-9.454a10.045,10.045,0,0,0-1.427-5.252c-4.636-3.2-40.468,3.026-43.159-3.547-4.681-1.815-4.122-11.8,1.65-11.7h36.264c6.211.122,7.952-8.785,5.252-13.767v0a5.468,5.468,0,0,0-2.729-.746H192.123c-17.26,1.664-25.265,13.181-27.99,26.091a19.794,19.794,0,0,0,4.531,9.045,26.252,26.252,0,0,0-4.789,12.764c1.325,7.79,3.979,14.084,6.81,16.422h0q.911,1.2,1.9,2.3a25.416,25.416,0,0,0,17.02,6.86h57.987c6.318.143,8.006-9.1,5.1-14.026A2.533,2.533,0,0,1,252.836,150.473Z"></path><path class="g" d="M205.857,88.232H189.6a31.6,31.6,0,0,0-15.316,5.294,1.669,1.669,0,0,1-.307.308h0l-.047.043a32.556,32.556,0,0,1,15.67-5.642C190.573,88.632,197.216,88.457,205.857,88.232Z"></path><path class="b" d="M213.842,149.728h0c1.23.356,39.1-.836,38.994.746a2.533,2.533,0,0,0-.144-.259,2.619,2.619,0,0,0-.258-.42c-1.12-1.415-3.866-2.192-7.463-2.59-5.867-.648-13.987-.285-21.04,0-5.531.224-10.4.4-12.98-.015a5.459,5.459,0,0,1-1.323-.346c.013.029.03.054.043.082A4.82,4.82,0,0,0,213.842,149.728Z"></path><path class="b" d="M252.832,120.516h0a.412.412,0,0,1-.022-.035c-.041-.073-.091-.139-.134-.211a6.256,6.256,0,0,0-1.837-1.934c-.041-.028-.079-.06-.121-.087q-.091-.059-.186-.114a6.264,6.264,0,0,0-2.935-.885l-.017,0H211.317a4.128,4.128,0,0,1-1.688-.363c.01.029.033.054.044.082C212.364,123.542,248.2,117.316,252.832,120.516Z"></path><path class="b" d="M170.685,155.078c-2.831-2.338-5.485-8.632-6.81-16.422-.435,5.519,1.187,12.133,8.158,18.4.191.126.383.249.577.359-.01-.011-.019-.024-.03-.035q-.982-1.1-1.9-2.3Z"></path><path class="b" d="M192.123,90.756h57.988a5.468,5.468,0,0,1,2.729.746v0c.052-.518-.284-.967-.943-1.354-1.682-.99-5.485-1.582-10.431-1.915-9.923-.667-24.435-.291-35.608,0-8.641.225-15.284.4-16.257,0a32.556,32.556,0,0,0-15.67,5.642c-3.581,3.219-11.824,12.517-9.8,22.971C166.858,103.937,174.863,92.42,192.123,90.756Z"></path></g></svg>