<svg xmlns="http://www.w3.org/2000/svg" width="30.239" height="30.238" viewBox="0 0 30.239 30.238">
  <path id="Icon_awesome-linkedin-in" data-name="Icon awesome-linkedin-in" d="M6.769,30.239H.5V10.05H6.769ZM3.631,7.3A3.648,3.648,0,1,1,7.261,3.631,3.661,3.661,0,0,1,3.631,7.3Zm26.6,22.942H23.976V20.411c0-2.342-.047-5.346-3.259-5.346-3.259,0-3.759,2.545-3.759,5.177v10H10.7V10.05h6.013V12.8H16.8a6.587,6.587,0,0,1,5.932-3.26c6.345,0,7.511,4.178,7.511,9.6v11.09Z" transform="translate(0 0)" fill="#dcdcdc"/>
</svg>
