<svg xmlns="http://www.w3.org/2000/svg" width="31" height="31" viewBox="0 0 31 31"><defs><style>.a{fill:none;stroke:#dcdcdc;stroke-linecap:round;stroke-linejoin:round;stroke-width:3px;}</style></defs><g transform="translate(-1.5 -1.5)"><path class="a" d="M10,3H24a7,7,0,0,1,7,7V24a7,7,0,0,1-7,7H10a7,7,0,0,1-7-7V10a7,7,0,0,1,7-7Z"></path><path class="a" d="M23.2,16.714A5.6,5.6,0,1,1,18.486,12,5.6,5.6,0,0,1,23.2,16.714Z" transform="translate(-0.604 -0.596)"></path><path class="a" d="M26.25,9.75h0" transform="translate(-1.55 -0.45)"></path></g></svg>