<svg xmlns="http://www.w3.org/2000/svg" width="23.265" height="30.238" viewBox="0 0 23.265 30.238">
  <path id="Icon_awesome-pinterest-p" data-name="Icon awesome-pinterest-p" d="M12.359.457C6.143.457,0,4.6,0,11.308,0,15.573,2.4,18,3.853,18c.6,0,.945-1.672.945-2.145,0-.563-1.436-1.763-1.436-4.108A8.188,8.188,0,0,1,11.869,3.42c4.126,0,7.179,2.345,7.179,6.652,0,3.217-1.29,9.251-5.471,9.251a2.69,2.69,0,0,1-2.8-2.654c0-2.29,1.6-4.507,1.6-6.87,0-4.011-5.689-3.284-5.689,1.563a7.118,7.118,0,0,0,.582,3.072c-.836,3.6-2.545,8.96-2.545,12.668,0,1.145.164,2.272.273,3.417.206.23.1.206.418.091,3.053-4.18,2.944-5,4.326-10.469a4.914,4.914,0,0,0,4.2,2.181c6.434,0,9.324-6.271,9.324-11.923C23.265,4.383,18.066.457,12.359.457Z" transform="translate(0 -0.457)" fill="#dcdcdc"/>
</svg>
