<svg xmlns="http://www.w3.org/2000/svg" width="50" height="50" viewBox="0 0 50 50"><defs><style>.a{fill:#ed6818;}.b,.j{fill:#fff;}.c{fill:#4a421d;}.d{fill:#f6a221;}.e{fill:#d13044;}.f{fill:#f5585c;}.g{fill:#fab941;}.h{fill:#e2e9f2;}.i{fill:#c7d6e5;}.j{font-size:8px;font-family:Poppins-SemiBold, Poppins;font-weight:600;letter-spacing:0.03em;}</style></defs><g transform="translate(-306 -589)"><path class="a" d="M10,0H40A10,10,0,0,1,50,10V40A10,10,0,0,1,40,50H10A10,10,0,0,1,0,40V10A10,10,0,0,1,10,0Z" transform="translate(306 589)"/><g transform="translate(307 595)"><path class="b" d="M38.82,34.555a14.381,14.381,0,0,1-5.244,11.119c-2.491,2.056-5.684-3.9-9.166-3.9s-6.674,5.961-9.164,3.906A14.41,14.41,0,1,1,38.82,34.555Z" transform="translate(0 -18.965)"/><path class="c" d="M114.345,0H103.037a3.514,3.514,0,0,0-3.51,3.51v23.2c2.49,2.055,5.683-10.986,9.164-10.986,2.758,0,5.335,13.5,7.526,12.156a14.45,14.45,0,0,0,1.639-1.17V3.51A3.514,3.514,0,0,0,114.345,0Z" transform="translate(-84.281)"/><path class="c" d="M103.037,0a3.514,3.514,0,0,0-3.51,3.51v23.2a14.419,14.419,0,0,0,3.131,1.969V3.334A3.515,3.515,0,0,1,105.072,0Z" transform="translate(-84.281)"/><path class="b" d="M127.5,77.363v23.348a14.419,14.419,0,0,0,15.05,0V77.363Z" transform="translate(-110.611 -72.83)"/><path class="b" d="M217.08,21.059a.459.459,0,1,1,.458-.459A.46.46,0,0,1,217.08,21.059Z" transform="translate(-194.514 -18.962)"/><path class="b" d="M245.465,21.062h-2.152a.459.459,0,0,1,0-.917h2.152a.459.459,0,1,1,0,.917Z" transform="translate(-219.211 -18.965)"/><path class="b" d="M142.546,30.863V29.84a1.871,1.871,0,0,0-1.871-1.871h-1.041a.713.713,0,0,0-.713.713.906.906,0,0,1-.906.906h-5.989a.906.906,0,0,1-.906-.906.713.713,0,0,0-.713-.713h-1.041A1.871,1.871,0,0,0,127.5,29.84v1.023Z" transform="translate(-110.611 -26.33)"/><path class="b" d="M128.988,29.668a3.486,3.486,0,0,1,.438-1.695h-.059a1.871,1.871,0,0,0-1.871,1.871v1.023h1.492Z" transform="translate(-110.611 -26.334)"/><path class="d" d="M101.054,122.128a1.527,1.527,0,0,1-1.527-1.527v-3.58h3.055v3.58A1.527,1.527,0,0,1,101.054,122.128Z" transform="translate(-84.281 -110.163)"/><path class="e" d="M153.187,122.128a1.527,1.527,0,0,1-1.527-1.527v-3.58h3.055v3.58A1.527,1.527,0,0,1,153.187,122.128Z" transform="translate(-133.36 -110.163)"/><path class="d" d="M205.32,122.128a1.527,1.527,0,0,1-1.527-1.527v-3.58h3.055v3.58A1.527,1.527,0,0,1,205.32,122.128Z" transform="translate(-182.438 -110.163)"/><path class="e" d="M257.454,122.128a1.527,1.527,0,0,1-1.528-1.527v-3.58h3.055v3.58A1.527,1.527,0,0,1,257.454,122.128Z" transform="translate(-231.516 -110.163)"/><path class="d" d="M309.589,122.128a1.527,1.527,0,0,1-1.527-1.527v-3.58h3.055v3.58A1.527,1.527,0,0,1,309.589,122.128Z" transform="translate(-280.597 -110.163)"/><path class="e" d="M361.722,122.128A1.527,1.527,0,0,1,360.2,120.6v-3.58h3.055v3.58A1.527,1.527,0,0,1,361.722,122.128Z" transform="translate(-329.676 -110.163)"/><path class="f" d="M361.722,147.582a1.527,1.527,0,0,0-1.527,1.527v.262a1.527,1.527,0,1,0,3.055,0v-.262A1.527,1.527,0,0,0,361.722,147.582Z" transform="translate(-329.676 -138.935)"/><g transform="translate(15.246 8.647)"><path class="g" d="M309.589,147.582a1.527,1.527,0,0,0-1.527,1.527v.262a1.527,1.527,0,1,0,3.055,0v-.262A1.527,1.527,0,0,0,309.589,147.582Z" transform="translate(-295.843 -147.582)"/><path class="g" d="M205.32,147.582a1.527,1.527,0,0,0-1.527,1.527v.262a1.527,1.527,0,1,0,3.055,0v-.262A1.527,1.527,0,0,0,205.32,147.582Z" transform="translate(-197.684 -147.582)"/><path class="g" d="M101.054,147.582a1.527,1.527,0,0,0-1.527,1.527v.262a1.527,1.527,0,1,0,3.055,0v-.262A1.527,1.527,0,0,0,101.054,147.582Z" transform="translate(-99.527 -147.582)"/></g><path class="f" d="M257.454,147.582a1.527,1.527,0,0,0-1.528,1.527v.262a1.527,1.527,0,1,0,3.055,0v-.262A1.527,1.527,0,0,0,257.454,147.582Z" transform="translate(-231.516 -138.935)"/><path class="f" d="M153.187,147.582a1.527,1.527,0,0,0-1.527,1.527v.262a1.527,1.527,0,1,0,3.055,0v-.262A1.527,1.527,0,0,0,153.187,147.582Z" transform="translate(-133.36 -138.935)"/><path class="d" d="M101.574,77.363,99.961,78.9h3.029l1.079-1.54Z" transform="translate(-84.69 -72.83)"/><path class="e" d="M344.324,77.363h-2.492l1.076,1.54h3.025Z" transform="translate(-312.389 -72.83)"/><path class="e" d="M155.254,77.363h-2.515L151.66,78.9h3.055l.132-.378Z" transform="translate(-133.36 -72.83)"/><path class="d" d="M298.879,77.363l.538,1.54h3.055l-1.076-1.54Z" transform="translate(-271.952 -72.83)"/><path class="e" d="M258.41,77.363h-2.519V78.9h3.057Z" transform="translate(-231.483 -72.83)"/><path class="d" d="M203.793,78.9h3.053v-1.54h-2.513l-.407,1.163Z" transform="translate(-182.438 -72.83)"/><path class="h" d="M110.114,101.648H91.841a.505.505,0,1,0,0,1.011h18.273a.505.505,0,1,0,0-1.011Z" transform="translate(-76.57 -95.692)"/><path class="i" d="M97.443,102.153a.505.505,0,0,1,.505-.505H91.841a.505.505,0,1,0,0,1.011h6.107A.505.505,0,0,1,97.443,102.153Z" transform="translate(-76.57 -95.692)"/><path class="g" d="M175.2,239.96a5.309,5.309,0,1,0-1.943,7.253A5.309,5.309,0,0,0,175.2,239.96Z" transform="translate(-146.189 -223.4)"/><path class="d" d="M168.784,245.68a5.311,5.311,0,0,1,.68-6.239,5.309,5.309,0,1,0,5.064,8.77A5.312,5.312,0,0,1,168.784,245.68Z" transform="translate(-146.198 -225.411)"/><path class="i" d="M283.858,313.6h0a.44.44,0,0,1-.438-.442l.01-1.939a.44.44,0,0,1,.44-.438h0a.441.441,0,0,1,.438.443l-.01,1.939A.44.44,0,0,1,283.858,313.6Z" transform="translate(-257.397 -292.575)"/><path class="h" d="M274.751,270.05a1.1,1.1,0,1,1-2.185-.011c0-.808.5-1.679,1.1-1.676S274.755,269.242,274.751,270.05Z" transform="translate(-247.181 -252.639)"/><path class="i" d="M223.87,313.6h0a.44.44,0,0,1-.438-.442l.01-1.939a.441.441,0,0,1,.44-.438h0a.441.441,0,0,1,.438.443l-.01,1.939A.44.44,0,0,1,223.87,313.6Z" transform="translate(-200.924 -292.575)"/><path class="h" d="M204.806,271.737h-1.633a.862.862,0,0,1-.861-.861v-2.064a.44.44,0,1,1,.881,0v2.045h1.594v-2.045a.44.44,0,1,1,.88,0v2.064A.862.862,0,0,1,204.806,271.737Z" transform="translate(-181.044 -252.646)"/><path class="h" d="M223.87,271.737a.44.44,0,0,1-.44-.44v-2.485a.44.44,0,1,1,.881,0V271.3A.44.44,0,0,1,223.87,271.737Z" transform="translate(-200.924 -252.646)"/><path class="b" d="M178.781,446.418h-9.588a.306.306,0,0,0-.306.306v1.6h10.2v-1.6A.306.306,0,0,0,178.781,446.418Z" transform="translate(-149.577 -420.261)"/><path class="b" d="M171.618,446.418h-2.425a.306.306,0,0,0-.306.306v1.6h2.425v-1.6A.306.306,0,0,1,171.618,446.418Z" transform="translate(-149.577 -420.261)"/><path class="b" d="M179.087,478.875h-10.2v1.012a14.461,14.461,0,0,0,10.2,0Z" transform="translate(-149.577 -450.816)"/><path class="b" d="M168.887,479.887a14.324,14.324,0,0,0,2.423.68v-1.692h-2.423Z" transform="translate(-149.577 -450.816)"/><path class="f" d="M281.337,344.48h0a.587.587,0,0,1-.584-.59l.009-1.939a.587.587,0,0,1,.587-.584h0a.587.587,0,0,1,.584.59l-.009,1.939A.587.587,0,0,1,281.337,344.48Z" transform="translate(-254.886 -321.365)"/><path class="f" d="M221.349,344.48h0a.587.587,0,0,1-.584-.59l.01-1.939a.587.587,0,0,1,.587-.584h0a.587.587,0,0,1,.584.59l-.009,1.939A.587.587,0,0,1,221.349,344.48Z" transform="translate(-198.413 -321.365)"/><path class="e" d="M281.924,350.49a.587.587,0,0,1-1.167.082l-.007,1.39a.587.587,0,0,0,.584.59h0a.587.587,0,0,0,.587-.584l.01-1.939a.613.613,0,0,0-.007-.088Z" transform="translate(-254.886 -329.437)"/><path class="e" d="M221.936,350.487a.587.587,0,0,1-.587.584h0a.587.587,0,0,1-.577-.5l-.007,1.39a.587.587,0,0,0,.584.59h0a.587.587,0,0,0,.587-.584l.009-1.939a.559.559,0,0,0-.007-.088Z" transform="translate(-198.413 -329.434)"/></g><text class="j" transform="translate(332 633)"><tspan x="-14.696" y="0">ONLINE</tspan></text></g></svg>