<svg xmlns="http://www.w3.org/2000/svg" width="20.333" height="20.332" viewBox="0 0 20.333 20.332"><defs><style>.a{fill:#fff;}</style></defs><path class="a" d="M24.236,20.423a17.079,17.079,0,0,0-3.568-2.387c-1.069-.513-1.461-.5-2.218.042-.63.455-1.037.879-1.763.72a10.515,10.515,0,0,1-3.541-2.62,10.439,10.439,0,0,1-2.62-3.541c-.154-.73.27-1.133.72-1.763.545-.757.561-1.149.042-2.218A16.741,16.741,0,0,0,8.9,5.088c-.778-.778-.953-.609-1.382-.455a7.861,7.861,0,0,0-1.265.672,3.816,3.816,0,0,0-1.519,1.6c-.3.651-.651,1.863,1.127,5.029A28.059,28.059,0,0,0,10.8,18.517h0l.005.005.005.005h0a28.169,28.169,0,0,0,6.579,4.933c3.165,1.779,4.377,1.429,5.029,1.127a3.751,3.751,0,0,0,1.6-1.519,7.862,7.862,0,0,0,.672-1.265C24.845,21.375,25.019,21.2,24.236,20.423Z" transform="translate(-4.49 -4.502)"/></svg>