<?xml version="1.0" encoding="utf-8"?>
<!-- Generator: Adobe Illustrator 26.0.2, SVG Export Plug-In . SVG Version: 6.00 Build 0)  -->
<svg version="1.1" id="Layer_1" xmlns="http://www.w3.org/2000/svg" xmlns:xlink="http://www.w3.org/1999/xlink" x="0px" y="0px"
	 viewBox="0 0 262.7 35" style="enable-background:new 0 0 262.7 35;" xml:space="preserve">
<style type="text/css">
	.st0{enable-background:new    ;}
	.st1{fill:#191919;}
	.st2{fill:#FFC545;}
	.st3{fill:#E9E9E9;}
</style>
<g class="st0">
	<path class="st1" d="M228,22.9v-2.4l7.2-10.3h3.6v10h1.9v2.7h-1.9V26h-3.1v-3.1H228z M235.9,13.5l-4.5,6.7h4.5V13.5z"/>
	<path class="st1" d="M243,25.6c-0.4-0.3-0.5-0.8-0.5-1.3c0-0.5,0.2-0.9,0.5-1.3s0.8-0.5,1.4-0.5c0.5,0,1,0.2,1.3,0.5
		c0.4,0.3,0.5,0.8,0.5,1.3c0,0.5-0.2,0.9-0.5,1.3c-0.4,0.3-0.8,0.5-1.3,0.5C243.8,26.2,243.3,26,243,25.6z"/>
	<path class="st1" d="M252.7,23c0.4,0.3,1,0.5,1.7,0.5c0.9,0,1.6-0.4,2-1.1c0.4-0.8,0.6-2,0.6-3.8c-0.3,0.5-0.8,0.8-1.4,1.1
		c-0.6,0.3-1.3,0.4-2,0.4c-0.9,0-1.8-0.2-2.5-0.6s-1.4-1-1.8-1.7c-0.4-0.8-0.7-1.7-0.7-2.8c0-1.6,0.5-2.9,1.5-3.9s2.3-1.4,4-1.4
		c2.1,0,3.6,0.7,4.4,2c0.9,1.3,1.3,3.3,1.3,6c0,1.9-0.2,3.5-0.5,4.7c-0.3,1.2-0.9,2.1-1.7,2.8c-0.8,0.6-1.9,0.9-3.3,0.9
		c-1.1,0-2-0.2-2.8-0.6c-0.8-0.4-1.3-1-1.7-1.6c-0.4-0.7-0.6-1.4-0.7-2.3h2.9C252,22.1,252.3,22.6,252.7,23z M256.1,16.8
		c0.4-0.5,0.7-1.1,0.7-1.9c0-0.9-0.2-1.5-0.7-2s-1.1-0.7-1.9-0.7s-1.4,0.2-1.9,0.7s-0.7,1.1-0.7,1.9c0,0.8,0.2,1.4,0.7,1.9
		s1.1,0.7,2,0.7C255,17.5,255.6,17.3,256.1,16.8z"/>
</g>
<g id="Group_858" transform="translate(125.298 473)">
	<g id="Group_856" transform="translate(44.311)">
		<path id="Path_2257" class="st2" d="M-89.1-455.3l-3.4,3.4c-1.1,1-1.5,2.5-1.3,4l0.8,4.7c0.4,2.4-1.2,4.8-3.7,5.2
			c-1,0.2-2,0-2.9-0.5l-4.3-2.2c-1.3-0.7-2.9-0.7-4.2,0l-4.3,2.2c-2.2,1.2-4.9,0.3-6.1-1.9c-0.5-0.9-0.6-1.9-0.5-2.9l0.8-4.7
			c0.3-1.5-0.2-2.9-1.3-4l-3.4-3.4c-1.8-1.7-1.8-4.6-0.1-6.4c0.7-0.7,1.6-1.2,2.6-1.3l4.8-0.7c1.5-0.2,2.7-1.1,3.4-2.5l2.1-4.3
			c1.1-2.2,3.8-3.1,6-2c0.9,0.4,1.6,1.2,2,2l2.1,4.3c0.7,1.3,1.9,2.2,3.4,2.5l4.8,0.7c2.5,0.4,4.2,2.6,3.8,5.1
			C-87.9-456.9-88.4-456-89.1-455.3L-89.1-455.3z"/>
	</g>
	<g id="Group_857" transform="translate(88.623)">
		<path id="Path_2259" class="st2" d="M-89.1-455.3l-3.4,3.4c-1.1,1-1.5,2.5-1.3,4l0.8,4.7c0.4,2.4-1.2,4.8-3.7,5.2
			c-1,0.2-2,0-2.9-0.5l-4.3-2.2c-1.3-0.7-2.9-0.7-4.2,0l-4.3,2.2c-2.2,1.2-4.9,0.3-6.1-1.9c-0.5-0.9-0.6-1.9-0.5-2.9l0.8-4.7
			c0.3-1.5-0.2-2.9-1.3-4l-3.4-3.4c-1.8-1.7-1.8-4.6-0.1-6.4c0.7-0.7,1.6-1.2,2.6-1.3l4.8-0.7c1.5-0.2,2.7-1.1,3.4-2.5l2.1-4.3
			c1.1-2.2,3.8-3.1,6-2c0.9,0.4,1.6,1.2,2,2l2.1,4.3c0.7,1.3,1.9,2.2,3.4,2.5l4.8,0.7c2.5,0.4,4.2,2.6,3.8,5.1
			C-87.9-456.9-88.4-456-89.1-455.3L-89.1-455.3z"/>
	</g>
</g>
<g id="Group_859" transform="translate(258.543 473)">
	<path id="Path_2261" class="st2" d="M-89.1-455.3l-3.4,3.4c-1.1,1-1.5,2.5-1.3,4l0.8,4.7c0.4,2.4-1.2,4.8-3.7,5.2
		c-1,0.2-2,0-2.9-0.5l-4.3-2.2c-1.3-0.7-2.9-0.7-4.2,0l-4.3,2.2c-2.2,1.2-4.9,0.3-6.1-1.9c-0.5-0.9-0.6-1.9-0.5-2.9l0.8-4.7
		c0.3-1.5-0.2-2.9-1.3-4l-3.4-3.4c-1.8-1.7-1.8-4.6-0.1-6.4c0.7-0.7,1.6-1.2,2.6-1.3l4.8-0.7c1.5-0.2,2.7-1.1,3.4-2.5l2.1-4.3
		c1.1-2.2,3.8-3.1,6-2c0.9,0.4,1.6,1.2,2,2l2.1,4.3c0.7,1.3,1.9,2.2,3.4,2.5l4.8,0.7c2.5,0.4,4.2,2.6,3.8,5.1
		C-87.9-456.9-88.4-456-89.1-455.3L-89.1-455.3z"/>
</g>
<g id="Group_856_00000081636192730292931490000006481701034248878746_" transform="translate(44.311)">
	<path id="Path_2257_00000084531370082443572100000005958703711129355454_" class="st2" d="M-7.6,17.7L-11,21c-1.1,1-1.5,2.5-1.3,4
		l0.8,4.7c0.4,2.4-1.2,4.8-3.7,5.2c-1,0.2-2,0-2.9-0.5l-4.3-2.2c-1.3-0.7-2.9-0.7-4.2,0l-4.3,2.2c-2.2,1.2-4.9,0.3-6.1-1.9
		c-0.5-0.9-0.6-1.9-0.5-2.9l0.8-4.7c0.3-1.5-0.2-2.9-1.3-4l-3.4-3.4c-1.8-1.7-1.8-4.6-0.1-6.4c0.7-0.7,1.6-1.2,2.6-1.3l4.8-0.7
		c1.5-0.2,2.7-1.1,3.4-2.5l2.1-4.3c1.1-2.2,3.8-3.1,6-2c0.9,0.4,1.6,1.2,2,2l2.1,4.3c0.7,1.3,1.9,2.2,3.4,2.5l4.8,0.7
		c2.5,0.4,4.2,2.6,3.8,5.1C-6.4,16.1-6.9,17-7.6,17.7L-7.6,17.7z"/>
</g>
<g id="Group_859_00000147216210236486421400000011450706633392588704_" transform="translate(258.543 473)">
	<path id="Path_2261_00000170269117012161018130000000574583712120454823_" class="st2" d="M-40.8-455.3l-3.4,3.4
		c-1.1,1-1.5,2.5-1.3,4l0.8,4.7c0.4,2.4-1.2,4.8-3.7,5.2c-1,0.2-2,0-2.9-0.5l-4.3-2.2c-1.3-0.7-2.9-0.7-4.2,0l-4.3,2.2
		c-2.2,1.2-4.9,0.3-6.1-1.9c-0.5-0.9-0.6-1.9-0.5-2.9l0.8-4.7c0.3-1.5-0.2-2.9-1.3-4l-3.4-3.4c-1.8-1.7-1.8-4.6-0.1-6.4
		c0.7-0.7,1.6-1.2,2.6-1.3l4.8-0.7c1.5-0.2,2.7-1.1,3.4-2.5l2.1-4.3c1.1-2.2,3.8-3.1,6-2c0.9,0.4,1.6,1.2,2,2l2.1,4.3
		c0.7,1.3,1.9,2.2,3.4,2.5l4.8,0.7c2.5,0.4,4.2,2.6,3.8,5.1C-39.6-456.9-40.1-456-40.8-455.3L-40.8-455.3z"/>
</g>
<path class="st3" d="M211.3,9.4c0,0.5,0,2.4,0,2.9c0,2.3,0,4.6-0.1,7c0,4.7-0.1,9.3-0.1,14c0,0.5,0,0.9,0,1.4
	c1.2-0.4,2.2-1.5,2.6-2.7c1.1-3.1-1.4-6.6,0-9.8c1.1-2.4,3.7-3.3,5-5.5c1.2-2.1,0.3-4.9-1.7-6.1c-1-0.6-2.2-0.8-3.4-0.9
	C213.4,9.7,211.5,9.4,211.3,9.4z"/>
</svg>
