<svg xmlns="http://www.w3.org/2000/svg" width="62" height="61" viewBox="0 0 62 61"><defs><style>.a{fill:#f6881f;}.b{fill:#fff;}</style></defs><g transform="translate(-124 -5216)"><rect class="a" width="62" height="61" rx="10" transform="translate(124 5216)"/><g transform="translate(231.335 5287)"><path class="b" d="M-4.6-28.021c.348-.423,9.623-10.56,11.085-18.742a1.965,1.965,0,0,0-.508-2c-.73-.555-1.825-.857-4.437-.857l-4.89,0a.482.482,0,0,1-.391-.467l-.013-5.634a.646.646,0,0,1,.643-.646h0a.645.645,0,0,1,.645.643s.008,3.058.01,4.145a.433.433,0,0,0,.3.415c1.559.415,9.442.111,9.319-1.317v-.011A11.854,11.854,0,0,0-4.608-63a11.859,11.859,0,0,0-5.343,1.265,11.787,11.787,0,0,0-6.51,10.579c.051,3.268,2.207,9.076,3.526,9.938.609.4,1.409.251,4.991.251,1.624,0,3.137,0,3.88.009.078.013.483.107.483.479h0l.008,4.282a.643.643,0,0,1-.643.645.642.642,0,0,1-.645-.642s.031-1.718.031-2.359c0-.149.012-.4-.423-.6-1.426-.634-6.059-.251-6.32.448a6.836,6.836,0,0,0,1.216,2.644,92.9,92.9,0,0,0,5.687,7.976l.073.06Z" transform="translate(-71.714 0)"/><path class="b" d="M-96.055,225.082l-.343-.147c-.6-.26-.737-.385-.737-.669,0-.247.186-.408.475-.408s.5.083.726.5l.1.171,1.384-.89-.086-.151a2.223,2.223,0,0,0-2.12-1.2,2.019,2.019,0,0,0-2.2,2.007,2.348,2.348,0,0,0,1.765,2.247l.343.147c.677.3.9.419.9.747,0,.3-.3.5-.751.5a1.313,1.313,0,0,1-1.2-.75l-.095-.153-1.428.827.079.155a2.855,2.855,0,0,0,2.675,1.51c1.5,0,2.469-.827,2.469-2.105,0-1.252-.745-1.822-1.944-2.336Z" transform="translate(0 -246.879)"/><path class="b" d="M-43.9,225.309c-.065.18-.132.4-.19.6a5.7,5.7,0,0,0-.24-.618l-1.361-2.853h-.37l-1.339,2.853a5.643,5.643,0,0,0-.24.617c-.059-.2-.125-.42-.189-.6l-1.02-2.81H-50.7l2.606,7.124h.382l1.616-3.336c.073-.154.15-.344.215-.518.065.174.139.364.211.517l1.556,3.337h.384l2.565-7.124h-1.73l-1.008,2.81Zm4.8,4.254h1.748V222.5H-39.1v7.064Z" transform="translate(-42.091 -247.009)"/><path class="b" d="M69.6,227.065H71.21v.681a3.326,3.326,0,0,1-1.126.184,1.9,1.9,0,0,1-2.033-2.022,1.833,1.833,0,0,1,1.816-2,1.673,1.673,0,0,1,1.365.554l.13.133,1.192-1.178-.115-.13a3.207,3.207,0,0,0-2.572-.988,3.488,3.488,0,0,0-3.6,3.612,3.562,3.562,0,0,0,3.818,3.621,4.493,4.493,0,0,0,2.688-.82l.067-.054v-3.168H69.6v1.579Z" transform="translate(-143.305 -246.884)"/><path class="b" d="M135.355,227.065h1.615v.681a3.327,3.327,0,0,1-1.126.184,1.9,1.9,0,0,1-2.033-2.022,1.832,1.832,0,0,1,1.816-2,1.675,1.675,0,0,1,1.366.554l.129.133,1.191-1.178-.115-.13a3.207,3.207,0,0,0-2.571-.988,3.488,3.488,0,0,0-3.6,3.612,3.562,3.562,0,0,0,3.818,3.621,4.486,4.486,0,0,0,2.687-.82l.068-.054v-3.168h-3.244v1.579Z" transform="translate(-200.212 -246.884)"/><path class="b" d="M195.565,222.883l-1.184,2.255a8.261,8.261,0,0,0-.364.829,8.478,8.478,0,0,0-.375-.832l-1.235-2.252h-1.948l2.671,4.8v2.263h1.756v-2.363l2.506-4.7Z" transform="translate(-250.777 -247.393)"/></g></g></svg>