<svg xmlns="http://www.w3.org/2000/svg" width="62" height="61" viewBox="0 0 62 61"><defs><style>.a{fill:#e23744;}.b{fill:#fff;}</style></defs><g transform="translate(-124 -5217)"><rect class="a" width="62" height="61" rx="10" transform="translate(124 5217)"/><g transform="translate(130 5242)"><path class="b" d="M38.047,188.293,38,189.713l-3.7,4.024c1.546,0,2.527-.016,3.092-.047-.163.764-.3,1.388-.431,2.324-.743-.062-1.9-.078-3.062-.078-1.293,0-2.423.016-3.33.078l.03-1.435,3.7-4.008c-1.62,0-2.215.016-2.884.031.149-.717.253-1.513.357-2.308,1.174.047,1.635.062,3.166.062C36.352,188.356,37.155,188.34,38.047,188.293Zm2.631,4.451c0,.952.312,1.435.847,1.435.714,0,1.278-1.154,1.278-2.557,0-.967-.312-1.435-.833-1.435C41.258,190.187,40.679,191.325,40.679,192.744Zm4.861-1.237a4.486,4.486,0,0,1-4.252,4.741A3.121,3.121,0,0,1,38,192.833a4.491,4.491,0,0,1,4.252-4.726A3.1,3.1,0,0,1,45.54,191.507Zm29.131,1.237c0,.952.312,1.435.847,1.435.714,0,1.278-1.154,1.278-2.557,0-.967-.312-1.435-.833-1.435C75.251,190.187,74.671,191.325,74.671,192.744Zm4.961-1.292a4.544,4.544,0,0,1-4.308,4.8A3.162,3.162,0,0,1,72,192.8a4.55,4.55,0,0,1,4.308-4.788A3.143,3.143,0,0,1,79.631,191.452Zm-21.59-.835c.194-1.326.089-2.527-1.383-2.527-1.07,0-2.23.9-3.048,2.417.178-1.248.074-2.417-1.383-2.417-1.1,0-2.289.951-3.107,2.527a8.1,8.1,0,0,0,.1-2.449,18.327,18.327,0,0,1-2.631.25,14.1,14.1,0,0,1-.149,2.542L46.1,193.3c-.134.92-.283,1.981-.431,2.651h2.765c.015-.406.119-1.045.193-1.607l.238-1.606c.193-1.045,1.026-2.277,1.665-2.277.372,0,.357.359.253,1.029l-.267,1.809c-.134.92-.283,1.981-.431,2.651h2.795c.015-.406.1-1.045.178-1.607l.238-1.606c.193-1.045,1.026-2.277,1.665-2.277.372,0,.357.343.3.811l-.667,4.679h2.55ZM71.4,193.752l-.3,1.841a5.053,5.053,0,0,1-2.319.608c-1.695,0-2.037-.9-1.769-2.823l.431-3.088h-.834l.236-2,.91-.044L68.1,186.8l2.571-.967-.327,2.418h1.769c-.06.25-.267,1.622-.327,2.043H70.058l-.387,2.854c-.1.733-.044,1,.461,1A3.414,3.414,0,0,0,71.4,193.752Z" transform="translate(-30.57 -185.83)"/><path class="b" d="M530.188,229.188a2.222,2.222,0,0,0,1.734-1.917l.026-.241a4.74,4.74,0,0,0-1.547-.09,1.777,1.777,0,0,0-1.224.612,1.1,1.1,0,0,0-.232.839A1.061,1.061,0,0,0,530.188,229.188Zm-.8,1.426a1.96,1.96,0,0,1-2.452-1.555,2.708,2.708,0,0,1,.462-2.115,3.641,3.641,0,0,1,2.461-1.225,7.074,7.074,0,0,1,2.243.074l.028-.115a2.488,2.488,0,0,0,.011-.589c-.069-.565-.516-.9-1.616-.767a5.63,5.63,0,0,0-2,.665L528,223.375a7.344,7.344,0,0,1,2.754-.883c2.049-.252,3.489.4,3.674,1.9a4.9,4.9,0,0,1,0,1.207q-.4,2.786-.506,4.193a7.456,7.456,0,0,0,0,.747l-2.543,0a3.555,3.555,0,0,0,.145-.594,5.441,5.441,0,0,0,.062-.621A3.1,3.1,0,0,1,529.391,230.615Z" transform="translate(-499.116 -220.391)"/></g></g></svg>